<?xml version="1.0" encoding="UTF-8" standalone="no"?>
<svg
   xmlns:dc="http://purl.org/dc/elements/1.1/"
   xmlns:cc="http://creativecommons.org/ns#"
   xmlns:rdf="http://www.w3.org/1999/02/22-rdf-syntax-ns#"
   xmlns:svg="http://www.w3.org/2000/svg"
   xmlns="http://www.w3.org/2000/svg"
   xmlns:xlink="http://www.w3.org/1999/xlink"
   width="170"
   height="20"
   viewBox="0 0 170 20"
   id="svg24436"
   version="1.1">
  <defs
     id="defs24438">
    <linearGradient
       id="linearGradient9259">
      <stop
         style="stop-color:#000000;stop-opacity:1;"
         offset="0"
         id="stop9261" />
      <stop
         style="stop-color:#000000;stop-opacity:0;"
         offset="1"
         id="stop9263" />
    </linearGradient>
    <linearGradient
       id="linearGradient28809">
      <stop
         id="stop28811"
         offset="0"
         style="stop-color:#ffffff;stop-opacity:1;" />
      <stop
         id="stop28813"
         offset="1"
         style="stop-color:#ffffff;stop-opacity:0;" />
    </linearGradient>
    <linearGradient
       gradientTransform="translate(-4.999777,0)"
       gradientUnits="userSpaceOnUse"
       y2="25"
       x2="150"
       y1="25"
       x1="160"
       id="linearGradient28815"
       xlink:href="#linearGradient28809" />
    <linearGradient
       gradientTransform="translate(0,-10.5)"
       xlink:href="#linearGradient9259"
       id="linearGradient9265"
       x1="145"
       y1="20"
       x2="155"
       y2="20"
       gradientUnits="userSpaceOnUse" />
  </defs>
  <metadata
     id="metadata24441">
    <rdf:RDF>
      <cc:Work
         rdf:about="">
        <dc:format>image/svg+xml</dc:format>
        <dc:type
           rdf:resource="http://purl.org/dc/dcmitype/StillImage" />
        <dc:title></dc:title>
      </cc:Work>
    </rdf:RDF>
  </metadata>
  <path
     style="color:#000000;font-style:normal;font-variant:normal;font-weight:normal;font-stretch:normal;font-size:medium;line-height:normal;font-family:sans-serif;text-indent:0;text-align:start;text-decoration:none;text-decoration-line:none;text-decoration-style:solid;text-decoration-color:#000000;letter-spacing:normal;word-spacing:normal;text-transform:none;direction:ltr;block-progression:tb;writing-mode:lr-tb;baseline-shift:baseline;text-anchor:start;white-space:normal;clip-rule:nonzero;display:inline;overflow:visible;visibility:visible;opacity:1;isolation:auto;mix-blend-mode:normal;color-interpolation:sRGB;color-interpolation-filters:linearRGB;solid-color:#000000;solid-opacity:1;fill:url(#linearGradient9265);fill-opacity:1;fill-rule:nonzero;stroke:none;stroke-width:1;stroke-linecap:round;stroke-linejoin:miter;stroke-miterlimit:4;stroke-dasharray:none;stroke-dashoffset:0;stroke-opacity:1;color-rendering:auto;image-rendering:auto;shape-rendering:auto;text-rendering:auto;enable-background:accumulate"
     d="m 54.898438,0.789062 c -0.395509,0 -0.704754,0.166016 -0.927735,0.498047 -0.221355,0.332032 -0.332031,0.797201 -0.332031,1.394532 0,0.595702 0.110676,1.058593 0.332031,1.390625 0.222981,0.332031 0.532227,0.498046 0.927735,0.498046 0.397135,0 0.70638,-0.166015 0.927734,-0.498046 0.221355,-0.332032 0.332031,-0.794923 0.332031,-1.390625 0,-0.597331 -0.110676,-1.0625 -0.332031,-1.394532 C 55.604818,0.955078 55.295573,0.789062 54.898438,0.789062 Z m 19.908203,0 -0.888672,0.576172 0,0.320313 0.736328,-0.476563 0,3.033204 -0.634766,0 0,0.257812 1.759766,0 0,-0.257812 -0.634766,0 0,-3.453126 -0.33789,0 z m 19.912109,0 c -0.169271,10e-7 -0.342123,0.02539 -0.519531,0.07422 -0.175782,0.04883 -0.351238,0.118164 -0.525391,0.210938 l 0,0.65039 0.273438,0 c 0.02279,-0.231119 0.09766,-0.403971 0.224609,-0.519531 0.126953,-0.11556 0.308268,-0.173828 0.541016,-0.173828 0.224611,0 0.40039,0.06868 0.527343,0.207031 0.12858,0.138346 0.191407,0.330404 0.191407,0.576172 0,0.22461 -0.05208,0.439453 -0.15625,0.644531 -0.104167,0.20345 -0.277343,0.427735 -0.521485,0.671875 l -1.105468,1.103516 0,0.265625 2.349609,0 0,-0.849609 -0.285156,0 0,0.449218 -1.521485,0 0.921875,-0.919921 c 0.01953,-0.01953 0.04882,-0.0485 0.08789,-0.08594 0.498047,-0.496419 0.746094,-0.922852 0.746094,-1.279297 0,-0.315755 -0.110352,-0.566081 -0.330078,-0.75 -0.21972,-0.183919 -0.519203,-0.275391 -0.898438,-0.275391 z m 20.11523,0 c -0.15299,10e-7 -0.3164,0.01921 -0.49218,0.05664 -0.17416,0.03743 -0.35644,0.09245 -0.54688,0.164063 l 0,0.640625 0.27344,0 c 0.0212,-0.205078 0.0905,-0.358724 0.21094,-0.462891 0.12207,-0.104167 0.29394,-0.15625 0.51367,-0.15625 0.21973,0 0.38867,0.05599 0.50586,0.169922 0.11718,0.112305 0.17578,0.275065 0.17578,0.488281 0,0.23763 -0.0716,0.416341 -0.21484,0.535156 -0.1416,0.117188 -0.3558,0.175782 -0.64063,0.175782 l -0.12109,0 0,0.25 0.23047,0 c 0.28646,0 0.50423,0.07259 0.65234,0.220703 0.14811,0.146484 0.22266,0.363932 0.22266,0.65039 0,0.250652 -0.0719,0.448894 -0.2168,0.59375 -0.14323,0.14323 -0.34082,0.214844 -0.58984,0.214844 -0.25716,0 -0.45606,-0.0612 -0.59766,-0.18164 -0.14161,-0.120443 -0.22006,-0.296875 -0.23633,-0.53125 l -0.27344,0 0,0.707031 c 0.17904,0.08301 0.35841,0.14486 0.53907,0.185547 0.18229,0.04069 0.36816,0.06055 0.55859,0.06055 0.42969,0 0.75847,-0.08887 0.98633,-0.269531 0.22949,-0.182291 0.3457,-0.444987 0.3457,-0.785156 0,-0.278321 -0.084,-0.503581 -0.25,-0.677734 -0.16439,-0.17578 -0.39583,-0.285805 -0.69531,-0.328125 0.2539,-0.05208 0.44954,-0.150391 0.58789,-0.296875 0.13835,-0.148112 0.20703,-0.333008 0.20703,-0.552735 0,-0.273437 -0.0986,-0.485676 -0.29883,-0.638672 -0.20019,-0.154622 -0.47949,-0.232422 -0.83594,-0.232422 z m 20.22461,0 -1.5957,2.470704 0,0.265625 1.5918,0 0,0.716797 -0.58594,0 0,0.257812 1.66016,0 0,-0.257812 -0.58594,0 0,-0.716797 0.69531,0 0,-0.259766 -0.69531,0 0,-2.476563 -0.48438,0 z m 18.83594,0.06641 0,1.830078 0.20899,0 c 0.0863,-0.109046 0.18619,-0.188148 0.29687,-0.240235 0.1123,-0.05209 0.24023,-0.07812 0.38672,-0.07812 0.25879,0 0.45703,0.08463 0.59375,0.253906 0.13835,0.167642 0.20703,0.408854 0.20703,0.724609 0,0.317383 -0.0687,0.561198 -0.20703,0.730469 -0.13835,0.169271 -0.33659,0.253906 -0.59375,0.253906 -0.23926,0 -0.42513,-0.06152 -0.55859,-0.183594 -0.13182,-0.12207 -0.20409,-0.298177 -0.21875,-0.529296 l -0.27735,0 0,0.707031 c 0.18392,0.08301 0.36524,0.14486 0.54102,0.185547 0.17578,0.04069 0.34602,0.06055 0.51367,0.06055 0.41667,0 0.74121,-0.107421 0.9707,-0.322265 0.23112,-0.216471 0.34571,-0.516602 0.34571,-0.902344 0,-0.377604 -0.11393,-0.676432 -0.3418,-0.894531 -0.22787,-0.218099 -0.53776,-0.326172 -0.93164,-0.326172 -0.13998,0 -0.26693,0.01367 -0.38086,0.04297 -0.1123,0.0293 -0.21224,0.07422 -0.29688,0.132812 l 0,-1.044922 1.66993,0 0,-0.40039 -1.92774,0 z M 54.898438,1.03125 c 0.249023,0 0.434895,0.136719 0.558593,0.410156 0.123698,0.273438 0.185547,0.686849 0.185547,1.240235 0,0.551757 -0.06185,0.964843 -0.185547,1.238281 -0.123698,0.273437 -0.30957,0.410156 -0.558593,0.410156 -0.249024,0 -0.436849,-0.136719 -0.560547,-0.410156 -0.123698,-0.273438 -0.185547,-0.686524 -0.185547,-1.238281 0,-0.553386 0.06185,-0.966797 0.185547,-1.240235 0.123698,-0.273437 0.311523,-0.410156 0.560547,-0.410156 z m 80.156252,0.294922 0,1.939453 -1.2461,0 1.2461,-1.939453 z M 44.5,7 l 0,2 0,0.5 0,10.5 10,0 1,0 10,0 10,0 10,0 10,0 10,0 10,0 10,0 10,0 10,0 10,0 0,-11 -10,0 0,-2 -1,0 0,2 -9,0 -10,0 0,-2 -1,0 0,2 -9,0 -10,0 0,-2 -1,0 0,2 -9,0 -10,0 0,-2 -1,0 0,2 -9,0 -10,0 0,-2 -1,0 0,2 -9,0 -1,0 -9,0 0,-2 -1,0 z m 1,3 9,0 0,9 -9,0 0,-9 z m 10,0 9,0 0,9 -9,0 0,-9 z m 10,0 9,0 0,9 -9,0 0,-9 z m 10,0 9,0 0,9 -9,0 0,-9 z m 10,0 9,0 0,9 -9,0 0,-9 z m 10,0 9,0 0,9 -9,0 0,-9 z m 10,0 9,0 0,9 -9,0 0,-9 z m 10,0 9,0 0,9 -9,0 0,-9 z m 10,0 9,0 0,9 -9,0 0,-9 z m 10,0 9,0 0,9 -9,0 0,-9 z m 10,0 9,0 0,9 -9,0 0,-9 z m -95.601562,2.609375 c -0.395509,0 -0.704754,0.166016 -0.927735,0.498047 -0.221355,0.332031 -0.332031,0.7972 -0.332031,1.394531 0,0.595703 0.110676,1.058594 0.332031,1.390625 0.222981,0.332031 0.532227,0.498047 0.927735,0.498047 0.397135,0 0.70638,-0.166016 0.927734,-0.498047 0.221355,-0.332031 0.332031,-0.794922 0.332031,-1.390625 0,-0.597331 -0.110676,-1.0625 -0.332031,-1.394531 -0.221354,-0.332031 -0.530599,-0.498047 -0.927734,-0.498047 z m 29.935546,0 c -0.152995,0 -0.316406,0.01921 -0.492187,0.05664 -0.174153,0.03743 -0.356445,0.09049 -0.546875,0.162109 l 0,0.642578 0.273437,0 c 0.02116,-0.205078 0.0905,-0.358724 0.210938,-0.462891 0.122071,-0.104166 0.293945,-0.15625 0.513672,-0.15625 0.219726,10e-7 0.388671,0.05599 0.505859,0.169922 0.117187,0.112305 0.175781,0.275065 0.175781,0.488282 0,0.23763 -0.07161,0.416341 -0.214843,0.535156 -0.141602,0.117187 -0.355795,0.175781 -0.640625,0.175781 l -0.121094,0 0,0.248047 0.230469,0 c 0.286458,0 0.504231,0.07454 0.652343,0.222656 0.148112,0.146485 0.222657,0.363933 0.222657,0.650391 0,0.250651 -0.07194,0.44694 -0.216797,0.591797 -0.143229,0.143229 -0.34082,0.214844 -0.589844,0.214844 -0.257161,-1e-6 -0.456055,-0.05924 -0.597656,-0.179688 -0.141604,-0.120443 -0.220055,-0.298828 -0.236328,-0.533203 l -0.273438,0 0,0.708984 c 0.179037,0.08301 0.358399,0.14486 0.539063,0.185547 0.182291,0.04069 0.368163,0.06055 0.558593,0.06055 0.429688,0 0.758464,-0.09082 0.986329,-0.271484 0.229492,-0.182292 0.345703,-0.443034 0.345703,-0.783203 0,-0.278321 -0.08398,-0.503582 -0.25,-0.677735 -0.164388,-0.175779 -0.395834,-0.285805 -0.695313,-0.328125 0.253906,-0.05208 0.449544,-0.150391 0.587891,-0.296875 0.138346,-0.148112 0.207031,-0.333008 0.207031,-0.552734 0,-0.273438 -0.09863,-0.485677 -0.298828,-0.638672 -0.200195,-0.154622 -0.479492,-0.232422 -0.835938,-0.232422 z m 30.310546,0 c -0.47689,0 -0.84733,0.175456 -1.10937,0.525391 -0.26204,0.349934 -0.39258,0.842447 -0.39258,1.480468 0,0.569662 0.11068,1.008789 0.33203,1.316407 0.22135,0.305989 0.53743,0.458984 0.94922,0.458984 0.37922,0 0.68196,-0.110677 0.9082,-0.332031 0.22787,-0.222982 0.3418,-0.519206 0.3418,-0.888672 0,-0.377604 -0.10481,-0.674479 -0.31641,-0.892578 -0.20996,-0.218099 -0.49642,-0.328125 -0.85937,-0.328125 -0.17578,0 -0.33463,0.02962 -0.47461,0.08984 -0.13998,0.06022 -0.26433,0.151368 -0.375,0.273438 0.005,-0.496419 0.0837,-0.864258 0.23828,-1.103516 0.15462,-0.239258 0.39128,-0.357422 0.70703,-0.357422 0.17904,10e-7 0.31999,0.04264 0.42578,0.128907 0.10579,0.08626 0.16992,0.210612 0.18945,0.375 l 0.2754,0 0,-0.59961 c -0.14812,-0.04883 -0.29395,-0.08496 -0.43555,-0.109375 -0.14161,-0.02441 -0.27572,-0.03711 -0.4043,-0.03711 z m 19.75391,0 c -0.35319,0 -0.63216,0.08464 -0.83399,0.253906 -0.20182,0.167644 -0.30273,0.398438 -0.30273,0.691407 0,0.221353 0.0651,0.403645 0.19531,0.546874 0.13183,0.1416 0.32063,0.233398 0.56641,0.277344 -0.27832,0.03744 -0.49381,0.140951 -0.64844,0.308594 -0.15462,0.166016 -0.23242,0.37793 -0.23242,0.636719 0,0.341797 0.10774,0.605469 0.32422,0.791015 0.2181,0.18392 0.52962,0.275391 0.93164,0.275391 0.40364,0 0.71321,-0.09147 0.92968,-0.275391 0.21648,-0.185546 0.32422,-0.449218 0.32422,-0.791015 0,-0.258789 -0.0778,-0.470703 -0.23242,-0.636719 -0.15462,-0.167645 -0.36979,-0.27116 -0.64648,-0.308594 0.24414,-0.04395 0.43229,-0.135742 0.5625,-0.277344 0.13184,-0.143229 0.19726,-0.32552 0.19726,-0.546874 0,-0.292969 -0.1009,-0.523763 -0.30273,-0.691407 -0.20182,-0.16927 -0.47884,-0.253906 -0.83203,-0.253906 z m 9.97461,0 c -0.37924,0 -0.68229,0.111003 -0.91016,0.333984 -0.22623,0.221355 -0.33984,0.517253 -0.33984,0.886719 0,0.377604 0.10416,0.674479 0.3125,0.892578 0.20996,0.218099 0.49609,0.328125 0.85742,0.328125 0.17741,0 0.33691,-0.02962 0.47851,-0.08984 0.1416,-0.06022 0.26596,-0.151367 0.375,-0.273438 -0.005,0.498047 -0.0837,0.866211 -0.23828,1.105469 -0.15462,0.23763 -0.38932,0.355469 -0.70508,0.355469 -0.1774,0 -0.31998,-0.04297 -0.42578,-0.13086 -0.10582,-0.08789 -0.16832,-0.214518 -0.18945,-0.378906 l -0.27344,0 0,0.605469 c 0.14812,0.04883 0.292,0.08496 0.4336,0.109375 0.1416,0.02441 0.27767,0.03711 0.40625,0.03711 0.47526,0 0.84342,-0.175456 1.10547,-0.525391 0.26204,-0.349935 0.39257,-0.842448 0.39257,-1.480468 0,-0.569662 -0.11067,-1.008464 -0.33203,-1.314454 -0.21972,-0.307616 -0.53548,-0.460937 -0.94726,-0.460937 z m 8.44336,0 -0.88868,0.576172 0,0.320312 0.73438,-0.476562 0,3.03125 -0.63477,0 0,0.259765 1.75977,0 0,-0.259765 -0.63477,0 0,-3.451172 -0.33593,0 z m 3.07226,0 c -0.3955,0 -0.70475,0.166016 -0.92773,0.498047 -0.22136,0.332031 -0.33203,0.7972 -0.33203,1.394531 0,0.595703 0.11067,1.058594 0.33203,1.390625 0.22298,0.332031 0.53223,0.498047 0.92773,0.498047 0.39714,0 0.70638,-0.166016 0.92774,-0.498047 0.22135,-0.332031 0.33203,-0.794922 0.33203,-1.390625 0,-0.597331 -0.11068,-1.0625 -0.33203,-1.394531 -0.22136,-0.332031 -0.5306,-0.498047 -0.92774,-0.498047 z m -91.582029,0.002 -0.888672,0.576172 0,0.320312 0.736328,-0.476562 0,3.033203 -0.634766,0 0,0.257813 1.759766,0 0,-0.257813 -0.634766,0 0,-3.453125 -0.33789,0 z m 30.251953,0 -1.595703,2.470703 0,0.265625 1.591797,0 0,0.716797 -0.585938,0 0,0.257813 1.660156,0 0,-0.257813 -0.585937,0 0,-0.716797 0.695312,0 0,-0.259765 -0.695312,0 0,-2.476563 -0.484375,0 z m 8.835937,0.03125 0,1.830078 0.208985,0 c 0.08627,-0.109046 0.186201,-0.190101 0.296875,-0.242187 0.112306,-0.05209 0.240232,-0.07813 0.386718,-0.07813 0.258781,0 0.457031,0.08463 0.593751,0.253906 0.13835,0.167643 0.20703,0.410807 0.20703,0.726562 0,0.317383 -0.0687,0.559245 -0.20703,0.728516 -0.13835,0.169271 -0.33659,0.253906 -0.593751,0.253906 -0.23926,0 -0.425127,-0.05957 -0.558593,-0.18164 -0.131814,-0.12207 -0.204084,-0.30013 -0.21875,-0.53125 l -0.277344,0 0,0.708984 c 0.18392,0.08301 0.365236,0.144854 0.541016,0.185547 0.17578,0.04069 0.346025,0.06055 0.513671,0.06055 0.416661,0 0.741211,-0.107422 0.970701,-0.322266 0.23112,-0.216471 0.34571,-0.516601 0.34571,-0.902344 0,-0.377603 -0.11394,-0.676431 -0.3418,-0.894531 -0.22787,-0.218098 -0.53776,-0.326172 -0.931642,-0.326172 -0.139973,0 -0.266926,0.01367 -0.380859,0.04297 -0.112307,0.0293 -0.212242,0.07422 -0.296875,0.132813 l 0,-1.044922 1.669926,0 0,-0.400391 -1.927739,0 z m -29.175781,0.002 c -0.169271,0 -0.342123,0.02344 -0.519531,0.07227 -0.175782,0.04883 -0.351238,0.120116 -0.525391,0.212891 l 0,0.65039 0.273438,0 c 0.02279,-0.23112 0.09766,-0.405924 0.224609,-0.521484 0.126953,-0.11556 0.308268,-0.171875 0.541016,-0.171875 0.224609,0 0.40039,0.06868 0.527343,0.207031 0.128581,0.138346 0.191407,0.330403 0.191407,0.576172 0,0.224609 -0.05208,0.439453 -0.15625,0.644531 -0.104167,0.203451 -0.277344,0.427734 -0.521485,0.671875 l -1.105468,1.103516 0,0.265625 2.349609,0 0,-0.84961 -0.285156,0 0,0.449219 -1.521485,0 0.921875,-0.919922 c 0.01953,-0.01953 0.04883,-0.0485 0.08789,-0.08594 0.498047,-0.49642 0.746094,-0.922852 0.746094,-1.279297 0,-0.315755 -0.110352,-0.566081 -0.330078,-0.75 -0.219727,-0.183919 -0.519206,-0.275391 -0.898438,-0.275391 z m 49.00977,0.0332 0,0.84961 0.28515,0 0,-0.449219 1.68555,0 -1.36133,3.244141 0.36523,0 1.42579,-3.396485 0,-0.248047 -2.40039,0 z m -68.830082,0.173828 c 0.249023,0 0.434895,0.136719 0.558593,0.410157 0.123698,0.273437 0.185547,0.686848 0.185547,1.240234 0,0.551757 -0.06185,0.96289 -0.185547,1.236328 -0.123698,0.273438 -0.30957,0.410157 -0.558593,0.410157 -0.249024,0 -0.436849,-0.136719 -0.560547,-0.410157 -0.123698,-0.273438 -0.185547,-0.684571 -0.185547,-1.236328 0,-0.553386 0.06185,-0.966797 0.185547,-1.240234 0.123698,-0.273438 0.311523,-0.410157 0.560547,-0.410157 z m 80.000002,0 c 0.20182,10e-7 0.3584,0.06185 0.4707,0.185547 0.11231,0.123698 0.16797,0.296224 0.16797,0.517579 0,0.222982 -0.0557,0.395833 -0.16797,0.519531 -0.1123,0.123698 -0.26888,0.185547 -0.4707,0.185547 -0.2002,0 -0.35873,-0.06185 -0.47266,-0.185547 -0.11231,-0.123698 -0.16797,-0.296549 -0.16797,-0.519531 0,-0.221355 0.0557,-0.393881 0.16797,-0.517579 0.11393,-0.123698 0.27246,-0.185547 0.47266,-0.185547 z m 9.95508,0 c 0.22949,10e-7 0.4056,0.08561 0.52929,0.259766 0.1237,0.174154 0.18555,0.424154 0.18555,0.748047 0,0.307617 -0.0619,0.542643 -0.18555,0.707031 -0.12206,0.16276 -0.29817,0.244141 -0.52929,0.244141 -0.23112,0 -0.40755,-0.08464 -0.53125,-0.253906 -0.12207,-0.169271 -0.1836,-0.410808 -0.1836,-0.726563 0,-0.315755 0.0615,-0.556966 0.1836,-0.724609 0.1237,-0.169271 0.30013,-0.253907 0.53125,-0.253907 z m 11.53515,0 c 0.24902,0 0.43685,0.136719 0.56055,0.410157 0.1237,0.273437 0.18555,0.686848 0.18555,1.240234 0,0.551757 -0.0618,0.96289 -0.18555,1.236328 -0.1237,0.273438 -0.31153,0.410157 -0.56055,0.410157 -0.24902,0 -0.4349,-0.136719 -0.55859,-0.410157 -0.1237,-0.273438 -0.18555,-0.684571 -0.18555,-1.236328 0,-0.553386 0.0618,-0.966797 0.18555,-1.240234 0.12369,-0.273438 0.30957,-0.410157 0.55859,-0.410157 z m -61.333982,0.296876 0,1.939453 -1.246094,0 1.246094,-1.939453 z m 19.888672,1.042968 c 0.22949,0 0.40756,0.08464 0.53125,0.253906 0.1237,0.167644 0.18555,0.408855 0.18555,0.72461 0,0.315755 -0.0619,0.559245 -0.18555,0.728516 -0.12369,0.167643 -0.30176,0.25 -0.53125,0.25 -0.22949,-1e-6 -0.4056,-0.08561 -0.5293,-0.259766 -0.1237,-0.174153 -0.18554,-0.424154 -0.18554,-0.748047 0,-0.307617 0.0615,-0.542318 0.18359,-0.705078 0.12207,-0.162761 0.2985,-0.244141 0.53125,-0.244141 z m 19.95508,0.310547 c 0.23437,0 0.41438,0.07194 0.54297,0.216797 0.1302,0.143229 0.19531,0.345052 0.19531,0.605469 0,0.262044 -0.0651,0.464518 -0.19531,0.609375 -0.12859,0.143229 -0.3086,0.214844 -0.54297,0.214844 -0.23438,0 -0.41667,-0.07162 -0.54688,-0.214844 -0.12858,-0.144857 -0.19336,-0.347331 -0.19336,-0.609375 0,-0.260417 0.0648,-0.46224 0.19336,-0.605469 0.13021,-0.144857 0.3125,-0.216797 0.54688,-0.216797 z"
     id="rect24986" />
  <g
     transform="translate(-4.999777,-10.5)"
     id="text25260"
     style="font-style:normal;font-variant:normal;font-weight:normal;font-stretch:normal;font-size:5px;line-height:125%;font-family:serif;-inkscape-font-specification:serif;text-align:center;letter-spacing:-0.2px;word-spacing:0px;text-anchor:middle;fill:#000000;fill-opacity:1;stroke:none;stroke-width:1px;stroke-linecap:butt;stroke-linejoin:miter;stroke-opacity:1">
    <path
       id="path28715"
       style="letter-spacing:0px"
       d="m 17.55625,27.241194 0.72998,0 q 0.439453,0 0.64209,-0.19043 0.202637,-0.19043 0.202637,-0.605469 0,-0.412597 -0.202637,-0.600586 -0.200195,-0.190429 -0.64209,-0.190429 l -0.72998,0 0,1.586914 z m 0,-1.845703 0.620117,0 q 0.40039,0 0.583496,-0.153809 0.185547,-0.153809 0.185547,-0.48584 0,-0.334472 -0.185547,-0.48584 -0.183106,-0.153808 -0.583496,-0.153808 l -0.620117,0 0,1.279297 z m -0.959473,2.104492 0,-0.258789 0.463867,0 0,-3.125 -0.463867,0 0,-0.261231 1.799316,0 q 0.551758,0 0.830078,0.227051 0.280762,0.224609 0.280762,0.673828 0,0.324707 -0.195312,0.517578 -0.192871,0.192871 -0.566407,0.236817 0.463868,0.05859 0.703125,0.297851 0.2417,0.236817 0.2417,0.637207 0,0.541993 -0.341797,0.79834 -0.341797,0.256348 -1.066895,0.256348 l -1.68457,0 z" />
    <path
       id="path28717"
       style="letter-spacing:0px"
       d="m 21.071875,27.976057 0.170898,-0.432129 -0.969238,-2.37793 -0.29541,0 0,-0.26123 1.193847,0 0,0.26123 -0.415039,0 0.729981,1.784668 0.72998,-1.784668 -0.388183,0 0,-0.26123 0.974121,0 0,0.26123 -0.290528,0 -1.188965,2.919922 q -0.12207,0.302735 -0.270996,0.412598 -0.148925,0.112305 -0.419922,0.112305 -0.114746,0 -0.236816,-0.01953 -0.119629,-0.01953 -0.241699,-0.05615 l 0,-0.495605 0.229492,0 q 0.01465,0.166015 0.08301,0.236816 0.0708,0.07324 0.217285,0.07324 0.134277,0 0.214844,-0.07568 0.08301,-0.07324 0.17334,-0.297852 z" />
    <path
       id="path28719"
       style="letter-spacing:0px"
       d="m 23.354589,25.165998 -0.395507,0 0,-0.26123 0.395507,0 0,-0.805664 0.451661,0 0,0.805664 0.844726,0 0,0.26123 -0.844726,0 0,1.64795 q 0,0.32959 0.06348,0.422363 0.06348,0.09277 0.234375,0.09277 0.175781,0 0.256348,-0.102539 0.08057,-0.10498 0.08545,-0.336914 l 0.339356,0 q -0.01953,0.354004 -0.192872,0.517578 -0.173339,0.163575 -0.527343,0.163575 -0.388184,0 -0.549317,-0.170899 -0.161133,-0.17334 -0.161133,-0.585937 l 0,-1.64795 z" />
    <path
       id="path28721"
       style="letter-spacing:0px"
       d="m 27.536718,26.249983 -1.936035,0 0,0.01953 q 0,0.524902 0.197754,0.793457 0.197754,0.266113 0.583496,0.266113 0.29541,0 0.483399,-0.153808 0.190429,-0.15625 0.266113,-0.461426 l 0.361328,0 q -0.107422,0.427246 -0.397949,0.64209 -0.288086,0.214844 -0.759278,0.214844 -0.568847,0 -0.915527,-0.373536 -0.344238,-0.375976 -0.344238,-0.996093 0,-0.615235 0.339355,-0.991211 0.339356,-0.375977 0.891114,-0.375977 0.588379,0 0.90332,0.36377 0.314941,0.361328 0.327148,1.052246 z m -0.529785,-0.258789 q -0.01465,-0.454102 -0.192871,-0.683594 -0.175781,-0.231934 -0.507812,-0.231934 -0.310059,0 -0.488282,0.231934 -0.178222,0.231934 -0.217285,0.683594 l 1.40625,0 z" />
    <path
       id="path28723"
       style="letter-spacing:0px"
       d="m 30.881445,27.329084 q 0.361328,0 0.544434,-0.285644 0.185546,-0.285645 0.185546,-0.842285 0,-0.556641 -0.185546,-0.839844 -0.183106,-0.285645 -0.544434,-0.285645 -0.361328,0 -0.546875,0.285645 -0.183106,0.283203 -0.183106,0.839844 0,0.55664 0.185547,0.842285 0.185547,0.285644 0.544434,0.285644 z m 0,0.2417 q -0.566406,0 -0.910645,-0.373536 -0.344238,-0.375976 -0.344238,-0.996093 0,-0.620117 0.341797,-0.993653 0.344238,-0.373535 0.913086,-0.373535 0.568848,0 0.910644,0.373535 0.344239,0.373536 0.344239,0.993653 0,0.620117 -0.344239,0.996093 -0.341796,0.373536 -0.910644,0.373536 z" />
    <path
       id="path28725"
       style="letter-spacing:0px"
       d="m 34.699804,25.16844 -1.254883,-0.0024 0,2.075196 0.576172,0 0,0.258789 -1.455078,0 0,-0.258789 0.429688,0 0,-2.075196 -0.429688,0 0,-0.26123 0.429688,0 0,-0.324707 q 0,-0.43457 0.224609,-0.656738 0.224609,-0.222168 0.664063,-0.222168 0.161132,0 0.324707,0.0293 0.163574,0.0293 0.324707,0.09033 l 0,0.493164 -0.234375,0 q -0.0049,-0.183106 -0.104981,-0.278321 -0.100097,-0.09521 -0.29541,-0.09521 -0.249023,0 -0.351562,0.13916 -0.10254,0.136718 -0.10254,0.490722 l 0,0.334473 1.254883,0 0,-0.322266 q 0,-0.43457 0.22461,-0.656738 0.224609,-0.222168 0.664062,-0.222168 0.161133,0 0.324707,0.0293 0.163574,0.0293 0.324707,0.09033 l 0,0.493164 -0.234375,0 q -0.0049,-0.183105 -0.10498,-0.27832 -0.100098,-0.09521 -0.29541,-0.09521 -0.249024,0 -0.351563,0.13916 -0.102539,0.136719 -0.102539,0.490723 l 0,0.334472 0.722656,0 0,0.261231 -0.722656,0 0,2.075195 0.576172,0 0,0.258789 -1.455078,0 0,-0.258789 0.429687,0 0,-2.075195 z" />
    <path
       id="path28727"
       style="letter-spacing:0px"
       d="m 36.2208,27.35594 0,-0.605469 0.258789,0 q 0.0098,0.290527 0.180665,0.43457 0.173339,0.144043 0.510253,0.144043 0.302735,0 0.461426,-0.112304 0.158692,-0.114746 0.158692,-0.332032 0,-0.170898 -0.117188,-0.275878 -0.114746,-0.104981 -0.488281,-0.22461 l -0.324707,-0.109863 q -0.334473,-0.107422 -0.48584,-0.268555 -0.148926,-0.161133 -0.148926,-0.410156 0,-0.356445 0.261231,-0.559082 0.26123,-0.202637 0.722656,-0.202637 0.205078,0 0.432129,0.05371 0.227051,0.05371 0.46875,0.15625 l 0,0.566406 -0.258789,0 q -0.0098,-0.251464 -0.175781,-0.393066 -0.166016,-0.141602 -0.451661,-0.141602 -0.283203,0 -0.429687,0.100098 -0.144043,0.100098 -0.144043,0.300293 0,0.163574 0.109863,0.263672 0.109863,0.09766 0.439453,0.200195 l 0.356446,0.109864 q 0.368652,0.114746 0.529785,0.288085 0.163574,0.170899 0.163574,0.441895 0,0.368652 -0.283203,0.581055 -0.280762,0.209961 -0.776367,0.209961 -0.251465,0 -0.490723,-0.05371 -0.239258,-0.05371 -0.478516,-0.161133 z" />
    <path
       id="path28729"
       style="letter-spacing:0px"
       d="m 41.218359,26.249983 -1.936035,0 0,0.01953 q 0,0.524902 0.197754,0.793457 0.197754,0.266113 0.583496,0.266113 0.29541,0 0.483398,-0.153808 0.19043,-0.15625 0.266114,-0.461426 l 0.361328,0 q -0.107422,0.427246 -0.39795,0.64209 -0.288085,0.214844 -0.759277,0.214844 -0.568848,0 -0.915527,-0.373536 -0.344239,-0.375976 -0.344239,-0.996093 0,-0.615235 0.339356,-0.991211 0.339355,-0.375977 0.891113,-0.375977 0.588379,0 0.903321,0.36377 0.314941,0.361328 0.327148,1.052246 z m -0.529785,-0.258789 q -0.01465,-0.454102 -0.192871,-0.683594 -0.175782,-0.231934 -0.507813,-0.231934 -0.310058,0 -0.488281,0.231934 -0.178223,0.231934 -0.217285,0.683594 l 1.40625,0 z" />
    <path
       id="path28731"
       style="letter-spacing:0px"
       d="m 42.006933,25.165998 -0.395508,0 0,-0.26123 0.395508,0 0,-0.805664 0.45166,0 0,0.805664 0.844727,0 0,0.26123 -0.844727,0 0,1.64795 q 0,0.32959 0.06348,0.422363 0.06348,0.09277 0.234375,0.09277 0.175781,0 0.256348,-0.102539 0.08057,-0.10498 0.08545,-0.336914 l 0.339355,0 q -0.01953,0.354004 -0.192871,0.517578 -0.17334,0.163575 -0.527344,0.163575 -0.388183,0 -0.549316,-0.170899 -0.161133,-0.17334 -0.161133,-0.585937 l 0,-1.64795 z" />
  </g>
  <g
     transform="translate(-4.999777,-10.5)"
     id="text25264"
     style="font-style:normal;font-variant:normal;font-weight:normal;font-stretch:normal;font-size:5px;line-height:125%;font-family:serif;-inkscape-font-specification:serif;text-align:center;letter-spacing:-0.2px;word-spacing:0px;text-anchor:middle;fill:#000000;fill-opacity:1;stroke:none;stroke-width:1px;stroke-linecap:butt;stroke-linejoin:miter;stroke-opacity:1">
    <path
       id="path28700"
       style="letter-spacing:0px"
       d="m 19.599707,14.999983 0,-0.258789 0.463867,0 0,-3.125 -0.463867,0 0,-0.261231 2.93457,0 0,0.810547 -0.300293,0 0,-0.510254 -1.674805,0 0,1.220703 1.193848,0 0,-0.456543 0.300293,0 0,1.210938 -0.300293,0 0,-0.456543 -1.193848,0 0,1.525879 1.713867,0 0,-0.510254 0.300293,0 0,0.810547 -2.973632,0 z" />
    <path
       id="path28702"
       style="letter-spacing:0px"
       d="m 24.001562,14.741194 0.424805,0 0,0.258789 -1.306153,0 0,-0.258789 0.432129,0 0,-3.28125 -0.432129,0 0,-0.258789 0.881348,0 0,3.540039 z" />
    <path
       id="path28704"
       style="letter-spacing:0px"
       d="m 27.287695,13.749983 -1.936035,0 0,0.01953 q 0,0.524902 0.197754,0.793457 0.197754,0.266113 0.583496,0.266113 0.29541,0 0.483398,-0.153808 0.19043,-0.15625 0.266113,-0.461426 l 0.361329,0 q -0.107422,0.427246 -0.39795,0.64209 -0.288086,0.214844 -0.759277,0.214844 -0.568848,0 -0.915527,-0.373536 -0.344239,-0.375976 -0.344239,-0.996093 0,-0.615235 0.339356,-0.991211 0.339355,-0.375977 0.891113,-0.375977 0.588379,0 0.90332,0.36377 0.314942,0.361328 0.327149,1.052246 z M 26.75791,13.491194 q -0.01465,-0.454102 -0.192871,-0.683594 -0.175782,-0.231934 -0.507813,-0.231934 -0.310058,0 -0.488281,0.231934 -0.178223,0.231934 -0.217285,0.683594 l 1.40625,0 z" />
    <path
       id="path28706"
       style="letter-spacing:0px"
       d="m 30.12705,12.910139 q 0.129395,-0.285644 0.32959,-0.429687 0.202637,-0.146485 0.471192,-0.146485 0.407714,0 0.60791,0.253906 0.200195,0.251465 0.200195,0.761719 l 0,1.391602 0.405274,0 0,0.258789 -1.245118,0 0,-0.258789 0.390625,0 0,-1.340332 q 0,-0.397949 -0.117187,-0.566407 -0.117188,-0.168457 -0.388184,-0.168457 -0.300293,0 -0.458984,0.227051 -0.15625,0.227051 -0.15625,0.661621 l 0,1.186524 0.390625,0 0,0.258789 -1.230469,0 0,-0.258789 0.390625,0 0,-1.357422 q 0,-0.388184 -0.117187,-0.551758 -0.117188,-0.166016 -0.388184,-0.166016 -0.300293,0 -0.458984,0.227051 -0.15625,0.227051 -0.15625,0.661621 l 0,1.186524 0.390625,0 0,0.258789 -1.245118,0 0,-0.258789 0.405274,0 0,-2.080078 -0.429688,0 0,-0.256348 0.878907,0 0,0.461426 q 0.124511,-0.258789 0.317382,-0.395508 0.192872,-0.136719 0.437012,-0.136719 0.302735,0 0.505371,0.151367 0.202637,0.148926 0.270996,0.424805 z" />
    <path
       id="path28708"
       style="letter-spacing:0px"
       d="m 34.992773,13.749983 -1.936035,0 0,0.01953 q 0,0.524902 0.197754,0.793457 0.197754,0.266113 0.583496,0.266113 0.29541,0 0.483398,-0.153808 0.19043,-0.15625 0.266114,-0.461426 l 0.361328,0 q -0.107422,0.427246 -0.397949,0.64209 -0.288086,0.214844 -0.759278,0.214844 -0.568847,0 -0.915527,-0.373536 -0.344238,-0.375976 -0.344238,-0.996093 0,-0.615235 0.339355,-0.991211 0.339355,-0.375977 0.891113,-0.375977 0.588379,0 0.903321,0.36377 0.314941,0.361328 0.327148,1.052246 z m -0.529785,-0.258789 q -0.01465,-0.454102 -0.192871,-0.683594 -0.175781,-0.231934 -0.507813,-0.231934 -0.310058,0 -0.488281,0.231934 -0.178223,0.231934 -0.217285,0.683594 l 1.40625,0 z" />
    <path
       id="path28710"
       style="letter-spacing:0px"
       d="m 35.446875,14.999983 0,-0.258789 0.405273,0 0,-2.075196 -0.429687,0 0,-0.26123 0.878906,0 0,0.461426 q 0.124512,-0.263672 0.322265,-0.397949 0.200196,-0.134278 0.463868,-0.134278 0.429687,0 0.632324,0.246582 0.202637,0.246582 0.202637,0.769043 l 0,1.391602 0.40039,0 0,0.258789 -1.240234,0 0,-0.258789 0.388183,0 0,-1.25 q 0,-0.476074 -0.117187,-0.651856 -0.117188,-0.178222 -0.412598,-0.178222 -0.3125,0 -0.476074,0.229492 -0.163574,0.227051 -0.163574,0.664062 l 0,1.186524 0.390625,0 0,0.258789 -1.245117,0 z" />
    <path
       id="path28712"
       style="letter-spacing:0px"
       d="m 39.004004,12.665998 -0.395508,0 0,-0.26123 0.395508,0 0,-0.805664 0.45166,0 0,0.805664 0.844726,0 0,0.26123 -0.844726,0 0,1.64795 q 0,0.32959 0.06348,0.422363 0.06348,0.09277 0.234375,0.09277 0.175781,0 0.256348,-0.102539 0.08057,-0.10498 0.08545,-0.336914 l 0.339356,0 q -0.01953,0.354004 -0.192872,0.517578 -0.173339,0.163575 -0.527343,0.163575 -0.388184,0 -0.549317,-0.170899 -0.161132,-0.17334 -0.161132,-0.585937 l 0,-1.64795 z" />
  </g>
</svg>
