<?xml version="1.0" encoding="UTF-8" standalone="no"?>
<svg
   xmlns:dc="http://purl.org/dc/elements/1.1/"
   xmlns:cc="http://creativecommons.org/ns#"
   xmlns:rdf="http://www.w3.org/1999/02/22-rdf-syntax-ns#"
   xmlns:svg="http://www.w3.org/2000/svg"
   xmlns="http://www.w3.org/2000/svg"
   xmlns:xlink="http://www.w3.org/1999/xlink"
   version="1.1"
   id="svg2"
   viewBox="0 0 200.5 201"
   height="201"
   width="200.5">
  <defs
     id="defs4">
    <linearGradient
       id="linearGradient10079">
      <stop
         id="stop10081"
         offset="0"
         style="stop-color:#000000;stop-opacity:0.25098041" />
      <stop
         id="stop10083"
         offset="1"
         style="stop-color:#000000;stop-opacity:0;" />
    </linearGradient>
    <linearGradient
       id="linearGradient9874">
      <stop
         id="stop9876"
         offset="0"
         style="stop-color:#000000;stop-opacity:0.25098041" />
      <stop
         id="stop9878"
         offset="1"
         style="stop-color:#000000;stop-opacity:0;" />
    </linearGradient>
    <linearGradient
       id="linearGradient9761">
      <stop
         id="stop9763"
         offset="0"
         style="stop-color:#000000;stop-opacity:0.1254902" />
      <stop
         id="stop9765"
         offset="1"
         style="stop-color:#000000;stop-opacity:0;" />
    </linearGradient>
    <linearGradient
       id="linearGradient9753">
      <stop
         id="stop9755"
         offset="0"
         style="stop-color:#000000;stop-opacity:0.1254902" />
      <stop
         id="stop9757"
         offset="1"
         style="stop-color:#000000;stop-opacity:0;" />
    </linearGradient>
    <linearGradient
       id="linearGradient9745">
      <stop
         id="stop9747"
         offset="0"
         style="stop-color:#000000;stop-opacity:0.1254902" />
      <stop
         id="stop9749"
         offset="1"
         style="stop-color:#000000;stop-opacity:0;" />
    </linearGradient>
    <linearGradient
       id="linearGradient9696">
      <stop
         id="stop9698"
         offset="0"
         style="stop-color:#000000;stop-opacity:0.25098041" />
      <stop
         id="stop9700"
         offset="1"
         style="stop-color:#000000;stop-opacity:0;" />
    </linearGradient>
    <linearGradient
       id="linearGradient9634">
      <stop
         id="stop9636"
         offset="0"
         style="stop-color:#000000;stop-opacity:0.25098041" />
      <stop
         id="stop9638"
         offset="1"
         style="stop-color:#000000;stop-opacity:0" />
    </linearGradient>
    <linearGradient
       id="linearGradient9470">
      <stop
         id="stop9472"
         offset="0"
         style="stop-color:#000000;stop-opacity:0.1254902" />
      <stop
         id="stop9474"
         offset="1"
         style="stop-color:#000000;stop-opacity:0;" />
    </linearGradient>
    <linearGradient
       id="linearGradient9462">
      <stop
         id="stop9464"
         offset="0"
         style="stop-color:#000000;stop-opacity:0.1254902" />
      <stop
         id="stop9466"
         offset="1"
         style="stop-color:#000000;stop-opacity:0;" />
    </linearGradient>
    <linearGradient
       id="linearGradient9446">
      <stop
         id="stop9448"
         offset="0"
         style="stop-color:#000000;stop-opacity:0.1254902" />
      <stop
         id="stop9450"
         offset="1"
         style="stop-color:#000000;stop-opacity:0;" />
    </linearGradient>
    <linearGradient
       gradientTransform="translate(3.2244989e-6,0.75)"
       gradientUnits="userSpaceOnUse"
       y2="39.74984"
       x2="200.50015"
       y1="39.74984"
       x1="160"
       id="linearGradient9452"
       xlink:href="#linearGradient9446" />
    <linearGradient
       gradientTransform="translate(3.2244989e-6,0.75)"
       gradientUnits="userSpaceOnUse"
       y2="119.5"
       x2="90"
       y1="80"
       x1="90"
       id="linearGradient9468"
       xlink:href="#linearGradient9462" />
    <linearGradient
       gradientTransform="translate(3.2244989e-6,0.75)"
       gradientUnits="userSpaceOnUse"
       y2="99.5"
       x2="180.5"
       y1="80"
       x1="160.5"
       id="linearGradient9476"
       xlink:href="#linearGradient9470" />
    <linearGradient
       gradientTransform="translate(3.2244989e-6,0.75)"
       gradientUnits="userSpaceOnUse"
       y2="119.75"
       x2="80.250008"
       y1="79.75"
       x1="80.250008"
       id="linearGradient9640"
       xlink:href="#linearGradient9634" />
    <linearGradient
       gradientTransform="translate(3.2244989e-6,0.75)"
       gradientUnits="userSpaceOnUse"
       y2="39.74984"
       x2="200.50015"
       y1="39.74984"
       x1="160"
       id="linearGradient9702"
       xlink:href="#linearGradient9696" />
    <linearGradient
       gradientTransform="translate(3.2244989e-6,0.75)"
       gradientUnits="userSpaceOnUse"
       y2="119.75"
       x2="80.250008"
       y1="159.75"
       x1="80.250008"
       id="linearGradient9751"
       xlink:href="#linearGradient9745" />
    <linearGradient
       gradientTransform="translate(3.2244989e-6,0.75)"
       gradientUnits="userSpaceOnUse"
       y2="139.75"
       x2="180.25"
       y1="159.75"
       x1="160.25"
       id="linearGradient9759"
       xlink:href="#linearGradient9753" />
    <linearGradient
       gradientTransform="translate(3.2244989e-6,0.75)"
       gradientUnits="userSpaceOnUse"
       y2="179.74985"
       x2="200.50015"
       y1="179.74985"
       x1="160"
       id="linearGradient9767"
       xlink:href="#linearGradient9761" />
    <linearGradient
       gradientTransform="translate(3.2244989e-6,0.75)"
       gradientUnits="userSpaceOnUse"
       y2="119.75"
       x2="80.250008"
       y1="159.75"
       x1="80.250008"
       id="linearGradient9880"
       xlink:href="#linearGradient9874" />
    <linearGradient
       gradientTransform="translate(3.2244989e-6,0.75)"
       gradientUnits="userSpaceOnUse"
       y2="179.75"
       x2="200.5"
       y1="179.75"
       x1="160.26758"
       id="linearGradient10085"
       xlink:href="#linearGradient10079" />
  </defs>
  <metadata
     id="metadata7">
    <rdf:RDF>
      <cc:Work
         rdf:about="">
        <dc:format>image/svg+xml</dc:format>
        <dc:type
           rdf:resource="http://purl.org/dc/dcmitype/StillImage" />
        <dc:title></dc:title>
      </cc:Work>
    </rdf:RDF>
  </metadata>
  <rect
     style="color:#000000;clip-rule:nonzero;display:inline;overflow:visible;visibility:visible;opacity:1;isolation:auto;mix-blend-mode:normal;color-interpolation:sRGB;color-interpolation-filters:linearRGB;solid-color:#000000;solid-opacity:1;fill:#000000;fill-opacity:0.25098041;fill-rule:nonzero;stroke:none;stroke-width:1;stroke-linecap:square;stroke-linejoin:round;stroke-miterlimit:4;stroke-dasharray:1, 4;stroke-dashoffset:0;stroke-opacity:1;color-rendering:auto;image-rendering:auto;shape-rendering:auto;text-rendering:auto;enable-background:accumulate"
     id="rect10128"
     width="50.007416"
     height="20"
     x="100.25001"
     y="180.50005" />
  <rect
     style="color:#000000;clip-rule:nonzero;display:inline;overflow:visible;visibility:visible;opacity:1;isolation:auto;mix-blend-mode:normal;color-interpolation:sRGB;color-interpolation-filters:linearRGB;solid-color:#000000;solid-opacity:1;fill:#000000;fill-opacity:0.25098041;fill-rule:nonzero;stroke:none;stroke-width:1;stroke-linecap:square;stroke-linejoin:round;stroke-miterlimit:4;stroke-dasharray:1, 4;stroke-dashoffset:0;stroke-opacity:1;color-rendering:auto;image-rendering:auto;shape-rendering:auto;text-rendering:auto;enable-background:accumulate"
     id="rect10128-3"
     width="49.936947"
     height="30.012228"
     x="100.25001"
     y="0.50004262" />
  <text
     xml:space="preserve"
     style="font-style:normal;font-weight:normal;font-size:15px;line-height:125%;font-family:sans-serif;text-align:center;letter-spacing:0px;word-spacing:0px;text-anchor:middle;fill:#000000;fill-opacity:1;stroke:none;stroke-width:1px;stroke-linecap:butt;stroke-linejoin:miter;stroke-opacity:1"
     x="150"
     y="120.25011"
     id="text6295"><tspan
       id="tspan6297"
       x="150"
       y="120.25011" /></text>
  <path
     style="color:#000000;font-style:normal;font-variant:normal;font-weight:normal;font-stretch:normal;font-size:medium;line-height:normal;font-family:sans-serif;text-indent:0;text-align:start;text-decoration:none;text-decoration-line:none;text-decoration-style:solid;text-decoration-color:#000000;letter-spacing:normal;word-spacing:normal;text-transform:none;direction:ltr;block-progression:tb;writing-mode:lr-tb;baseline-shift:baseline;text-anchor:start;white-space:normal;clip-rule:nonzero;display:inline;overflow:visible;visibility:visible;opacity:1;isolation:auto;mix-blend-mode:normal;color-interpolation:sRGB;color-interpolation-filters:linearRGB;solid-color:#000000;solid-opacity:1;fill:#000000;fill-opacity:0.1254902;fill-rule:nonzero;stroke:none;stroke-width:0.5;stroke-linecap:square;stroke-linejoin:round;stroke-miterlimit:4;stroke-dasharray:none;stroke-dashoffset:0;stroke-opacity:1;color-rendering:auto;image-rendering:auto;shape-rendering:auto;text-rendering:auto;enable-background:accumulate"
     d="m 10.000003,0.75 0,9.5 -9.49999978,0 0,0.5 9.49999978,0 0,9.5 -9.49999978,0 0,0.5 9.49999978,0 0,9.5 -9.49999978,0 0,0.5 9.49999978,0 0,9.5 0.5,0 0,-9.5 9.5,0 0,9.5 0.5,0 0,-9.5 9.5,0 0,9.5 0.5,0 0,-9.5 9.5,0 0,-0.5 -9.5,0 0,-9.5 9.5,0 0,-0.5 -9.5,0 0,-9.5 9.5,0 0,-0.5 -9.5,0 0,-9.5 -0.5,0 0,9.5 -9.5,0 0,-9.5 -0.5,0 0,9.5 -9.5,0 0,-9.5 -0.5,0 z m 40,0 0,9.5 -9.5,0 0,0.5 9.5,0 0,9.5 -9.5,0 0,0.5 9.5,0 0,9.5 -9.5,0 0,0.5 9.5,0 0,9.5 0.5,0 0,-9.5 9.5,0 0,9.5 0.5,0 0,-9.5 9.5,0 0,9.5 0.5,0 0,-9.5 9.5,0 0,-0.5 -9.5,0 0,-9.5 9.5,0 0,-0.5 -9.5,0 0,-9.5 9.5,0 0,-0.5 -9.5,0 0,-9.5 -0.5,0 0,9.5 -9.5,0 0,-9.5 -0.5,0 0,9.5 -9.5,0 0,-9.5 -0.5,0 z m 40,0 0,9.5 -9.5,0 0,0.5 9.5,0 0,9.5 -9.5,0 0,0.5 9.5,0 0,9.5 -9.5,0 0,0.5 9.5,0 0,9.5 0.5,0 0,-9.5 9.499997,0 0,9.5 0.5,0 0,-9.5 9.5,0 0,9.5 0.5,0 0,-9.5 9.5,0 0,-0.5 -9.5,0 0,-9.5 9.5,0 0,-0.5 -9.5,0 0,-9.5 9.5,0 0,-0.5 -9.5,0 0,-9.5 -0.5,0 0,9.5 -9.5,0 0,-9.5 -0.5,0 0,9.5 -9.499997,0 0,-9.5 -0.5,0 z M 130,0.75 l 0,9.5 -9.5,0 0,0.5 9.5,0 0,9.5 -9.5,0 0,0.5 9.5,0 0,9.5 -9.5,0 0,0.5 9.5,0 0,9.5 0.5,0 0,-9.5 9.5,0 0,9.5 0.5,0 0,-9.5 9.5,0 0,9.5 0.5,0 0,-9.5 9.5,0 0,-0.5 -9.5,0 0,-9.5 9.5,0 0,-0.5 -9.5,0 0,-9.5 9.5,0 0,-0.5 -9.5,0 0,-9.5 -0.5,0 0,9.5 -9.5,0 0,-9.5 -0.5,0 0,9.5 -9.5,0 0,-9.5 -0.5,0 z m -119.499997,10 9.5,0 0,9.5 -9.5,0 0,-9.5 z m 10,0 9.5,0 0,9.5 -9.5,0 0,-9.5 z m 30,0 9.5,0 0,9.5 -9.5,0 0,-9.5 z m 10,0 9.5,0 0,9.5 -9.5,0 0,-9.5 z m 30,0 9.499997,0 0,9.5 -9.499997,0 0,-9.5 z m 9.999997,0 9.5,0 0,9.5 -9.5,0 0,-9.5 z m 30,0 9.5,0 0,9.5 -9.5,0 0,-9.5 z m 10,0 9.5,0 0,9.5 -9.5,0 0,-9.5 z m -129.999997,10 9.5,0 0,9.5 -9.5,0 0,-9.5 z m 10,0 9.5,0 0,9.5 -9.5,0 0,-9.5 z m 30,0 9.5,0 0,9.5 -9.5,0 0,-9.5 z m 10,0 9.5,0 0,9.5 -9.5,0 0,-9.5 z m 30,0 9.499997,0 0,9.5 -9.499997,0 0,-9.5 z m 9.999997,0 9.5,0 0,9.5 -9.5,0 0,-9.5 z m 30,0 9.5,0 0,9.5 -9.5,0 0,-9.5 z m 10,0 9.5,0 0,9.5 -9.5,0 0,-9.5 z m -130.499997,20 0,9.5 -9.49999978,0 0,0.5 9.49999978,0 0,9.5 -9.49999978,0 0,0.5 9.49999978,0 0,9.5 -9.49999978,0 0,0.5 9.49999978,0 0,9.5 0.5,0 0,-9.5 9.5,0 0,9.5 0.5,0 0,-9.5 9.5,0 0,9.5 0.5,0 0,-9.5 9.5,0 0,-0.5 -9.5,0 0,-9.5 9.5,0 0,-0.5 -9.5,0 0,-9.5 9.5,0 0,-0.5 -9.5,0 0,-9.5 -0.5,0 0,9.5 -9.5,0 0,-9.5 -0.5,0 0,9.5 -9.5,0 0,-9.5 -0.5,0 z m 40,0 0,9.5 -9.5,0 0,0.5 9.5,0 0,9.5 -9.5,0 0,0.5 9.5,0 0,9.5 -9.5,0 0,0.5 9.5,0 0,9.5 0.5,0 0,-9.5 9.5,0 0,9.5 0.5,0 0,-9.5 9.5,0 0,9.5 0.5,0 0,-9.5 9.5,0 0,-0.5 -9.5,0 0,-9.5 9.5,0 0,-0.5 -9.5,0 0,-9.5 9.5,0 0,-0.5 -9.5,0 0,-9.5 -0.5,0 0,9.5 -9.5,0 0,-9.5 -0.5,0 0,9.5 -9.5,0 0,-9.5 -0.5,0 z m 40,0 0,9.5 -9.5,0 0,0.5 9.5,0 0,9.5 -9.5,0 0,0.5 9.5,0 0,9.5 -9.5,0 0,0.5 9.5,0 0,9.5 0.5,0 0,-9.5 9.499997,0 0,9.5 0.5,0 0,-9.5 9.5,0 0,9.5 0.5,0 0,-9.5 9.5,0 0,-0.5 -9.5,0 0,-9.5 9.5,0 0,-0.5 -9.5,0 0,-9.5 9.5,0 0,-0.5 -9.5,0 0,-9.5 -0.5,0 0,9.5 -9.5,0 0,-9.5 -0.5,0 0,9.5 -9.499997,0 0,-9.5 -0.5,0 z m 39.999997,0 0,9.5 -9.5,0 0,0.5 9.5,0 0,9.5 -9.5,0 0,0.5 9.5,0 0,9.5 -9.5,0 0,0.5 9.5,0 0,9.5 0.5,0 0,-9.5 9.5,0 0,9.5 0.5,0 0,-9.5 9.5,0 0,9.5 0.5,0 0,-9.5 9.5,0 0,-0.5 -9.5,0 0,-9.5 9.5,0 0,-0.5 -9.5,0 0,-9.5 9.5,0 0,-0.5 -9.5,0 0,-9.5 -0.5,0 0,9.5 -9.5,0 0,-9.5 -0.5,0 0,9.5 -9.5,0 0,-9.5 -0.5,0 z m -119.499997,10 9.5,0 0,9.5 -9.5,0 0,-9.5 z m 10,0 9.5,0 0,9.5 -9.5,0 0,-9.5 z m 30,0 9.5,0 0,9.5 -9.5,0 0,-9.5 z m 10,0 9.5,0 0,9.5 -9.5,0 0,-9.5 z m 30,0 9.499997,0 0,9.5 -9.499997,0 0,-9.5 z m 9.999997,0 9.5,0 0,9.5 -9.5,0 0,-9.5 z m 30,0 9.5,0 0,9.5 -9.5,0 0,-9.5 z m 10,0 9.5,0 0,9.5 -9.5,0 0,-9.5 z m -129.999997,10 9.5,0 0,9.5 -9.5,0 0,-9.5 z m 10,0 9.5,0 0,9.5 -9.5,0 0,-9.5 z m 30,0 9.5,0 0,9.5 -9.5,0 0,-9.5 z m 10,0 9.5,0 0,9.5 -9.5,0 0,-9.5 z m 30,0 9.499997,0 0,9.5 -9.499997,0 0,-9.5 z m 9.999997,0 9.5,0 0,9.5 -9.5,0 0,-9.5 z m 30,0 9.5,0 0,9.5 -9.5,0 0,-9.5 z m 10,0 9.5,0 0,9.5 -9.5,0 0,-9.5 z"
     id="rect6857" />
  <path
     style="color:#000000;font-style:normal;font-variant:normal;font-weight:normal;font-stretch:normal;font-size:medium;line-height:normal;font-family:sans-serif;text-indent:0;text-align:start;text-decoration:none;text-decoration-line:none;text-decoration-style:solid;text-decoration-color:#000000;letter-spacing:normal;word-spacing:normal;text-transform:none;direction:ltr;block-progression:tb;writing-mode:lr-tb;baseline-shift:baseline;text-anchor:start;white-space:normal;clip-rule:nonzero;display:inline;overflow:visible;visibility:visible;opacity:1;isolation:auto;mix-blend-mode:normal;color-interpolation:sRGB;color-interpolation-filters:linearRGB;solid-color:#000000;solid-opacity:1;fill:url(#linearGradient9452);fill-opacity:1;fill-rule:nonzero;stroke:none;stroke-width:0.5;stroke-linecap:square;stroke-linejoin:round;stroke-miterlimit:4;stroke-dasharray:none;stroke-dashoffset:0;stroke-opacity:1;color-rendering:auto;image-rendering:auto;shape-rendering:auto;text-rendering:auto;enable-background:accumulate"
     d="M 160.22461,0.25 A 0.250025,0.250025 0 0 0 160,0.5 l 0,10 0,10 0,10 0,10 0,10 0,10 0,10 0,10 a 0.250025,0.250025 0 0 0 0.25,0.25 l 0.0176,0 A 0.250025,0.250025 0 0 0 160.5,80.5 l 0,-0.25 0,-9.5 9.5,0 0,9.5 0.5,0 0,-9.5 9.5,0 0,9.5 0.5,0 0,-9.5 9.5,0 0,9.5 0.5,0 0,-9.5 9.5,0 0,-0.5 -9.5,0 0,-9.5 9.5,0 0,-0.5 -9.5,0 0,-9.5 9.5,0 0,-0.5 -9.5,0 0,-9.5 -0.5,0 0,9.5 -9.5,0 0,-9.5 -0.5,0 0,9.5 -9.5,0 0,-9.5 -0.5,0 0,9.5 -9.5,0 0,-9.5 0,-0.232422 a 0.250025,0.250025 0 0 0 0,-0.01758 l 0,-0.25 0,-9.5 9.5,0 0,9.5 0.5,0 0,-9.5 9.5,0 0,9.5 0.5,0 0,-9.5 9.5,0 0,9.5 0.5,0 0,-9.5 9.5,0 0,-0.5 -9.5,0 0,-9.5 9.5,0 0,-0.5 -9.5,0 0,-9.5 9.5,0 0,-0.5 -9.5,0 0,-9.5 -0.5,0 0,9.5 -9.5,0 0,-9.5 -0.5,0 0,9.5 -9.5,0 0,-9.5 -0.5,0 0,9.5 -9.5,0 0,-9.5 0,-0.25 a 0.250025,0.250025 0 0 0 -0.23242,-0.25 l -0.0176,0 a 0.250025,0.250025 0 0 0 -0.0254,0 z m 0.27539,10.5 9.5,0 0,9.5 -9.5,0 0,-9.5 z m 10,0 9.5,0 0,9.5 -9.5,0 0,-9.5 z m 10,0 9.5,0 0,9.5 -9.5,0 0,-9.5 z m -20,10 9.5,0 0,9.5 -9.5,0 0,-9.5 z m 10,0 9.5,0 0,9.5 -9.5,0 0,-9.5 z m 10,0 9.5,0 0,9.5 -9.5,0 0,-9.5 z m -20,30 9.5,0 0,9.5 -9.5,0 0,-9.5 z m 10,0 9.5,0 0,9.5 -9.5,0 0,-9.5 z m 10,0 9.5,0 0,9.5 -9.5,0 0,-9.5 z m -20,10 9.5,0 0,9.5 -9.5,0 0,-9.5 z m 10,0 9.5,0 0,9.5 -9.5,0 0,-9.5 z m 10,0 9.5,0 0,9.5 -9.5,0 0,-9.5 z"
     id="rect6857-2" />
  <path
     style="color:#000000;font-style:normal;font-variant:normal;font-weight:normal;font-stretch:normal;font-size:medium;line-height:normal;font-family:sans-serif;text-indent:0;text-align:start;text-decoration:none;text-decoration-line:none;text-decoration-style:solid;text-decoration-color:#000000;letter-spacing:normal;word-spacing:normal;text-transform:none;direction:ltr;block-progression:tb;writing-mode:lr-tb;baseline-shift:baseline;text-anchor:start;white-space:normal;clip-rule:nonzero;display:inline;overflow:visible;visibility:visible;opacity:1;isolation:auto;mix-blend-mode:normal;color-interpolation:sRGB;color-interpolation-filters:linearRGB;solid-color:#000000;solid-opacity:1;fill:url(#linearGradient9468);fill-opacity:1;fill-rule:nonzero;stroke:none;stroke-width:0.5;stroke-linecap:square;stroke-linejoin:round;stroke-miterlimit:4;stroke-dasharray:none;stroke-dashoffset:0;stroke-opacity:1;color-rendering:auto;image-rendering:auto;shape-rendering:auto;text-rendering:auto;enable-background:accumulate"
     d="m 10.000003,80.75 0,9.5 -9.49999978,0 0,0.5 9.49999978,0 0,9.5 -9.49999978,0 0,0.5 9.49999978,0 0,9.5 -9.49999978,0 0,0.5 9.49999978,0 0,9.5 0.5,0 0,-9.5 9.5,0 0,9.5 0.5,0 0,-9.5 9.5,0 0,9.5 0.5,0 0,-9.5 9.5,0 0,-0.5 -9.5,0 0,-9.5 9.5,0 0,-0.5 -9.5,0 0,-9.5 9.5,0 0,-0.5 -9.5,0 0,-9.5 -0.5,0 0,9.5 -9.5,0 0,-9.5 -0.5,0 0,9.5 -9.5,0 0,-9.5 -0.5,0 z m 40,0 0,9.5 -9.5,0 0,0.5 9.5,0 0,9.5 -9.5,0 0,0.5 9.5,0 0,9.5 -9.5,0 0,0.5 9.5,0 0,9.5 0.5,0 0,-9.5 9.5,0 0,9.5 0.5,0 0,-9.5 9.5,0 0,9.5 0.5,0 0,-9.5 9.5,0 0,-0.5 -9.5,0 0,-9.5 9.5,0 0,-0.5 -9.5,0 0,-9.5 9.5,0 0,-0.5 -9.5,0 0,-9.5 -0.5,0 0,9.5 -9.5,0 0,-9.5 -0.5,0 0,9.5 -9.5,0 0,-9.5 -0.5,0 z m 40,0 0,9.5 -9.5,0 0,0.5 9.5,0 0,9.5 -9.5,0 0,0.5 9.5,0 0,9.5 -9.5,0 0,0.5 9.5,0 0,9.5 0.5,0 0,-9.5 9.499997,0 0,9.5 0.5,0 0,-9.5 9.5,0 0,9.5 0.5,0 0,-9.5 9.5,0 0,-0.5 -9.5,0 0,-9.5 9.5,0 0,-0.5 -9.5,0 0,-9.5 9.5,0 0,-0.5 -9.5,0 0,-9.5 -0.5,0 0,9.5 -9.5,0 0,-9.5 -0.5,0 0,9.5 -9.499997,0 0,-9.5 -0.5,0 z m 39.999997,0 0,9.5 -9.5,0 0,0.5 9.5,0 0,9.5 -9.5,0 0,0.5 9.5,0 0,9.5 -9.5,0 0,0.5 9.5,0 0,9.5 0.5,0 0,-9.5 9.5,0 0,9.5 0.5,0 0,-9.5 9.5,0 0,9.5 0.5,0 0,-9.5 9.5,0 0,-0.5 -9.5,0 0,-9.5 9.5,0 0,-0.5 -9.5,0 0,-9.5 9.5,0 0,-0.5 -9.5,0 0,-9.5 -0.5,0 0,9.5 -9.5,0 0,-9.5 -0.5,0 0,9.5 -9.5,0 0,-9.5 -0.5,0 z m -119.499997,10 9.5,0 0,9.5 -9.5,0 0,-9.5 z m 10,0 9.5,0 0,9.5 -9.5,0 0,-9.5 z m 30,0 9.5,0 0,9.5 -9.5,0 0,-9.5 z m 10,0 9.5,0 0,9.5 -9.5,0 0,-9.5 z m 30,0 9.499997,0 0,9.5 -9.499997,0 0,-9.5 z m 9.999997,0 9.5,0 0,9.5 -9.5,0 0,-9.5 z m 30,0 9.5,0 0,9.5 -9.5,0 0,-9.5 z m 10,0 9.5,0 0,9.5 -9.5,0 0,-9.5 z m -129.999997,10 9.5,0 0,9.5 -9.5,0 0,-9.5 z m 10,0 9.5,0 0,9.5 -9.5,0 0,-9.5 z m 30,0 9.5,0 0,9.5 -9.5,0 0,-9.5 z m 10,0 9.5,0 0,9.5 -9.5,0 0,-9.5 z m 30,0 9.499997,0 0,9.5 -9.499997,0 0,-9.5 z m 9.999997,0 9.5,0 0,9.5 -9.5,0 0,-9.5 z m 30,0 9.5,0 0,9.5 -9.5,0 0,-9.5 z m 10,0 9.5,0 0,9.5 -9.5,0 0,-9.5 z"
     id="rect6857-16" />
  <path
     style="color:#000000;font-style:normal;font-variant:normal;font-weight:normal;font-stretch:normal;font-size:medium;line-height:normal;font-family:sans-serif;text-indent:0;text-align:start;text-decoration:none;text-decoration-line:none;text-decoration-style:solid;text-decoration-color:#000000;letter-spacing:normal;word-spacing:normal;text-transform:none;direction:ltr;block-progression:tb;writing-mode:lr-tb;baseline-shift:baseline;text-anchor:start;white-space:normal;clip-rule:nonzero;display:inline;overflow:visible;visibility:visible;opacity:1;isolation:auto;mix-blend-mode:normal;color-interpolation:sRGB;color-interpolation-filters:linearRGB;solid-color:#000000;solid-opacity:1;fill:url(#linearGradient9476);fill-opacity:1;fill-rule:nonzero;stroke:none;stroke-width:0.5;stroke-linecap:square;stroke-linejoin:round;stroke-miterlimit:4;stroke-dasharray:none;stroke-dashoffset:0;stroke-opacity:1;color-rendering:auto;image-rendering:auto;shape-rendering:auto;text-rendering:auto;enable-background:accumulate"
     d="m 170,80.75 0,9.5 -9.5,0 0,0.5 9.5,0 0,9.5 -9.5,0 0,0.5 9.5,0 0,9.5 -9.5,0 0,0.5 9.5,0 0,9.5 0.5,0 0,-9.5 9.5,0 0,9.5 0.5,0 0,-9.5 9.5,0 0,9.5 0.5,0 0,-9.5 9.5,0 0,-0.5 -9.5,0 0,-9.5 9.5,0 0,-0.5 -9.5,0 0,-9.5 9.5,0 0,-0.5 -9.5,0 0,-9.5 -0.5,0 0,9.5 -9.5,0 0,-9.5 -0.5,0 0,9.5 -9.5,0 0,-9.5 -0.5,0 z m 0.5,10 9.5,0 0,9.5 -9.5,0 0,-9.5 z m 10,0 9.5,0 0,9.5 -9.5,0 0,-9.5 z m -10,10 9.5,0 0,9.5 -9.5,0 0,-9.5 z m 10,0 9.5,0 0,9.5 -9.5,0 0,-9.5 z m 19.86914,19.96875 a 0.250025,0.250025 0 0 1 -0.0449,0.0195 0.250025,0.250025 0 0 0 0.0449,-0.0195 z m -40.14453,0.0293 a 0.250025,0.250025 0 0 0 0.0254,0.002 0.250025,0.250025 0 0 1 -0.0176,-0.002 0.250025,0.250025 0 0 1 -0.008,0 z"
     id="rect6857-2-4" />
  <path
     style="color:#000000;font-style:normal;font-variant:normal;font-weight:normal;font-stretch:normal;font-size:medium;line-height:normal;font-family:sans-serif;text-indent:0;text-align:start;text-decoration:none;text-decoration-line:none;text-decoration-style:solid;text-decoration-color:#000000;letter-spacing:normal;word-spacing:normal;text-transform:none;direction:ltr;block-progression:tb;writing-mode:lr-tb;baseline-shift:baseline;text-anchor:start;white-space:normal;clip-rule:nonzero;display:inline;overflow:visible;visibility:visible;opacity:1;isolation:auto;mix-blend-mode:normal;color-interpolation:sRGB;color-interpolation-filters:linearRGB;solid-color:#000000;solid-opacity:1;fill:url(#linearGradient9751);fill-opacity:1;fill-rule:nonzero;stroke:none;stroke-width:0.5;stroke-linecap:square;stroke-linejoin:round;stroke-miterlimit:4;stroke-dasharray:none;stroke-dashoffset:0;stroke-opacity:1;color-rendering:auto;image-rendering:auto;shape-rendering:auto;text-rendering:auto;enable-background:accumulate"
     d="m 10.000003,120.75 0,9.5 -9.49999978,0 0,0.5 9.49999978,0 0,9.5 -9.49999978,0 0,0.5 9.49999978,0 0,9.5 -9.49999978,0 0,0.5 9.49999978,0 0,9.5 0.5,0 0,-9.5 9.5,0 0,9.5 0.5,0 0,-9.5 9.5,0 0,9.5 0.5,0 0,-9.5 9.5,0 0,-0.5 -9.5,0 0,-9.5 9.5,0 0,-0.5 -9.5,0 0,-9.5 9.5,0 0,-0.5 -9.5,0 0,-9.5 -0.5,0 0,9.5 -9.5,0 0,-9.5 -0.5,0 0,9.5 -9.5,0 0,-9.5 -0.5,0 z m 40,0 0,9.5 -9.5,0 0,0.5 9.5,0 0,9.5 -9.5,0 0,0.5 9.5,0 0,9.5 -9.5,0 0,0.5 9.5,0 0,9.5 0.5,0 0,-9.5 9.5,0 0,9.5 0.5,0 0,-9.5 9.5,0 0,9.5 0.5,0 0,-9.5 9.5,0 0,-0.5 -9.5,0 0,-9.5 9.5,0 0,-0.5 -9.5,0 0,-9.5 9.5,0 0,-0.5 -9.5,0 0,-9.5 -0.5,0 0,9.5 -9.5,0 0,-9.5 -0.5,0 0,9.5 -9.5,0 0,-9.5 -0.5,0 z m 40,0 0,9.5 -9.5,0 0,0.5 9.5,0 0,9.5 -9.5,0 0,0.5 9.5,0 0,9.5 -9.5,0 0,0.5 9.5,0 0,9.5 0.5,0 0,-9.5 9.499997,0 0,9.5 0.5,0 0,-9.5 9.5,0 0,9.5 0.5,0 0,-9.5 9.5,0 0,-0.5 -9.5,0 0,-9.5 9.5,0 0,-0.5 -9.5,0 0,-9.5 9.5,0 0,-0.5 -9.5,0 0,-9.5 -0.5,0 0,9.5 -9.5,0 0,-9.5 -0.5,0 0,9.5 -9.499997,0 0,-9.5 -0.5,0 z m 39.999997,0 0,9.5 -9.5,0 0,0.5 9.5,0 0,9.5 -9.5,0 0,0.5 9.5,0 0,9.5 -9.5,0 0,0.5 9.5,0 0,9.5 0.5,0 0,-9.5 9.5,0 0,9.5 0.5,0 0,-9.5 9.5,0 0,9.5 0.5,0 0,-9.5 9.5,0 0,-0.5 -9.5,0 0,-9.5 9.5,0 0,-0.5 -9.5,0 0,-9.5 9.5,0 0,-0.5 -9.5,0 0,-9.5 -0.5,0 0,9.5 -9.5,0 0,-9.5 -0.5,0 0,9.5 -9.5,0 0,-9.5 -0.5,0 z m -119.499997,10 9.5,0 0,9.5 -9.5,0 0,-9.5 z m 10,0 9.5,0 0,9.5 -9.5,0 0,-9.5 z m 30,0 9.5,0 0,9.5 -9.5,0 0,-9.5 z m 10,0 9.5,0 0,9.5 -9.5,0 0,-9.5 z m 30,0 9.499997,0 0,9.5 -9.499997,0 0,-9.5 z m 9.999997,0 9.5,0 0,9.5 -9.5,0 0,-9.5 z m 30,0 9.5,0 0,9.5 -9.5,0 0,-9.5 z m 10,0 9.5,0 0,9.5 -9.5,0 0,-9.5 z m -129.999997,10 9.5,0 0,9.5 -9.5,0 0,-9.5 z m 10,0 9.5,0 0,9.5 -9.5,0 0,-9.5 z m 30,0 9.5,0 0,9.5 -9.5,0 0,-9.5 z m 10,0 9.5,0 0,9.5 -9.5,0 0,-9.5 z m 30,0 9.499997,0 0,9.5 -9.499997,0 0,-9.5 z m 9.999997,0 9.5,0 0,9.5 -9.5,0 0,-9.5 z m 30,0 9.5,0 0,9.5 -9.5,0 0,-9.5 z m 10,0 9.5,0 0,9.5 -9.5,0 0,-9.5 z"
     id="rect6857-9" />
  <path
     style="color:#000000;font-style:normal;font-variant:normal;font-weight:normal;font-stretch:normal;font-size:medium;line-height:normal;font-family:sans-serif;text-indent:0;text-align:start;text-decoration:none;text-decoration-line:none;text-decoration-style:solid;text-decoration-color:#000000;letter-spacing:normal;word-spacing:normal;text-transform:none;direction:ltr;block-progression:tb;writing-mode:lr-tb;baseline-shift:baseline;text-anchor:start;white-space:normal;clip-rule:nonzero;display:inline;overflow:visible;visibility:visible;opacity:1;isolation:auto;mix-blend-mode:normal;color-interpolation:sRGB;color-interpolation-filters:linearRGB;solid-color:#000000;solid-opacity:1;fill:url(#linearGradient9759);fill-opacity:1;fill-rule:nonzero;stroke:none;stroke-width:0.5;stroke-linecap:square;stroke-linejoin:round;stroke-miterlimit:4;stroke-dasharray:none;stroke-dashoffset:0;stroke-opacity:1;color-rendering:auto;image-rendering:auto;shape-rendering:auto;text-rendering:auto;enable-background:accumulate"
     d="m 170,120.75 0,9.5 -9.5,0 0,0.5 9.5,0 0,9.5 -9.5,0 0,0.5 9.5,0 0,9.5 -9.5,0 0,0.5 9.5,0 0,9.5 0.5,0 0,-9.5 9.5,0 0,9.5 0.5,0 0,-9.5 9.5,0 0,9.5 0.5,0 0,-9.5 9.5,0 0,-0.5 -9.5,0 0,-9.5 9.5,0 0,-0.5 -9.5,0 0,-9.5 9.5,0 0,-0.5 -9.5,0 0,-9.5 -0.5,0 0,9.5 -9.5,0 0,-9.5 -0.5,0 0,9.5 -9.5,0 0,-9.5 -0.5,0 z m 0.5,10 9.5,0 0,9.5 -9.5,0 0,-9.5 z m 10,0 9.5,0 0,9.5 -9.5,0 0,-9.5 z m -10,10 9.5,0 0,9.5 -9.5,0 0,-9.5 z m 10,0 9.5,0 0,9.5 -9.5,0 0,-9.5 z m -20.27539,19.99805 a 0.250025,0.250025 0 0 0 0.0254,0.002 0.250025,0.250025 0 0 1 -0.0254,-0.002 z"
     id="rect6857-2-7" />
  <path
     style="color:#000000;font-style:normal;font-variant:normal;font-weight:normal;font-stretch:normal;font-size:medium;line-height:normal;font-family:sans-serif;text-indent:0;text-align:start;text-decoration:none;text-decoration-line:none;text-decoration-style:solid;text-decoration-color:#000000;letter-spacing:normal;word-spacing:normal;text-transform:none;direction:ltr;block-progression:tb;writing-mode:lr-tb;baseline-shift:baseline;text-anchor:start;white-space:normal;clip-rule:nonzero;display:inline;overflow:visible;visibility:visible;opacity:1;isolation:auto;mix-blend-mode:normal;color-interpolation:sRGB;color-interpolation-filters:linearRGB;solid-color:#000000;solid-opacity:1;fill:#000000;fill-opacity:0.1254902;fill-rule:nonzero;stroke:none;stroke-width:0.5;stroke-linecap:square;stroke-linejoin:round;stroke-miterlimit:4;stroke-dasharray:none;stroke-dashoffset:0;stroke-opacity:1;color-rendering:auto;image-rendering:auto;shape-rendering:auto;text-rendering:auto;enable-background:accumulate"
     d="m 10.000003,160.75 0,9.5 -9.49999978,0 0,0.5 9.49999978,0 0,9.5 -9.49999978,0 0,0.5 9.49999978,0 0,9.5 -9.49999978,0 0,0.5 9.49999978,0 0,9.5 0.5,0 0,-9.5 9.5,0 0,9.5 0.5,0 0,-9.5 9.5,0 0,9.5 0.5,0 0,-9.5 9.5,0 0,-0.5 -9.5,0 0,-9.5 9.5,0 0,-0.5 -9.5,0 0,-9.5 9.5,0 0,-0.5 -9.5,0 0,-9.5 -0.5,0 0,9.5 -9.5,0 0,-9.5 -0.5,0 0,9.5 -9.5,0 0,-9.5 -0.5,0 z m 40,0 0,9.5 -9.5,0 0,0.5 9.5,0 0,9.5 -9.5,0 0,0.5 9.5,0 0,9.5 -9.5,0 0,0.5 9.5,0 0,9.5 0.5,0 0,-9.5 9.5,0 0,9.5 0.5,0 0,-9.5 9.5,0 0,9.5 0.5,0 0,-9.5 9.5,0 0,-0.5 -9.5,0 0,-9.5 9.5,0 0,-0.5 -9.5,0 0,-9.5 9.5,0 0,-0.5 -9.5,0 0,-9.5 -0.5,0 0,9.5 -9.5,0 0,-9.5 -0.5,0 0,9.5 -9.5,0 0,-9.5 -0.5,0 z m 40,0 0,9.5 -9.5,0 0,0.5 9.5,0 0,9.5 -9.5,0 0,0.5 9.5,0 0,9.5 -9.5,0 0,0.5 9.5,0 0,9.5 0.5,0 0,-9.5 9.499997,0 0,9.5 0.5,0 0,-9.5 9.5,0 0,9.5 0.5,0 0,-9.5 9.5,0 0,-0.5 -9.5,0 0,-9.5 9.5,0 0,-0.5 -9.5,0 0,-9.5 9.5,0 0,-0.5 -9.5,0 0,-9.5 -0.5,0 0,9.5 -9.5,0 0,-9.5 -0.5,0 0,9.5 -9.499997,0 0,-9.5 -0.5,0 z m 39.999997,0 0,9.5 -9.5,0 0,0.5 9.5,0 0,9.5 -9.5,0 0,0.5 9.5,0 0,9.5 -9.5,0 0,0.5 9.5,0 0,9.5 0.5,0 0,-9.5 9.5,0 0,9.5 0.5,0 0,-9.5 9.5,0 0,9.5 0.5,0 0,-9.5 9.5,0 0,-0.5 -9.5,0 0,-9.5 9.5,0 0,-0.5 -9.5,0 0,-9.5 9.5,0 0,-0.5 -9.5,0 0,-9.5 -0.5,0 0,9.5 -9.5,0 0,-9.5 -0.5,0 0,9.5 -9.5,0 0,-9.5 -0.5,0 z m -119.499997,10 9.5,0 0,9.5 -9.5,0 0,-9.5 z m 10,0 9.5,0 0,9.5 -9.5,0 0,-9.5 z m 30,0 9.5,0 0,9.5 -9.5,0 0,-9.5 z m 10,0 9.5,0 0,9.5 -9.5,0 0,-9.5 z m 30,0 9.499997,0 0,9.5 -9.499997,0 0,-9.5 z m 9.999997,0 9.5,0 0,9.5 -9.5,0 0,-9.5 z m 30,0 9.5,0 0,9.5 -9.5,0 0,-9.5 z m 10,0 9.5,0 0,9.5 -9.5,0 0,-9.5 z m -129.999997,10 9.5,0 0,9.5 -9.5,0 0,-9.5 z m 10,0 9.5,0 0,9.5 -9.5,0 0,-9.5 z m 30,0 9.5,0 0,9.5 -9.5,0 0,-9.5 z m 10,0 9.5,0 0,9.5 -9.5,0 0,-9.5 z m 30,0 9.499997,0 0,9.5 -9.499997,0 0,-9.5 z m 9.999997,0 9.5,0 0,9.5 -9.5,0 0,-9.5 z m 30,0 9.5,0 0,9.5 -9.5,0 0,-9.5 z m 10,0 9.5,0 0,9.5 -9.5,0 0,-9.5 z"
     id="rect6857-00" />
  <path
     style="color:#000000;font-style:normal;font-variant:normal;font-weight:normal;font-stretch:normal;font-size:medium;line-height:normal;font-family:sans-serif;text-indent:0;text-align:start;text-decoration:none;text-decoration-line:none;text-decoration-style:solid;text-decoration-color:#000000;letter-spacing:normal;word-spacing:normal;text-transform:none;direction:ltr;block-progression:tb;writing-mode:lr-tb;baseline-shift:baseline;text-anchor:start;white-space:normal;clip-rule:nonzero;display:inline;overflow:visible;visibility:visible;opacity:1;isolation:auto;mix-blend-mode:normal;color-interpolation:sRGB;color-interpolation-filters:linearRGB;solid-color:#000000;solid-opacity:1;fill:url(#linearGradient9767);fill-opacity:1;fill-rule:nonzero;stroke:none;stroke-width:0.5;stroke-linecap:square;stroke-linejoin:round;stroke-miterlimit:4;stroke-dasharray:none;stroke-dashoffset:0;stroke-opacity:1;color-rendering:auto;image-rendering:auto;shape-rendering:auto;text-rendering:auto;enable-background:accumulate"
     d="M 160.22461,160.25 A 0.250025,0.250025 0 0 0 160,160.5 l 0,10 0,10 0,10 0,10 a 0.250025,0.250025 0 0 0 0.25,0.25 l 0.0176,0 A 0.250025,0.250025 0 0 0 160.5,200.5 l 0,-0.25 0,-9.5 9.5,0 0,9.5 0.5,0 0,-9.5 9.5,0 0,9.5 0.5,0 0,-9.5 9.5,0 0,9.5 0.5,0 0,-9.5 9.5,0 0,-0.5 -9.5,0 0,-9.5 9.5,0 0,-0.5 -9.5,0 0,-9.5 9.5,0 0,-0.5 -9.5,0 0,-9.5 -0.5,0 0,9.5 -9.5,0 0,-9.5 -0.5,0 0,9.5 -9.5,0 0,-9.5 -0.5,0 0,9.5 -9.5,0 0,-9.5 0,-0.25 a 0.250025,0.250025 0 0 0 -0.23242,-0.25 l -0.0176,0 a 0.250025,0.250025 0 0 0 -0.0254,0 z m 0.27539,10.5 9.5,0 0,9.5 -9.5,0 0,-9.5 z m 10,0 9.5,0 0,9.5 -9.5,0 0,-9.5 z m 10,0 9.5,0 0,9.5 -9.5,0 0,-9.5 z m -20,10 9.5,0 0,9.5 -9.5,0 0,-9.5 z m 10,0 9.5,0 0,9.5 -9.5,0 0,-9.5 z m 10,0 9.5,0 0,9.5 -9.5,0 0,-9.5 z"
     id="rect6857-2-0" />
  <path
     style="color:#000000;font-style:normal;font-variant:normal;font-weight:normal;font-stretch:normal;font-size:medium;line-height:normal;font-family:sans-serif;text-indent:0;text-align:start;text-decoration:none;text-decoration-line:none;text-decoration-style:solid;text-decoration-color:#000000;letter-spacing:normal;word-spacing:normal;text-transform:none;direction:ltr;block-progression:tb;writing-mode:lr-tb;baseline-shift:baseline;text-anchor:start;white-space:normal;clip-rule:nonzero;display:inline;overflow:visible;visibility:visible;opacity:1;isolation:auto;mix-blend-mode:normal;color-interpolation:sRGB;color-interpolation-filters:linearRGB;solid-color:#000000;solid-opacity:1;fill:#000000;fill-opacity:0.25098039;fill-rule:nonzero;stroke:none;stroke-width:0.5;stroke-linecap:square;stroke-linejoin:round;stroke-miterlimit:4;stroke-dasharray:none;stroke-dashoffset:0;stroke-opacity:1;color-rendering:auto;image-rendering:auto;shape-rendering:auto;text-rendering:auto;enable-background:accumulate"
     d="M 0.2246126,0.25 A 0.250025,0.250025 0 0 0 3.2244989e-6,0.5 l 0,40 0,40 A 0.250025,0.250025 0 0 0 0.25000322,80.75 l 39.99999978,0 40,0 39.999997,0 40,0 a 0.250025,0.250025 0 0 0 0.25,-0.25 l 0,-39.982422 a 0.250025,0.250025 0 0 0 0,-0.01758 l 0,-40 a 0.250025,0.250025 0 0 0 -0.25,-0.25 l -39.98242,0 a 0.250025,0.250025 0 0 0 -0.0176,0 l -39.982419,0 a 0.250025,0.250025 0 0 0 -0.01758,0 l -39.982422,0 a 0.250025,0.250025 0 0 0 -0.01758,0 l -39.99999978,0 a 0.250025,0.250025 0 0 0 -0.0253906,0 z m 0.27539062,0.5 39.49999978,0 0,39.5 -39.49999978,0 0,-39.5 z m 39.99999978,0 39.5,0 0,39.5 -39.5,0 0,-39.5 z m 40,0 39.499997,0 0,39.5 -39.499997,0 0,-39.5 z m 39.999997,0 39.5,0 0,39.5 -39.5,0 0,-39.5 z m -119.99999678,40 39.49999978,0 0,39.5 -39.49999978,0 0,-39.5 z m 39.99999978,0 39.5,0 0,39.5 -39.5,0 0,-39.5 z m 40,0 39.499997,0 0,39.5 -39.499997,0 0,-39.5 z m 39.999997,0 39.5,0 0,39.5 -39.5,0 0,-39.5 z"
     id="rect9322" />
  <path
     style="color:#000000;font-style:normal;font-variant:normal;font-weight:normal;font-stretch:normal;font-size:medium;line-height:normal;font-family:sans-serif;text-indent:0;text-align:start;text-decoration:none;text-decoration-line:none;text-decoration-style:solid;text-decoration-color:#000000;letter-spacing:normal;word-spacing:normal;text-transform:none;direction:ltr;block-progression:tb;writing-mode:lr-tb;baseline-shift:baseline;text-anchor:start;white-space:normal;clip-rule:nonzero;display:inline;overflow:visible;visibility:visible;opacity:1;isolation:auto;mix-blend-mode:normal;color-interpolation:sRGB;color-interpolation-filters:linearRGB;solid-color:#000000;solid-opacity:1;fill:url(#linearGradient9702);fill-opacity:1;fill-rule:nonzero;stroke:none;stroke-width:0.5;stroke-linecap:square;stroke-linejoin:round;stroke-miterlimit:4;stroke-dasharray:none;stroke-dashoffset:0;stroke-opacity:1;color-rendering:auto;image-rendering:auto;shape-rendering:auto;text-rendering:auto;enable-background:accumulate"
     d="M 160.26758,0.25 A 0.250025,0.250025 0 0 1 160.5,0.5 l 0,0.25 39.5,0 0,39.5 -39.5,0 0,0.25 a 0.250025,0.250025 0 0 1 0,0.01758 l 0,0.232422 39.5,0 0,39.5 -39.5,0 0,0.25 A 0.250025,0.250025 0 0 1 160.25,80.75 l 40,0 a 0.250025,0.250025 0 0 0 0.25,-0.25 l 0,-39.982422 a 0.250025,0.250025 0 0 0 0,-0.01758 l 0,-40 a 0.250025,0.250025 0 0 0 -0.25,-0.25 l -39.98242,0 z"
     id="rect9322-2" />
  <path
     style="color:#000000;font-style:normal;font-variant:normal;font-weight:normal;font-stretch:normal;font-size:medium;line-height:normal;font-family:sans-serif;text-indent:0;text-align:start;text-decoration:none;text-decoration-line:none;text-decoration-style:solid;text-decoration-color:#000000;letter-spacing:normal;word-spacing:normal;text-transform:none;direction:ltr;block-progression:tb;writing-mode:lr-tb;baseline-shift:baseline;text-anchor:start;white-space:normal;clip-rule:nonzero;display:inline;overflow:visible;visibility:visible;opacity:1;isolation:auto;mix-blend-mode:normal;color-interpolation:sRGB;color-interpolation-filters:linearRGB;solid-color:#000000;solid-opacity:1;fill:url(#linearGradient9640);fill-opacity:1;fill-rule:nonzero;stroke:none;stroke-width:0.5;stroke-linecap:square;stroke-linejoin:round;stroke-miterlimit:4;stroke-dasharray:none;stroke-dashoffset:0;stroke-opacity:1;color-rendering:auto;image-rendering:auto;shape-rendering:auto;text-rendering:auto;enable-background:accumulate"
     d="m 3.2244989e-6,80.5 0,40 A 0.250025,0.250025 0 0 0 0.25000322,120.75 l 39.99999978,0 40,0 39.999997,0 40,0 a 0.250025,0.250025 0 0 0 0.25,-0.25 l 0,-39.982422 A 0.250025,0.250025 0 0 1 160.25,80.75 l -0.25,0 0,39.5 -39.5,0 0,-39.5 -0.25,0 -0.25,0 0,39.5 -39.499997,0 0,-39.5 -0.25,0 -0.25,0 0,39.5 -39.5,0 0,-39.5 -0.25,0 -0.25,0 0,39.5 -39.49999978,0 0,-39.5 -0.25,0 A 0.250025,0.250025 0 0 1 3.2244989e-6,80.5 Z"
     id="rect9322-5" />
  <path
     style="color:#000000;font-style:normal;font-variant:normal;font-weight:normal;font-stretch:normal;font-size:medium;line-height:normal;font-family:sans-serif;text-indent:0;text-align:start;text-decoration:none;text-decoration-line:none;text-decoration-style:solid;text-decoration-color:#000000;letter-spacing:normal;word-spacing:normal;text-transform:none;direction:ltr;block-progression:tb;writing-mode:lr-tb;baseline-shift:baseline;text-anchor:start;white-space:normal;clip-rule:nonzero;display:inline;overflow:visible;visibility:visible;opacity:1;isolation:auto;mix-blend-mode:normal;color-interpolation:sRGB;color-interpolation-filters:linearRGB;solid-color:#000000;solid-opacity:1;fill:url(#linearGradient9880);fill-opacity:1;fill-rule:nonzero;stroke:none;stroke-width:0.5;stroke-linecap:square;stroke-linejoin:round;stroke-miterlimit:4;stroke-dasharray:none;stroke-dashoffset:0;stroke-opacity:1;color-rendering:auto;image-rendering:auto;shape-rendering:auto;text-rendering:auto;enable-background:accumulate"
     d="M 0.2246126,120.25 A 0.250025,0.250025 0 0 0 3.2244989e-6,120.5 l 0,39.98242 A 0.250025,0.250025 0 0 1 0.2246126,160.25 a 0.250025,0.250025 0 0 1 0.0253906,0 l 0.25,0 0,-39.5 39.49999978,0 0,39.5 0.25,0 a 0.250025,0.250025 0 0 1 0.01758,0 l 0.232422,0 0,-39.5 39.5,0 0,39.5 0.25,0 a 0.250025,0.250025 0 0 1 0.01758,0 l 0.232422,0 0,-39.5 39.499993,0 0,39.5 0.22461,0 0.0254,0 a 0.250025,0.250025 0 0 1 0.0176,0 l 0.23242,0 0,-39.5 39.5,0 0,39.5 0.25,0 a 0.250025,0.250025 0 0 1 0.25,0.25 l 0,-40 a 0.250025,0.250025 0 0 0 -0.25,-0.25 l -39.98242,0 a 0.250025,0.250025 0 0 0 -0.0176,0 l -0.0254,0 -39.957025,0 a 0.250025,0.250025 0 0 0 -0.01758,0 l -39.982422,0 a 0.250025,0.250025 0 0 0 -0.01758,0 l -39.99999978,0 a 0.250025,0.250025 0 0 0 -0.0253906,0 z"
     id="rect9769" />
  <path
     style="color:#000000;font-style:normal;font-variant:normal;font-weight:normal;font-stretch:normal;font-size:medium;line-height:normal;font-family:sans-serif;text-indent:0;text-align:start;text-decoration:none;text-decoration-line:none;text-decoration-style:solid;text-decoration-color:#000000;letter-spacing:normal;word-spacing:normal;text-transform:none;direction:ltr;block-progression:tb;writing-mode:lr-tb;baseline-shift:baseline;text-anchor:start;white-space:normal;clip-rule:nonzero;display:inline;overflow:visible;visibility:visible;opacity:1;isolation:auto;mix-blend-mode:normal;color-interpolation:sRGB;color-interpolation-filters:linearRGB;solid-color:#000000;solid-opacity:1;fill:url(#linearGradient10085);fill-opacity:1;fill-rule:nonzero;stroke:none;stroke-width:0.5;stroke-linecap:square;stroke-linejoin:round;stroke-miterlimit:4;stroke-dasharray:none;stroke-dashoffset:0;stroke-opacity:1;color-rendering:auto;image-rendering:auto;shape-rendering:auto;text-rendering:auto;enable-background:accumulate"
     d="m 160.26758,160.25 a 0.250025,0.250025 0 0 1 0.0254,0.004 0.250025,0.250025 0 0 1 0.0703,0.0234 0.250025,0.250025 0 0 1 0.0215,0.0117 0.250025,0.250025 0 0 1 0.0215,0.0156 0.250025,0.250025 0 0 1 0.0176,0.0156 0.250025,0.250025 0 0 1 0.0176,0.0176 0.250025,0.250025 0 0 1 0,0.002 0.250025,0.250025 0 0 1 0.0156,0.0176 0.250025,0.250025 0 0 1 0,0.002 0.250025,0.250025 0 0 1 0.0117,0.0195 0.250025,0.250025 0 0 1 0.0195,0.0469 0.250025,0.250025 0 0 1 0.006,0.0234 0.250025,0.250025 0 0 1 0.006,0.0508 l 0,0.25 39.5,0 0,39.5 -39.5,0 0,0.25 a 0.250025,0.250025 0 0 1 -0.002,0.0254 0.250025,0.250025 0 0 1 -0.002,0.0176 0.250025,0.250025 0 0 1 -0.002,0.006 0.250025,0.250025 0 0 1 -0.004,0.0176 0.250025,0.250025 0 0 1 0,0.002 0.250025,0.250025 0 0 1 -0.0176,0.0449 0.250025,0.250025 0 0 1 -0.004,0.006 0.250025,0.250025 0 0 1 -0.008,0.0156 0.250025,0.250025 0 0 1 -0.002,0.004 0.250025,0.250025 0 0 1 -0.0137,0.0176 0.250025,0.250025 0 0 1 -0.004,0.004 0.250025,0.250025 0 0 1 -0.0117,0.0137 0.250025,0.250025 0 0 1 -0.004,0.002 0.250025,0.250025 0 0 1 -0.0352,0.0312 0.250025,0.250025 0 0 1 -0.002,0.002 0.250025,0.250025 0 0 1 -0.041,0.0215 0.250025,0.250025 0 0 1 -0.008,0.002 0.250025,0.250025 0 0 1 -0.0156,0.006 0.250025,0.250025 0 0 1 -0.008,0.002 0.250025,0.250025 0 0 1 -0.041,0.008 0.250025,0.250025 0 0 1 -0.008,0.002 l 39.98242,0 a 0.250025,0.250025 0 0 0 0.25,-0.25 l 0,-40 a 0.250025,0.250025 0 0 0 -0.25,-0.25 l -39.98242,0 z"
     id="rect9769-70" />
  <path
     style="color:#000000;font-style:normal;font-variant:normal;font-weight:normal;font-stretch:normal;font-size:medium;line-height:normal;font-family:sans-serif;text-indent:0;text-align:start;text-decoration:none;text-decoration-line:none;text-decoration-style:solid;text-decoration-color:#000000;letter-spacing:normal;word-spacing:normal;text-transform:none;direction:ltr;block-progression:tb;writing-mode:lr-tb;baseline-shift:baseline;text-anchor:start;white-space:normal;clip-rule:nonzero;display:inline;overflow:visible;visibility:visible;opacity:1;isolation:auto;mix-blend-mode:normal;color-interpolation:sRGB;color-interpolation-filters:linearRGB;solid-color:#000000;solid-opacity:1;fill:#000000;fill-opacity:0.25098039;fill-rule:nonzero;stroke:none;stroke-width:0.5;stroke-linecap:square;stroke-linejoin:round;stroke-miterlimit:4;stroke-dasharray:none;stroke-dashoffset:0;stroke-opacity:1;color-rendering:auto;image-rendering:auto;shape-rendering:auto;text-rendering:auto;enable-background:accumulate"
     d="M 0.2246126,160.25 A 0.250025,0.250025 0 0 0 3.2244989e-6,160.5 l 0,40 A 0.250025,0.250025 0 0 0 0.25000322,200.75 l 39.99999978,0 40,0 39.999997,0 40,0 a 0.250025,0.250025 0 0 0 0.25,-0.25 l 0,-40 a 0.250025,0.250025 0 0 0 -0.25,-0.25 l -39.98242,0 a 0.250025,0.250025 0 0 0 -0.0176,0 l -0.0254,0 -39.957029,0 a 0.250025,0.250025 0 0 0 -0.01758,0 l -39.982422,0 a 0.250025,0.250025 0 0 0 -0.01758,0 l -39.99999978,0 a 0.250025,0.250025 0 0 0 -0.0253906,0 z m 0.27539062,0.5 39.49999978,0 0,39.5 -39.49999978,0 0,-39.5 z m 39.99999978,0 39.5,0 0,39.5 -39.5,0 0,-39.5 z m 40,0 39.499997,0 0,39.5 -39.499997,0 0,-39.5 z m 39.999997,0 39.5,0 0,39.5 -39.5,0 0,-39.5 z"
     id="rect9769-9" />
  <path
     id="path8560"
     d="M 99.75 0.49414062 L 99.712891 3.4941406 L 100.71289 3.5058594 L 100.75 0.50585938 L 99.75 0.49414062 z M 139.5 0.75 L 139.5 3.0019531 L 140.5 3.0019531 L 140.5 0.75 L 139.5 0.75 z M 139.5 6.0019531 L 139.5 9.0019531 L 140.5 9.0019531 L 140.5 6.0019531 L 139.5 6.0019531 z M 99.675781 6.4941406 L 99.638672 9.4921875 L 100.63867 9.5058594 L 100.67578 6.5058594 L 99.675781 6.4941406 z M 139.5 12.001953 L 139.5 15.001953 L 140.5 15.001953 L 140.5 12.001953 L 139.5 12.001953 z M 99.601562 12.492188 L 99.564453 15.492188 L 100.56445 15.505859 L 100.60156 12.505859 L 99.601562 12.492188 z M 139.5 18.001953 L 139.5 20.75 L 139.74805 20.75 L 139.74805 21.25 L 140 21.25 L 140.5 21.25 L 140.5 20.75 L 140.5 18.001953 L 139.5 18.001953 z M 99.527344 18.492188 L 99.5 20.744141 L 99.494141 21.25 L 100 21.25 L 100.74805 21.25 L 100.74805 20.25 L 100.50586 20.25 L 100.52734 18.503906 L 99.527344 18.492188 z M 103.74805 20.25 L 103.74805 21.25 L 106.74805 21.25 L 106.74805 20.25 L 103.74805 20.25 z M 109.74805 20.25 L 109.74805 21.25 L 112.74805 21.25 L 112.74805 20.25 L 109.74805 20.25 z M 115.74805 20.25 L 115.74805 21.25 L 118.74805 21.25 L 118.74805 20.25 L 115.74805 20.25 z M 121.74805 20.25 L 121.74805 21.25 L 124.74805 21.25 L 124.74805 20.25 L 121.74805 20.25 z M 127.74805 20.25 L 127.74805 21.25 L 130.74805 21.25 L 130.74805 20.25 L 127.74805 20.25 z M 133.74805 20.25 L 133.74805 21.25 L 136.74805 21.25 L 136.74805 20.25 L 133.74805 20.25 z M 104.13281 179.88281 L 104.13281 180.88281 L 108.13281 180.88281 L 108.13281 179.88281 L 104.13281 179.88281 z M 112.13281 179.88281 L 112.13281 180.88281 L 116.13281 180.88281 L 116.13281 179.88281 L 112.13281 179.88281 z M 120.13281 179.88281 L 120.13281 180.88281 L 124.13281 180.88281 L 124.13281 179.88281 L 120.13281 179.88281 z M 128.13281 179.88281 L 128.13281 180.88281 L 132.13281 180.88281 L 132.13281 179.88281 L 128.13281 179.88281 z M 136.13281 179.88281 L 136.13281 180.88281 L 140.13281 180.88281 L 140.13281 179.88281 L 136.13281 179.88281 z M 99.75 180.5 L 99.75 184.5 L 100.75 184.5 L 100.75 180.5 L 99.75 180.5 z M 139.75 184.26367 L 139.75 188.26367 L 140.75 188.26367 L 140.75 184.26367 L 139.75 184.26367 z M 99.75 188.5 L 99.75 192.5 L 100.75 192.5 L 100.75 188.5 L 99.75 188.5 z M 139.75 192.26367 L 139.75 196.26367 L 140.75 196.26367 L 140.75 192.26367 L 139.75 192.26367 z M 99.75 196.5 L 99.75 200.5 L 100.75 200.5 L 100.75 196.5 L 99.75 196.5 z M 139.75 200.26367 L 139.75 200.38281 L 140.75 200.38281 L 140.75 200.26367 L 139.75 200.26367 z "
     style="color:#000000;font-style:normal;font-variant:normal;font-weight:normal;font-stretch:normal;font-size:medium;line-height:normal;font-family:sans-serif;text-indent:0;text-align:start;text-decoration:none;text-decoration-line:none;text-decoration-style:solid;text-decoration-color:#000000;letter-spacing:normal;word-spacing:normal;text-transform:none;direction:ltr;block-progression:tb;writing-mode:lr-tb;baseline-shift:baseline;text-anchor:start;white-space:normal;clip-rule:nonzero;display:inline;overflow:visible;visibility:visible;opacity:1;isolation:auto;mix-blend-mode:normal;color-interpolation:sRGB;color-interpolation-filters:linearRGB;solid-color:#000000;solid-opacity:1;fill:#000000;fill-opacity:1;fill-rule:evenodd;stroke:none;stroke-width:1;stroke-linecap:butt;stroke-linejoin:miter;stroke-miterlimit:4;stroke-dasharray:4, 4;stroke-dashoffset:0;stroke-opacity:1;color-rendering:auto;image-rendering:auto;shape-rendering:auto;text-rendering:auto;enable-background:accumulate" />
  <path
     id="rect8564"
     d="M 80 0.25 L 80 0.75 L 80 41 L 120.75 41 L 160.75 41 L 160.75 0.25 L 120.75 0.25 L 80 0.25 z M 81 1.25 L 119.75 1.25 L 119.75 40 L 81 40 L 81 1.25 z M 121 1.25 L 159.75 1.25 L 159.75 40 L 121 40 L 121 1.25 z M 80 160.25 L 80 160.75 L 80 201 L 120 201 L 120.75 201 L 160.75 201 L 160.75 160.25 L 120.75 160.25 L 120 160.25 L 80 160.25 z M 81 161.25 L 119.75 161.25 L 119.75 200 L 81 200 L 81 161.25 z M 121 161.25 L 159.75 161.25 L 159.75 200 L 121 200 L 121 161.25 z "
     style="color:#000000;font-style:normal;font-variant:normal;font-weight:normal;font-stretch:normal;font-size:medium;line-height:normal;font-family:sans-serif;text-indent:0;text-align:start;text-decoration:none;text-decoration-line:none;text-decoration-style:solid;text-decoration-color:#000000;letter-spacing:normal;word-spacing:normal;text-transform:none;direction:ltr;block-progression:tb;writing-mode:lr-tb;baseline-shift:baseline;text-anchor:start;white-space:normal;clip-rule:nonzero;display:inline;overflow:visible;visibility:visible;opacity:1;isolation:auto;mix-blend-mode:normal;color-interpolation:sRGB;color-interpolation-filters:linearRGB;solid-color:#000000;solid-opacity:1;fill:#ff0000;fill-opacity:1;fill-rule:evenodd;stroke:none;stroke-width:1;stroke-linecap:square;stroke-linejoin:miter;stroke-miterlimit:4;stroke-dasharray:none;stroke-dashoffset:0;stroke-opacity:1;color-rendering:auto;image-rendering:auto;shape-rendering:auto;text-rendering:auto;enable-background:accumulate" />
  <g
     transform="matrix(0.93869446,0,0,1.029799,80.4963,160.5)"
     style="font-style:normal;font-variant:normal;font-weight:bold;font-stretch:normal;font-size:6.0691452px;line-height:125%;font-family:serif;-inkscape-font-specification:'serif Bold';text-align:center;letter-spacing:-0.19421265px;word-spacing:0px;text-anchor:middle;fill:#000000;fill-opacity:1;stroke:none;stroke-width:1px;stroke-linecap:butt;stroke-linejoin:miter;stroke-opacity:1"
     id="text4159">
    <path
       d="m 1.4435366,5.826376 0,-0.3585775 0.5630555,0 0,-3.7072757 -0.5630555,0 0,-0.3585774 1.8254851,0 1.2624296,2.8389849 1.2683565,-2.8389849 1.8225217,0 0,0.3585774 -0.566019,0 0,3.7072757 0.566019,0 0,0.3585775 -2.2759295,0 0,-0.3585775 0.5630555,0 0,-3.3753693 -1.3720773,3.0849513 -0.7497528,0 -1.3661504,-3.0849513 0,3.3753693 0.5630555,0 0,0.3585775 -1.5409939,0 z"
       style="font-style:normal;font-variant:normal;font-weight:bold;font-stretch:normal;font-size:6.0691452px;font-family:serif;-inkscape-font-specification:'serif Bold'"
       id="path4769" />
  </g>
  <g
     transform="matrix(0.96228876,0,0,1.0391891,79.504658,160.5)"
     style="font-style:normal;font-variant:normal;font-weight:bold;font-stretch:normal;font-size:4.375px;line-height:125%;font-family:serif;-inkscape-font-specification:'serif Bold';text-align:center;letter-spacing:-0.19245775px;word-spacing:0px;baseline-shift:baseline;text-anchor:middle;fill:#000000;fill-opacity:1;stroke:none;stroke-width:1px;stroke-linecap:butt;stroke-linejoin:miter;stroke-opacity:1"
     id="text4165">
    <path
       d="m 10.420982,5.5076847 -0.6643673,0.9698486 0.3930663,0 0,0.2584839 -1.1322021,0 0,-0.2584839 0.3930664,0 0.8395387,-1.2197876 -0.9976197,-1.4526367 -0.2926636,0 0,-0.2584839 1.5850833,0 0,0.2584839 -0.350342,0 0.617371,0.8972168 0.610961,-0.8972168 -0.371704,0 0,-0.2584839 1.11084,0 0,0.2584839 -0.393066,0 -0.788269,1.1450196 1.046753,1.5274047 0.301208,0 0,0.2584839 -1.591492,0 0,-0.2584839 0.354615,0 -0.670777,-0.9698486 z"
       style="font-style:normal;font-variant:normal;font-weight:bold;font-stretch:normal;font-size:4.375px;font-family:serif;-inkscape-font-specification:'serif Bold';text-align:start;text-anchor:start"
       id="path4750" />
    <path
       d="m 12.25773,7.6110172 0,-0.1680145 0.263824,0 0,-1.7370758 -0.263824,0 0,-0.1680145 0.855347,0 0.591522,1.3302307 0.594299,-1.3302307 0.853958,0 0,0.1680145 -0.265213,0 0,1.7370758 0.265213,0 0,0.1680145 -1.066406,0 0,-0.1680145 0.263825,0 0,-1.5815582 -0.642899,1.4454803 -0.351303,0 -0.640122,-1.4454803 0,1.5815582 0.263825,0 0,0.1680145 -0.722046,0 z"
       style="font-style:normal;font-variant:normal;font-weight:bold;font-stretch:normal;font-size:64.99999762%;font-family:serif;-inkscape-font-specification:'serif Bold';baseline-shift:sub"
       id="path4752" />
    <path
       d="m 16.044856,7.494379 q 0.155518,0 0.218002,-0.1333007 0.06387,-0.1333008 0.06387,-0.4887696 0,-0.3554687 -0.06248,-0.487381 -0.06249,-0.1333007 -0.219391,-0.1333007 -0.156906,0 -0.220779,0.1346893 -0.06387,0.1333008 -0.06387,0.4859924 0,0.3526917 0.06387,0.487381 0.06387,0.1346893 0.220779,0.1346893 z m 0,0.1569062 q -0.390182,0 -0.61235,-0.2068939 -0.22078,-0.2082825 -0.22078,-0.5720826 0,-0.3651886 0.22078,-0.5706939 0.222168,-0.206894 0.61235,-0.206894 0.391571,0 0.612351,0.206894 0.220779,0.2055053 0.220779,0.5706939 0,0.3638001 -0.222168,0.5720826 -0.220779,0.2068939 -0.610962,0.2068939 z"
       style="font-style:normal;font-variant:normal;font-weight:bold;font-stretch:normal;font-size:64.99999762%;font-family:serif;-inkscape-font-specification:'serif Bold';baseline-shift:sub"
       id="path4754" />
    <path
       d="m 18.022702,6.9459019 0,-0.1457978 q 0,-0.2582702 -0.06665,-0.3735199 -0.06665,-0.1152496 -0.212448,-0.1152496 -0.15274,0 -0.215225,0.1221924 -0.0611,0.1208038 -0.0611,0.4387817 0,0.3179779 0.06248,0.4401703 0.06248,0.1221924 0.213836,0.1221924 0.145798,0 0.212448,-0.1152496 0.06665,-0.1152497 0.06665,-0.3735199 z m 0.491546,0.4971008 0.209671,0 0,0.1680145 -0.701217,0 0,-0.1874542 q -0.06248,0.1152496 -0.169403,0.1721802 -0.10553,0.055542 -0.261048,0.055542 -0.313812,0 -0.494323,-0.2082825 -0.179123,-0.2082825 -0.179123,-0.570694 0,-0.3638 0.179123,-0.5706939 0.180511,-0.206894 0.494323,-0.206894 0.155518,0 0.261048,0.056931 0.106918,0.055542 0.169403,0.1707916 l 0,-0.7053833 -0.21106,0 0,-0.166626 0.702606,0 0,1.992569 z"
       style="font-style:normal;font-variant:normal;font-weight:bold;font-stretch:normal;font-size:64.99999762%;font-family:serif;-inkscape-font-specification:'serif Bold';baseline-shift:sub"
       id="path4756" />
    <path
       d="m 18.65579,7.1568546 q 0.222168,-0.1794433 0.326844,-0.4016113 0.104675,-0.222168 0.104675,-0.5169678 l 0,-0.1837158 0.608826,0 0,0.01709 q 0,0.4721069 -0.19867,0.8117675 -0.196533,0.3417969 -0.606689,0.574646 L 18.65579,7.1568546 Z"
       style="font-style:normal;font-variant:normal;font-weight:bold;font-stretch:normal;font-size:4.375px;font-family:serif;-inkscape-font-specification:'serif Bold';text-align:start;text-anchor:start"
       id="path4758" />
    <path
       d="m 20.678603,6.7360172 0,-0.2584839 0.429382,0 0,-1.0617065 -0.948486,-1.6107178 -0.271301,0 0,-0.2584839 1.529541,0 0,0.2584839 -0.354614,0 0.717773,1.2155152 0.713501,-1.2155152 -0.318298,0 0,-0.2584839 0.914306,0 0,0.2584839 -0.271301,0 -0.884399,1.4996338 0,1.1727905 0.429382,0 0,0.2584839 -1.685486,0 z"
       style="font-style:normal;font-variant:normal;font-weight:bold;font-stretch:normal;font-size:4.375px;font-family:serif;-inkscape-font-specification:'serif Bold';text-align:start;text-anchor:start"
       id="path4760" />
    <path
       d="m 22.98105,7.6110172 0,-0.1680145 0.263824,0 0,-1.7370758 -0.263824,0 0,-0.1680145 0.855346,0 0.591522,1.3302307 0.5943,-1.3302307 0.853958,0 0,0.1680145 -0.265213,0 0,1.7370758 0.265213,0 0,0.1680145 -1.066406,0 0,-0.1680145 0.263824,0 0,-1.5815582 -0.642898,1.4454803 -0.351304,0 -0.640121,-1.4454803 0,1.5815582 0.263824,0 0,0.1680145 -0.722045,0 z"
       style="font-size:64.99999762%;baseline-shift:sub"
       id="path4762" />
    <path
       d="m 26.768175,7.494379 q 0.155518,0 0.218002,-0.1333007 0.06387,-0.1333008 0.06387,-0.4887696 0,-0.3554687 -0.06248,-0.487381 -0.06249,-0.1333007 -0.219391,-0.1333007 -0.156906,0 -0.220779,0.1346893 -0.06387,0.1333008 -0.06387,0.4859924 0,0.3526917 0.06387,0.487381 0.06387,0.1346893 0.220779,0.1346893 z m 0,0.1569062 q -0.390182,0 -0.61235,-0.2068939 -0.22078,-0.2082825 -0.22078,-0.5720826 0,-0.3651886 0.22078,-0.5706939 0.222168,-0.206894 0.61235,-0.206894 0.391571,0 0.612351,0.206894 0.220779,0.2055053 0.220779,0.5706939 0,0.3638001 -0.222168,0.5720826 -0.220779,0.2068939 -0.610962,0.2068939 z"
       style="font-size:64.99999762%;baseline-shift:sub"
       id="path4764" />
    <path
       d="m 28.746021,6.9459019 0,-0.1457978 q 0,-0.2582702 -0.06665,-0.3735199 -0.06665,-0.1152496 -0.212448,-0.1152496 -0.152741,0 -0.215225,0.1221924 -0.0611,0.1208038 -0.0611,0.4387817 0,0.3179779 0.06248,0.4401703 0.06248,0.1221924 0.213837,0.1221924 0.145797,0 0.212448,-0.1152496 0.06665,-0.1152497 0.06665,-0.3735199 z m 0.491547,0.4971008 0.209671,0 0,0.1680145 -0.701218,0 0,-0.1874542 q -0.06248,0.1152496 -0.169403,0.1721802 -0.10553,0.055542 -0.261047,0.055542 -0.313812,0 -0.494324,-0.2082825 -0.179123,-0.2082825 -0.179123,-0.570694 0,-0.3638 0.179123,-0.5706939 0.180512,-0.206894 0.494324,-0.206894 0.155517,0 0.261047,0.056931 0.106919,0.055542 0.169403,0.1707916 l 0,-0.7053833 -0.211059,0 0,-0.166626 0.702606,0 0,1.992569 z"
       style="font-size:64.99999762%;baseline-shift:sub"
       id="path4766" />
  </g>
  <g
     transform="matrix(0.946042,0,0,1.0378595,81.204683,160.5)"
     style="font-style:normal;font-variant:normal;font-weight:bold;font-stretch:normal;font-size:6.02200985px;line-height:125%;font-family:serif;-inkscape-font-specification:'serif Bold';text-align:center;letter-spacing:-0.19270432px;word-spacing:0px;text-anchor:middle;fill:#000000;fill-opacity:1;stroke:none;stroke-width:1px;stroke-linecap:butt;stroke-linejoin:miter;stroke-opacity:1"
     id="text4159-6">
    <path
       d="m 43.19953,5.7811356 0,-0.3557926 0.558682,0 0,-3.6784836 -0.558682,0 0,-0.3557925 1.811307,0 1.252625,2.8169362 1.258506,-2.8169362 1.808368,0 0,0.3557925 -0.561623,0 0,3.6784836 0.561623,0 0,0.3557926 -2.258254,0 0,-0.3557926 0.558682,0 0,-3.3491549 -1.361421,3.0609923 -0.74393,0 -1.35554,-3.0609923 0,3.3491549 0.558683,0 0,0.3557926 -1.529026,0 z"
       style="font-style:normal;font-variant:normal;font-weight:bold;font-stretch:normal;font-size:6.02200985px;font-family:serif;-inkscape-font-specification:'serif Bold'"
       id="path4747" />
  </g>
  <g
     transform="matrix(0.96228876,0,0,1.0391891,79.827658,160.5)"
     style="font-style:normal;font-variant:normal;font-weight:bold;font-stretch:normal;font-size:4.375px;line-height:125%;font-family:serif;-inkscape-font-specification:'serif Bold';text-align:center;letter-spacing:-0.19245775px;word-spacing:0px;baseline-shift:baseline;text-anchor:middle;fill:#000000;fill-opacity:1;stroke:none;stroke-width:1px;stroke-linecap:butt;stroke-linejoin:miter;stroke-opacity:1"
     id="text4165-0">
    <path
       d="m 51.883224,5.5076952 -0.664367,0.9698486 0.393066,0 0,0.2584839 -1.132202,0 0,-0.2584839 0.393066,0 0.839539,-1.2197876 -0.99762,-1.4526367 -0.292663,0 0,-0.2584839 1.585083,0 0,0.2584839 -0.350342,0 0.617371,0.8972168 0.610962,-0.8972168 -0.371705,0 0,-0.2584839 1.11084,0 0,0.2584839 -0.393066,0 -0.788269,1.1450195 1.046753,1.5274048 0.301208,0 0,0.2584839 -1.591491,0 0,-0.2584839 0.354614,0 -0.670777,-0.9698486 z"
       style="font-style:normal;font-variant:normal;font-weight:bold;font-stretch:normal;font-size:4.375px;font-family:serif;-inkscape-font-specification:'serif Bold';text-align:start;text-anchor:start"
       id="path4724" />
    <path
       d="m 53.719972,7.6110277 0,-0.1680145 0.263825,0 0,-1.7370758 -0.263825,0 0,-0.1680145 0.855347,0 0.591522,1.3302307 0.594299,-1.3302307 0.853958,0 0,0.1680145 -0.265213,0 0,1.7370758 0.265213,0 0,0.1680145 -1.066406,0 0,-0.1680145 0.263825,0 0,-1.5815582 -0.642899,1.4454803 -0.351303,0 -0.640121,-1.4454803 0,1.5815582 0.263824,0 0,0.1680145 -0.722046,0 z"
       style="font-style:normal;font-variant:normal;font-weight:bold;font-stretch:normal;font-size:64.99999762%;font-family:serif;-inkscape-font-specification:'serif Bold';baseline-shift:sub"
       id="path4726" />
    <path
       d="m 57.507098,7.4943895 q 0.155518,0 0.218003,-0.1333007 0.06387,-0.1333008 0.06387,-0.4887696 0,-0.3554687 -0.06249,-0.487381 -0.06249,-0.1333007 -0.219391,-0.1333007 -0.156906,0 -0.220779,0.1346893 -0.06387,0.1333008 -0.06387,0.4859924 0,0.3526917 0.06387,0.487381 0.06387,0.1346893 0.220779,0.1346893 z m 0,0.1569062 q -0.390182,0 -0.61235,-0.206894 -0.22078,-0.2082824 -0.22078,-0.5720825 0,-0.3651886 0.22078,-0.5706939 0.222168,-0.206894 0.61235,-0.206894 0.391571,0 0.612351,0.206894 0.220779,0.2055053 0.220779,0.5706939 0,0.3638001 -0.222168,0.5720825 -0.220779,0.206894 -0.610962,0.206894 z"
       style="font-style:normal;font-variant:normal;font-weight:bold;font-stretch:normal;font-size:64.99999762%;font-family:serif;-inkscape-font-specification:'serif Bold';baseline-shift:sub"
       id="path4728" />
    <path
       d="m 59.484944,6.9459124 0,-0.1457978 q 0,-0.2582702 -0.06665,-0.3735199 -0.06665,-0.1152496 -0.212448,-0.1152496 -0.15274,0 -0.215225,0.1221924 -0.0611,0.1208038 -0.0611,0.4387817 0,0.3179779 0.06249,0.4401703 0.06248,0.1221924 0.213836,0.1221924 0.145798,0 0.212448,-0.1152496 0.06665,-0.1152497 0.06665,-0.3735199 z m 0.491546,0.4971008 0.209672,0 0,0.1680145 -0.701218,0 0,-0.1874542 q -0.06248,0.1152496 -0.169403,0.1721802 -0.10553,0.055542 -0.261048,0.055542 -0.313812,0 -0.494323,-0.2082825 -0.179123,-0.2082825 -0.179123,-0.570694 0,-0.3638 0.179123,-0.5706939 0.180511,-0.206894 0.494323,-0.206894 0.155518,0 0.261048,0.056931 0.106918,0.055542 0.169403,0.1707916 l 0,-0.7053833 -0.21106,0 0,-0.166626 0.702606,0 0,1.992569 z"
       style="font-style:normal;font-variant:normal;font-weight:bold;font-stretch:normal;font-size:64.99999762%;font-family:serif;-inkscape-font-specification:'serif Bold';baseline-shift:sub"
       id="path4730" />
    <path
       d="m 62.064138,3.9931078 0,1.1984253 1.198426,0 0,0.3460693 -1.198426,0 0,1.1984253 -0.341796,0 0,-1.1984253 -1.198426,0 0,-0.3460693 1.198426,0 0,-1.1984253 0.341796,0 z"
       style="font-style:normal;font-variant:normal;font-weight:normal;font-stretch:normal;font-family:serif;-inkscape-font-specification:serif"
       id="path4732" />
    <path
       d="m 64.155311,6.7360277 0,-0.2264404 0.55542,0 0,-2.6531983 -0.643006,0.416565 0,-0.2798462 0.777588,-0.5041504 0.2948,0 0,3.0206299 0.55542,0 0,0.2264404 -1.540222,0 z"
       style="font-style:normal;font-variant:normal;font-weight:normal;font-stretch:normal;font-family:serif;-inkscape-font-specification:serif"
       id="path4734" />
    <path
       d="m 66.184533,7.1568651 q 0.222168,-0.1794433 0.326843,-0.4016113 0.104676,-0.222168 0.104676,-0.5169678 l 0,-0.1837158 0.608825,0 0,0.01709 q 0,0.472107 -0.198669,0.8117676 -0.196533,0.3417969 -0.60669,0.574646 L 66.184533,7.1568651 Z"
       style="font-style:normal;font-variant:normal;font-weight:bold;font-stretch:normal;font-size:4.375px;font-family:serif;-inkscape-font-specification:'serif Bold';text-align:start;text-anchor:start"
       id="path4736" />
    <path
       d="m 68.207346,6.7360277 0,-0.2584839 0.429382,0 0,-1.0617065 -0.948486,-1.6107178 -0.271301,0 0,-0.2584839 1.529541,0 0,0.2584839 -0.354615,0 0.717774,1.2155152 0.713501,-1.2155152 -0.318298,0 0,-0.2584839 0.914306,0 0,0.2584839 -0.271301,0 -0.8844,1.4996338 0,1.1727905 0.429383,0 0,0.2584839 -1.685486,0 z"
       style="font-style:normal;font-variant:normal;font-weight:bold;font-stretch:normal;font-size:4.375px;font-family:serif;-inkscape-font-specification:'serif Bold';text-align:start;text-anchor:start"
       id="path4738" />
    <path
       d="m 70.509792,7.6110277 0,-0.1680145 0.263825,0 0,-1.7370758 -0.263825,0 0,-0.1680145 0.855347,0 0.591522,1.3302307 0.5943,-1.3302307 0.853958,0 0,0.1680145 -0.265213,0 0,1.7370758 0.265213,0 0,0.1680145 -1.066407,0 0,-0.1680145 0.263825,0 0,-1.5815582 -0.642899,1.4454803 -0.351303,0 -0.640121,-1.4454803 0,1.5815582 0.263824,0 0,0.1680145 -0.722046,0 z"
       style="font-size:64.99999762%;baseline-shift:sub"
       id="path4740" />
    <path
       d="m 74.296917,7.4943895 q 0.155518,0 0.218002,-0.1333007 0.06387,-0.1333008 0.06387,-0.4887696 0,-0.3554687 -0.06249,-0.487381 -0.06248,-0.1333007 -0.219391,-0.1333007 -0.156906,0 -0.220779,0.1346893 -0.06387,0.1333008 -0.06387,0.4859924 0,0.3526917 0.06387,0.487381 0.06387,0.1346893 0.220779,0.1346893 z m 0,0.1569062 q -0.390183,0 -0.612351,-0.206894 -0.220779,-0.2082824 -0.220779,-0.5720825 0,-0.3651886 0.220779,-0.5706939 0.222168,-0.206894 0.612351,-0.206894 0.391571,0 0.61235,0.206894 0.22078,0.2055053 0.22078,0.5706939 0,0.3638001 -0.222168,0.5720825 -0.22078,0.206894 -0.610962,0.206894 z"
       style="font-size:64.99999762%;baseline-shift:sub"
       id="path4742" />
    <path
       d="m 76.274763,6.9459124 0,-0.1457978 q 0,-0.2582702 -0.06665,-0.3735199 -0.06665,-0.1152496 -0.212448,-0.1152496 -0.152741,0 -0.215226,0.1221924 -0.0611,0.1208038 -0.0611,0.4387817 0,0.3179779 0.06249,0.4401703 0.06248,0.1221924 0.213837,0.1221924 0.145797,0 0.212448,-0.1152496 0.06665,-0.1152497 0.06665,-0.3735199 z m 0.491547,0.4971008 0.209671,0 0,0.1680145 -0.701218,0 0,-0.1874542 q -0.06248,0.1152496 -0.169403,0.1721802 -0.10553,0.055542 -0.261047,0.055542 -0.313813,0 -0.494324,-0.2082825 -0.179123,-0.2082825 -0.179123,-0.570694 0,-0.3638 0.179123,-0.5706939 0.180511,-0.206894 0.494324,-0.206894 0.155517,0 0.261047,0.056931 0.106918,0.055542 0.169403,0.1707916 l 0,-0.7053833 -0.211059,0 0,-0.166626 0.702606,0 0,1.992569 z"
       style="font-size:64.99999762%;baseline-shift:sub"
       id="path4744" />
  </g>
  <g
     transform="matrix(0.93869446,0,0,1.029799,80.046726,-39.5)"
     style="font-style:normal;font-variant:normal;font-weight:bold;font-stretch:normal;font-size:6.0691452px;line-height:125%;font-family:serif;-inkscape-font-specification:'serif Bold';text-align:center;letter-spacing:-0.19421265px;word-spacing:0px;text-anchor:middle;fill:#000000;fill-opacity:1;stroke:none;stroke-width:1px;stroke-linecap:butt;stroke-linejoin:miter;stroke-opacity:1"
     id="text4159-2">
    <path
       d="m 1.443538,73.800797 0,-0.358578 0.5630555,0 0,-3.707276 -0.5630555,0 0,-0.358577 1.8254851,0 1.2624296,2.838985 1.2683566,-2.838985 1.8225216,0 0,0.358577 -0.5660189,0 0,3.707276 0.5660189,0 0,0.358578 -2.2759295,0 0,-0.358578 0.5630555,0 0,-3.375369 -1.3720773,3.084951 -0.7497528,0 -1.3661503,-3.084951 0,3.375369 0.5630554,0 0,0.358578 -1.5409939,0 z"
       style="font-style:normal;font-variant:normal;font-weight:bold;font-stretch:normal;font-size:6.0691452px;font-family:serif;-inkscape-font-specification:'serif Bold'"
       id="path4721" />
  </g>
  <g
     transform="matrix(0.96228876,0,0,1.0391891,79.055084,-39.5)"
     style="font-style:normal;font-variant:normal;font-weight:bold;font-stretch:normal;font-size:4.375px;line-height:125%;font-family:serif;-inkscape-font-specification:'serif Bold';text-align:center;letter-spacing:-0.19245775px;word-spacing:0px;baseline-shift:baseline;text-anchor:middle;fill:#000000;fill-opacity:1;stroke:none;stroke-width:1px;stroke-linecap:butt;stroke-linejoin:miter;stroke-opacity:1"
     id="text4165-5">
    <path
       d="m 10.420982,72.867897 -0.6643673,0.969849 0.3930663,0 0,0.258484 -1.1322021,0 0,-0.258484 0.3930664,0 0.8395387,-1.219788 -0.9976197,-1.452637 -0.2926636,0 0,-0.258484 1.5850833,0 0,0.258484 -0.350342,0 0.617371,0.897217 0.610961,-0.897217 -0.371704,0 0,-0.258484 1.11084,0 0,0.258484 -0.393066,0 -0.788269,1.14502 1.046753,1.527405 0.301208,0 0,0.258484 -1.591492,0 0,-0.258484 0.354615,0 -0.670777,-0.969849 z"
       style="font-style:normal;font-variant:normal;font-weight:bold;font-stretch:normal;font-size:4.375px;font-family:serif;-inkscape-font-specification:'serif Bold';text-align:start;text-anchor:start"
       id="path4698" />
    <path
       d="m 12.25773,74.97123 0,-0.168015 0.263824,0 0,-1.737076 -0.263824,0 0,-0.168014 0.855347,0 0.591522,1.33023 0.594299,-1.33023 0.853958,0 0,0.168014 -0.265213,0 0,1.737076 0.265213,0 0,0.168015 -1.066406,0 0,-0.168015 0.263825,0 0,-1.581558 -0.642899,1.44548 -0.351303,0 -0.640122,-1.44548 0,1.581558 0.263825,0 0,0.168015 -0.722046,0 z"
       style="font-style:normal;font-variant:normal;font-weight:bold;font-stretch:normal;font-size:64.99999762%;font-family:serif;-inkscape-font-specification:'serif Bold';baseline-shift:sub"
       id="path4700" />
    <path
       d="m 16.044856,74.854591 q 0.155518,0 0.218002,-0.1333 0.06387,-0.133301 0.06387,-0.48877 0,-0.355469 -0.06248,-0.487381 -0.06249,-0.133301 -0.219391,-0.133301 -0.156906,0 -0.220779,0.13469 -0.06387,0.1333 -0.06387,0.485992 0,0.352692 0.06387,0.487381 0.06387,0.134689 0.220779,0.134689 z m 0,0.156906 q -0.390182,0 -0.61235,-0.206893 -0.22078,-0.208283 -0.22078,-0.572083 0,-0.365189 0.22078,-0.570694 0.222168,-0.206894 0.61235,-0.206894 0.391571,0 0.612351,0.206894 0.220779,0.205505 0.220779,0.570694 0,0.3638 -0.222168,0.572083 -0.220779,0.206893 -0.610962,0.206893 z"
       style="font-style:normal;font-variant:normal;font-weight:bold;font-stretch:normal;font-size:64.99999762%;font-family:serif;-inkscape-font-specification:'serif Bold';baseline-shift:sub"
       id="path4702" />
    <path
       d="m 18.022702,74.306114 0,-0.145798 q 0,-0.25827 -0.06665,-0.373519 -0.06665,-0.11525 -0.212448,-0.11525 -0.15274,0 -0.215225,0.122192 -0.0611,0.120804 -0.0611,0.438782 0,0.317978 0.06248,0.44017 0.06248,0.122193 0.213836,0.122193 0.145798,0 0.212448,-0.11525 0.06665,-0.11525 0.06665,-0.37352 z m 0.491546,0.497101 0.209671,0 0,0.168015 -0.701217,0 0,-0.187455 q -0.06248,0.11525 -0.169403,0.172181 -0.10553,0.05554 -0.261048,0.05554 -0.313812,0 -0.494323,-0.208282 -0.179123,-0.208282 -0.179123,-0.570694 0,-0.3638 0.179123,-0.570694 0.180511,-0.206894 0.494323,-0.206894 0.155518,0 0.261048,0.05693 0.106918,0.05554 0.169403,0.170791 l 0,-0.705383 -0.21106,0 0,-0.166626 0.702606,0 0,1.992569 z"
       style="font-style:normal;font-variant:normal;font-weight:bold;font-stretch:normal;font-size:64.99999762%;font-family:serif;-inkscape-font-specification:'serif Bold';baseline-shift:sub"
       id="path4704" />
    <path
       d="m 18.65579,74.517067 q 0.222168,-0.179443 0.326844,-0.401611 0.104675,-0.222168 0.104675,-0.516968 l 0,-0.183716 0.608826,0 0,0.01709 q 0,0.472107 -0.19867,0.811767 -0.196533,0.341797 -0.606689,0.574646 L 18.65579,74.517067 Z"
       style="font-style:normal;font-variant:normal;font-weight:bold;font-stretch:normal;font-size:4.375px;font-family:serif;-inkscape-font-specification:'serif Bold';text-align:start;text-anchor:start"
       id="path4706" />
    <path
       d="m 20.678603,74.09623 0,-0.258484 0.429382,0 0,-1.061707 -0.948486,-1.610718 -0.271301,0 0,-0.258484 1.529541,0 0,0.258484 -0.354614,0 0.717773,1.215515 0.713501,-1.215515 -0.318298,0 0,-0.258484 0.914306,0 0,0.258484 -0.271301,0 -0.884399,1.499634 0,1.172791 0.429382,0 0,0.258484 -1.685486,0 z"
       style="font-style:normal;font-variant:normal;font-weight:bold;font-stretch:normal;font-size:4.375px;font-family:serif;-inkscape-font-specification:'serif Bold';text-align:start;text-anchor:start"
       id="path4708" />
    <path
       d="m 22.98105,74.97123 0,-0.168015 0.263824,0 0,-1.737076 -0.263824,0 0,-0.168014 0.855346,0 0.591522,1.33023 0.5943,-1.33023 0.853958,0 0,0.168014 -0.265213,0 0,1.737076 0.265213,0 0,0.168015 -1.066406,0 0,-0.168015 0.263824,0 0,-1.581558 -0.642898,1.44548 -0.351304,0 -0.640121,-1.44548 0,1.581558 0.263824,0 0,0.168015 -0.722045,0 z"
       style="font-size:64.99999762%;baseline-shift:sub"
       id="path4710" />
    <path
       d="m 26.768175,74.854591 q 0.155518,0 0.218002,-0.1333 0.06387,-0.133301 0.06387,-0.48877 0,-0.355469 -0.06248,-0.487381 -0.06249,-0.133301 -0.219391,-0.133301 -0.156906,0 -0.220779,0.13469 -0.06387,0.1333 -0.06387,0.485992 0,0.352692 0.06387,0.487381 0.06387,0.134689 0.220779,0.134689 z m 0,0.156906 q -0.390182,0 -0.61235,-0.206893 -0.22078,-0.208283 -0.22078,-0.572083 0,-0.365189 0.22078,-0.570694 0.222168,-0.206894 0.61235,-0.206894 0.391571,0 0.612351,0.206894 0.220779,0.205505 0.220779,0.570694 0,0.3638 -0.222168,0.572083 -0.220779,0.206893 -0.610962,0.206893 z"
       style="font-size:64.99999762%;baseline-shift:sub"
       id="path4712" />
    <path
       d="m 28.746021,74.306114 0,-0.145798 q 0,-0.25827 -0.06665,-0.373519 -0.06665,-0.11525 -0.212448,-0.11525 -0.152741,0 -0.215225,0.122192 -0.0611,0.120804 -0.0611,0.438782 0,0.317978 0.06248,0.44017 0.06248,0.122193 0.213837,0.122193 0.145797,0 0.212448,-0.11525 0.06665,-0.11525 0.06665,-0.37352 z m 0.491547,0.497101 0.209671,0 0,0.168015 -0.701218,0 0,-0.187455 q -0.06248,0.11525 -0.169403,0.172181 -0.10553,0.05554 -0.261047,0.05554 -0.313812,0 -0.494324,-0.208282 -0.179123,-0.208282 -0.179123,-0.570694 0,-0.3638 0.179123,-0.570694 0.180512,-0.206894 0.494324,-0.206894 0.155517,0 0.261047,0.05693 0.106919,0.05554 0.169403,0.170791 l 0,-0.705383 -0.211059,0 0,-0.166626 0.702606,0 0,1.992569 z"
       style="font-size:64.99999762%;baseline-shift:sub"
       id="path4714" />
    <path
       d="m 31.325214,71.35331 0,1.198425 1.198426,0 0,0.346069 -1.198426,0 0,1.198426 -0.341796,0 0,-1.198426 -1.198426,0 0,-0.346069 1.198426,0 0,-1.198425 0.341796,0 z"
       style="font-style:normal;font-variant:normal;font-weight:normal;font-stretch:normal;font-family:serif;-inkscape-font-specification:serif"
       id="path4716" />
    <path
       d="m 33.416388,74.09623 0,-0.226441 0.555419,0 0,-2.653198 -0.643005,0.416565 0,-0.279846 0.777588,-0.504151 0.2948,0 0,3.02063 0.55542,0 0,0.226441 -1.540222,0 z"
       style="font-style:normal;font-variant:normal;font-weight:normal;font-stretch:normal;font-family:serif;-inkscape-font-specification:serif"
       id="path4718" />
  </g>
  <g
     transform="matrix(0.946042,0,0,1.0378595,80.755109,-39.5)"
     style="font-style:normal;font-variant:normal;font-weight:bold;font-stretch:normal;font-size:6.02200985px;line-height:125%;font-family:serif;-inkscape-font-specification:'serif Bold';text-align:center;letter-spacing:-0.19270432px;word-spacing:0px;text-anchor:middle;fill:#000000;fill-opacity:1;stroke:none;stroke-width:1px;stroke-linecap:butt;stroke-linejoin:miter;stroke-opacity:1"
     id="text4159-28">
    <path
       d="m 43.19953,73.227646 0,-0.355793 0.558682,0 0,-3.678483 -0.558682,0 0,-0.355793 1.811307,0 1.252625,2.816936 1.258506,-2.816936 1.808368,0 0,0.355793 -0.561623,0 0,3.678483 0.561623,0 0,0.355793 -2.258254,0 0,-0.355793 0.558682,0 0,-3.349155 -1.361421,3.060993 -0.74393,0 -1.35554,-3.060993 0,3.349155 0.558683,0 0,0.355793 -1.529026,0 z"
       style="font-style:normal;font-variant:normal;font-weight:bold;font-stretch:normal;font-size:6.02200985px;font-family:serif;-inkscape-font-specification:'serif Bold'"
       id="path4695" />
  </g>
  <g
     transform="matrix(0.96228876,0,0,1.0391891,79.378084,-39.5)"
     style="font-style:normal;font-variant:normal;font-weight:bold;font-stretch:normal;font-size:4.375px;line-height:125%;font-family:serif;-inkscape-font-specification:'serif Bold';text-align:center;letter-spacing:-0.19245775px;word-spacing:0px;baseline-shift:baseline;text-anchor:middle;fill:#000000;fill-opacity:1;stroke:none;stroke-width:1px;stroke-linecap:butt;stroke-linejoin:miter;stroke-opacity:1"
     id="text4165-8">
    <path
       d="m 51.883221,72.867912 -0.664368,0.969849 0.393066,0 0,0.258484 -1.132202,0 0,-0.258484 0.393067,0 0.839538,-1.219788 -0.997619,-1.452636 -0.292664,0 0,-0.258484 1.585083,0 0,0.258484 -0.350342,0 0.617371,0.897216 0.610962,-0.897216 -0.371704,0 0,-0.258484 1.11084,0 0,0.258484 -0.393067,0 -0.788269,1.145019 1.046753,1.527405 0.301208,0 0,0.258484 -1.591491,0 0,-0.258484 0.354614,0 -0.670776,-0.969849 z"
       style="font-style:normal;font-variant:normal;font-weight:bold;font-stretch:normal;font-size:4.375px;font-family:serif;-inkscape-font-specification:'serif Bold';text-align:start;text-anchor:start"
       id="path4668" />
    <path
       d="m 53.719968,74.971245 0,-0.168015 0.263825,0 0,-1.737076 -0.263825,0 0,-0.168014 0.855347,0 0.591522,1.330231 0.5943,-1.330231 0.853958,0 0,0.168014 -0.265213,0 0,1.737076 0.265213,0 0,0.168015 -1.066407,0 0,-0.168015 0.263825,0 0,-1.581558 -0.642899,1.44548 -0.351303,0 -0.640121,-1.44548 0,1.581558 0.263824,0 0,0.168015 -0.722046,0 z"
       style="font-style:normal;font-variant:normal;font-weight:bold;font-stretch:normal;font-size:64.99999762%;font-family:serif;-inkscape-font-specification:'serif Bold';baseline-shift:sub"
       id="path4670" />
    <path
       d="m 57.507094,74.854607 q 0.155518,0 0.218003,-0.133301 0.06387,-0.133301 0.06387,-0.48877 0,-0.355468 -0.06249,-0.487381 -0.06248,-0.1333 -0.219391,-0.1333 -0.156906,0 -0.220779,0.134689 -0.06387,0.133301 -0.06387,0.485992 0,0.352692 0.06387,0.487381 0.06387,0.13469 0.220779,0.13469 z m 0,0.156906 q -0.390182,0 -0.61235,-0.206894 -0.220779,-0.208283 -0.220779,-0.572083 0,-0.365188 0.220779,-0.570694 0.222168,-0.206894 0.61235,-0.206894 0.391571,0 0.612351,0.206894 0.220779,0.205506 0.220779,0.570694 0,0.3638 -0.222168,0.572083 -0.220779,0.206894 -0.610962,0.206894 z"
       style="font-style:normal;font-variant:normal;font-weight:bold;font-stretch:normal;font-size:64.99999762%;font-family:serif;-inkscape-font-specification:'serif Bold';baseline-shift:sub"
       id="path4672" />
    <path
       d="m 59.48494,74.306129 0,-0.145797 q 0,-0.258271 -0.06665,-0.37352 -0.06665,-0.11525 -0.212448,-0.11525 -0.152741,0 -0.215226,0.122193 -0.0611,0.120803 -0.0611,0.438781 0,0.317978 0.06249,0.440171 0.06249,0.122192 0.213837,0.122192 0.145797,0 0.212448,-0.11525 0.06665,-0.115249 0.06665,-0.37352 z m 0.491547,0.497101 0.209671,0 0,0.168015 -0.701218,0 0,-0.187454 q -0.06249,0.115249 -0.169403,0.17218 -0.10553,0.05554 -0.261047,0.05554 -0.313813,0 -0.494324,-0.208283 -0.179123,-0.208282 -0.179123,-0.570694 0,-0.3638 0.179123,-0.570694 0.180511,-0.206894 0.494324,-0.206894 0.155517,0 0.261047,0.05693 0.106918,0.05554 0.169403,0.170792 l 0,-0.705384 -0.21106,0 0,-0.166626 0.702607,0 0,1.992569 z"
       style="font-style:normal;font-variant:normal;font-weight:bold;font-stretch:normal;font-size:64.99999762%;font-family:serif;-inkscape-font-specification:'serif Bold';baseline-shift:sub"
       id="path4674" />
    <path
       d="m 62.064135,71.353325 0,1.198425 1.198425,0 0,0.34607 -1.198425,0 0,1.198425 -0.341797,0 0,-1.198425 -1.198426,0 0,-0.34607 1.198426,0 0,-1.198425 0.341797,0 z"
       style="font-style:normal;font-variant:normal;font-weight:normal;font-stretch:normal;font-family:serif;-inkscape-font-specification:serif"
       id="path4676" />
    <path
       d="m 64.155307,74.096245 0,-0.226441 0.55542,0 0,-2.653198 -0.643006,0.416565 0,-0.279846 0.777588,-0.504151 0.2948,0 0,3.02063 0.55542,0 0,0.226441 -1.540222,0 z"
       style="font-style:normal;font-variant:normal;font-weight:normal;font-stretch:normal;font-family:serif;-inkscape-font-specification:serif"
       id="path4678" />
    <path
       d="m 66.184529,74.517082 q 0.222168,-0.179443 0.326844,-0.401611 0.104675,-0.222168 0.104675,-0.516968 l 0,-0.183716 0.608826,0 0,0.01709 q 0,0.472107 -0.19867,0.811768 -0.196533,0.341797 -0.606689,0.574646 l -0.234986,-0.301209 z"
       style="font-style:normal;font-variant:normal;font-weight:bold;font-stretch:normal;font-size:4.375px;font-family:serif;-inkscape-font-specification:'serif Bold';text-align:start;text-anchor:start"
       id="path4680" />
    <path
       d="m 68.207342,74.096245 0,-0.258484 0.429382,0 0,-1.061707 -0.948486,-1.610717 -0.271301,0 0,-0.258484 1.529541,0 0,0.258484 -0.354614,0 0.717773,1.215515 0.713501,-1.215515 -0.318298,0 0,-0.258484 0.914306,0 0,0.258484 -0.271301,0 -0.884399,1.499633 0,1.172791 0.429382,0 0,0.258484 -1.685486,0 z"
       style="font-style:normal;font-variant:normal;font-weight:bold;font-stretch:normal;font-size:4.375px;font-family:serif;-inkscape-font-specification:'serif Bold';text-align:start;text-anchor:start"
       id="path4682" />
    <path
       d="m 70.509789,74.971245 0,-0.168015 0.263824,0 0,-1.737076 -0.263824,0 0,-0.168014 0.855346,0 0.591522,1.330231 0.5943,-1.330231 0.853958,0 0,0.168014 -0.265213,0 0,1.737076 0.265213,0 0,0.168015 -1.066406,0 0,-0.168015 0.263824,0 0,-1.581558 -0.642898,1.44548 -0.351304,0 -0.640121,-1.44548 0,1.581558 0.263824,0 0,0.168015 -0.722045,0 z"
       style="font-size:64.99999762%;baseline-shift:sub"
       id="path4684" />
    <path
       d="m 74.296913,74.854607 q 0.155518,0 0.218002,-0.133301 0.06387,-0.133301 0.06387,-0.48877 0,-0.355468 -0.06248,-0.487381 -0.06249,-0.1333 -0.219391,-0.1333 -0.156906,0 -0.220779,0.134689 -0.06387,0.133301 -0.06387,0.485992 0,0.352692 0.06387,0.487381 0.06387,0.13469 0.220779,0.13469 z m 0,0.156906 q -0.390182,0 -0.61235,-0.206894 -0.22078,-0.208283 -0.22078,-0.572083 0,-0.365188 0.22078,-0.570694 0.222168,-0.206894 0.61235,-0.206894 0.391571,0 0.612351,0.206894 0.220779,0.205506 0.220779,0.570694 0,0.3638 -0.222168,0.572083 -0.220779,0.206894 -0.610962,0.206894 z"
       style="font-size:64.99999762%;baseline-shift:sub"
       id="path4686" />
    <path
       d="m 76.274759,74.306129 0,-0.145797 q 0,-0.258271 -0.06665,-0.37352 -0.06665,-0.11525 -0.212448,-0.11525 -0.152741,0 -0.215225,0.122193 -0.0611,0.120803 -0.0611,0.438781 0,0.317978 0.06248,0.440171 0.06248,0.122192 0.213837,0.122192 0.145798,0 0.212448,-0.11525 0.06665,-0.115249 0.06665,-0.37352 z m 0.491547,0.497101 0.209671,0 0,0.168015 -0.701218,0 0,-0.187454 q -0.06248,0.115249 -0.169403,0.17218 -0.10553,0.05554 -0.261047,0.05554 -0.313812,0 -0.494324,-0.208283 -0.179123,-0.208282 -0.179123,-0.570694 0,-0.3638 0.179123,-0.570694 0.180512,-0.206894 0.494324,-0.206894 0.155517,0 0.261047,0.05693 0.106919,0.05554 0.169403,0.170792 l 0,-0.705384 -0.211059,0 0,-0.166626 0.702606,0 0,1.992569 z"
       style="font-size:64.99999762%;baseline-shift:sub"
       id="path4688" />
    <path
       d="m 78.853954,71.353325 0,1.198425 1.198426,0 0,0.34607 -1.198426,0 0,1.198425 -0.341797,0 0,-1.198425 -1.198425,0 0,-0.34607 1.198425,0 0,-1.198425 0.341797,0 z"
       style="font-style:normal;font-variant:normal;font-weight:normal;font-stretch:normal;font-family:serif;-inkscape-font-specification:serif"
       id="path4690" />
    <path
       d="m 80.945127,74.096245 0,-0.226441 0.55542,0 0,-2.653198 -0.643005,0.416565 0,-0.279846 0.777588,-0.504151 0.2948,0 0,3.02063 0.55542,0 0,0.226441 -1.540223,0 z"
       style="font-style:normal;font-variant:normal;font-weight:normal;font-stretch:normal;font-family:serif;-inkscape-font-specification:serif"
       id="path4692" />
  </g>
</svg>
