<?xml version="1.0" encoding="UTF-8" standalone="no"?>
<svg
   xmlns:dc="http://purl.org/dc/elements/1.1/"
   xmlns:cc="http://creativecommons.org/ns#"
   xmlns:rdf="http://www.w3.org/1999/02/22-rdf-syntax-ns#"
   xmlns:svg="http://www.w3.org/2000/svg"
   xmlns="http://www.w3.org/2000/svg"
   width="80.5"
   height="80.5"
   viewBox="0 0 80.500001 80.500001"
   id="svg10296"
   version="1.1">
  <defs
     id="defs10298" />
  <metadata
     id="metadata10301">
    <rdf:RDF>
      <cc:Work
         rdf:about="">
        <dc:format>image/svg+xml</dc:format>
        <dc:type
           rdf:resource="http://purl.org/dc/dcmitype/StillImage" />
        <dc:title></dc:title>
      </cc:Work>
    </rdf:RDF>
  </metadata>
  <path
     id="rect10846"
     d="m 10.000003,0.49999646 0,9.50000044 -9.49999978,0 0,0.5000001 9.49999978,0 0,9.5 -9.49999978,0 0,0.5 9.49999978,0 0,9.5 -9.49999978,0 0,0.5 9.49999978,0 0,9.5 0.5,0 0,-9.5 9.5,0 0,9.5 0.5,0 0,-9.5 9.5,0 0,9.5 0.5,0 0,-9.5 9.5,0 0,-0.5 -9.5,0 0,-9.5 9.5,0 0,-0.5 -9.5,0 0,-9.5 9.5,0 0,-0.5000001 -9.5,0 0,-9.50000044 -0.5,0 0,9.50000044 -9.5,0 0,-9.50000044 -0.5,0 0,9.50000044 -9.5,0 0,-9.50000044 -0.5,0 z m 40,0 0,9.50000044 -9.5,0 0,0.5000001 9.5,0 0,9.5 -9.5,0 0,0.5 9.5,0 0,9.5 -9.5,0 0,0.5 9.5,0 0,9.5 0.5,0 0,-9.5 9.5,0 0,9.5 0.5,0 0,-9.5 9.5,0 0,9.5 0.5,0 0,-9.5 9.5,0 0,-0.5 -9.5,0 0,-9.5 9.5,0 0,-0.5 -9.5,0 0,-9.5 9.5,0 0,-0.5000001 -9.5,0 0,-9.50000044 -0.5,0 0,9.50000044 -9.5,0 0,-9.50000044 -0.5,0 0,9.50000044 -9.5,0 0,-9.50000044 -0.5,0 z m -39.5,10.00000054 9.5,0 0,9.5 -9.5,0 0,-9.5 z m 10,0 9.5,0 0,9.5 -9.5,0 0,-9.5 z m 30,0 9.5,0 0,9.5 -9.5,0 0,-9.5 z m 10,0 9.5,0 0,9.5 -9.5,0 0,-9.5 z m -50,10 9.5,0 0,9.5 -9.5,0 0,-9.5 z m 10,0 9.5,0 0,9.5 -9.5,0 0,-9.5 z m 30,0 9.5,0 0,9.5 -9.5,0 0,-9.5 z m 10,0 9.5,0 0,9.5 -9.5,0 0,-9.5 z m -50.5,20 0,9.5 -9.49999978,0 0,0.5 9.49999978,0 0,9.5 -9.49999978,0 0,0.5 9.49999978,0 0,9.5 -9.49999978,0 0,0.5 9.49999978,0 0,9.5 0.5,0 0,-9.5 9.5,0 0,9.5 0.5,0 0,-9.5 9.5,0 0,9.5 0.5,0 0,-9.5 9.5,0 0,-0.5 -9.5,0 0,-9.5 9.5,0 0,-0.5 -9.5,0 0,-9.5 9.5,0 0,-0.5 -9.5,0 0,-9.5 -0.5,0 0,9.5 -9.5,0 0,-9.5 -0.5,0 0,9.5 -9.5,0 0,-9.5 -0.5,0 z m 40,0 0,9.5 -9.5,0 0,0.5 9.5,0 0,9.5 -9.5,0 0,0.5 9.5,0 0,9.5 -9.5,0 0,0.5 9.5,0 0,9.5 0.5,0 0,-9.5 9.5,0 0,9.5 0.5,0 0,-9.5 9.5,0 0,9.5 0.5,0 0,-9.5 9.5,0 0,-0.5 -9.5,0 0,-9.5 9.5,0 0,-0.5 -9.5,0 0,-9.5 9.5,0 0,-0.5 -9.5,0 0,-9.5 -0.5,0 0,9.5 -9.5,0 0,-9.5 -0.5,0 0,9.5 -9.5,0 0,-9.5 -0.5,0 z m -39.5,10 9.5,0 0,9.5 -9.5,0 0,-9.5 z m 10,0 9.5,0 0,9.5 -9.5,0 0,-9.5 z m 30,0 9.5,0 0,9.5 -9.5,0 0,-9.5 z m 10,0 9.5,0 0,9.5 -9.5,0 0,-9.5 z m -50,10 9.5,0 0,9.5 -9.5,0 0,-9.5 z m 10,0 9.5,0 0,9.5 -9.5,0 0,-9.5 z m 30,0 9.5,0 0,9.5 -9.5,0 0,-9.5 z m 10,0 9.5,0 0,9.5 -9.5,0 0,-9.5 z"
     style="color:#000000;font-style:normal;font-variant:normal;font-weight:normal;font-stretch:normal;font-size:medium;line-height:normal;font-family:sans-serif;text-indent:0;text-align:start;text-decoration:none;text-decoration-line:none;text-decoration-style:solid;text-decoration-color:#000000;letter-spacing:normal;word-spacing:normal;text-transform:none;direction:ltr;block-progression:tb;writing-mode:lr-tb;baseline-shift:baseline;text-anchor:start;white-space:normal;clip-rule:nonzero;display:inline;overflow:visible;visibility:visible;opacity:1;isolation:auto;mix-blend-mode:normal;color-interpolation:sRGB;color-interpolation-filters:linearRGB;solid-color:#000000;solid-opacity:1;fill:#000000;fill-opacity:0.1254902;fill-rule:nonzero;stroke:none;stroke-width:0.5;stroke-linecap:square;stroke-linejoin:round;stroke-miterlimit:4;stroke-dasharray:none;stroke-dashoffset:0;stroke-opacity:1;color-rendering:auto;image-rendering:auto;shape-rendering:auto;text-rendering:auto;enable-background:accumulate" />
  <path
     id="rect11000"
     d="M 0.22461259,-3.5468979e-6 A 0.250025,0.250025 0 0 0 3.2245213e-6,0.24999646 l 0,39.98242254 0,0.01758 0,40 A 0.250025,0.250025 0 0 0 0.25000322,80.499997 l 39.99999978,0 40,0 a 0.250025,0.250025 0 0 0 0.25,-0.25 l 0,-39.982422 a 0.250025,0.250025 0 0 0 0,-0.01758 l 0,-40.00000054 a 0.250025,0.250025 0 0 0 -0.25,-0.2500000068979 l -40,0 -39.99999978,0 a 0.250025,0.250025 0 0 0 -0.0253906,0 z M 0.50000322,0.49999646 l 39.49999978,0 0,39.50000054 -39.49999978,0 0,-39.50000054 z m 39.99999978,0 39.5,0 0,39.50000054 -39.5,0 0,-39.50000054 z M 0.50000322,40.499997 l 39.49999978,0 0,39.5 -39.49999978,0 0,-39.5 z m 39.99999978,0 39.5,0 0,39.5 -39.5,0 0,-39.5 z"
     style="color:#000000;font-style:normal;font-variant:normal;font-weight:normal;font-stretch:normal;font-size:medium;line-height:normal;font-family:sans-serif;text-indent:0;text-align:start;text-decoration:none;text-decoration-line:none;text-decoration-style:solid;text-decoration-color:#000000;letter-spacing:normal;word-spacing:normal;text-transform:none;direction:ltr;block-progression:tb;writing-mode:lr-tb;baseline-shift:baseline;text-anchor:start;white-space:normal;clip-rule:nonzero;display:inline;overflow:visible;visibility:visible;opacity:1;isolation:auto;mix-blend-mode:normal;color-interpolation:sRGB;color-interpolation-filters:linearRGB;solid-color:#000000;solid-opacity:1;fill:#000000;fill-opacity:0.37647059;fill-rule:nonzero;stroke:none;stroke-width:0.5;stroke-linecap:square;stroke-linejoin:round;stroke-miterlimit:4;stroke-dasharray:none;stroke-dashoffset:0;stroke-opacity:1;color-rendering:auto;image-rendering:auto;shape-rendering:auto;text-rendering:auto;enable-background:accumulate" />
  <path
     id="rect11064"
     d="m 19.750003,19.749997 0,1 0.5,0 1,0 0.5,0 0,-1 -0.5,0 -1,0 -0.5,0 z m 4,0 0,1 0.5,0 1,0 0.5,0 0,-1 -0.5,0 -1,0 -0.5,0 z m 4,0 0,1 0.5,0 1,0 0.5,0 0,-1 -0.5,0 -1,0 -0.5,0 z m 4,0 0,1 0.5,0 1,0 0.5,0 0,-1 -0.5,0 -1,0 -0.5,0 z m 4,0 0,1 0.5,0 1,0 0.5,0 0,-1 -0.5,0 -1,0 -0.5,0 z m 4,0 0,0.5 0,1 0,0.5 1,0 0,-0.5 0,-1 0,-0.5 -1,0 z m 3,0 0,1 0.5,0 1,0 0.5,0 0,-1 -0.5,0 -1,0 -0.5,0 z m 4,0 0,1 0.5,0 1,0 0.5,0 0,-1 -0.5,0 -1,0 -0.5,0 z m 4,0 0,1 0.5,0 1,0 0.5,0 0,-1 -0.5,0 -1,0 -0.5,0 z m 4,0 0,1 0.5,0 1,0 0.5,0 0,-1 -0.5,0 -1,0 -0.5,0 z m 4,0 0,1 0.5,0 1,0 0.5,0 0,-1 -0.5,0 -1,0 -0.5,0 z m -39,3 0,0.5 0,1 0,0.5 1,0 0,-0.5 0,-1 0,-0.5 -1,0 z m 40,0 0,0.5 0,1 0,0.5 1,0 0,-0.5 0,-1 0,-0.5 -1,0 z m -20,1 0,0.5 0,1 0,0.5 1,0 0,-0.5 0,-1 0,-0.5 -1,0 z m -20,3 0,0.5 0,1 0,0.5 1,0 0,-0.5 0,-1 0,-0.5 -1,0 z m 40,0 0,0.5 0,1 0,0.5 1,0 0,-0.5 0,-1 0,-0.5 -1,0 z m -20,1 0,0.5 0,1 0,0.5 1,0 0,-0.5 0,-1 0,-0.5 -1,0 z m -20,3 0,0.5 0,1 0,0.5 1,0 0,-0.5 0,-1 0,-0.5 -1,0 z m 40,0 0,0.5 0,1 0,0.5 1,0 0,-0.5 0,-1 0,-0.5 -1,0 z m -20,1 0,0.5 0,1 0,0.5 1,0 0,-0.5 0,-1 0,-0.5 -1,0 z m -20,3 0,0.5 0,1 0,0.5 1,0 0,-0.5 0,-1 0,-0.5 -1,0 z m 40,0 0,0.5 0,1 0,0.5 1,0 0,-0.5 0,-1 0,-0.5 -1,0 z m -20,1 0,0.5 0,1 0,0.5 1,0 0,-0.5 0,-1 0,-0.5 -1,0 z m -20,3 0,0.5 0,0.5 0,0.5 0,0.5 0,0.5 0,0.5 1,0 0,-0.5 0,-0.5 0,-0.5 0,-0.5 0,-0.5 0,-0.5 -1,0 z m 40,0 0,0.5 0,0.5 0,0.5 0,0.5 0,0.5 0,0.5 1,0 0,-0.5 0,-0.5 0,-0.5 0,-0.5 0,-0.5 0,-0.5 -1,0 z m -37,1 0,1 0.5,0 1,0 0.5,0 0,-1 -0.5,0 -1,0 -0.5,0 z m 4,0 0,1 0.5,0 1,0 0.5,0 0,-1 -0.5,0 -1,0 -0.5,0 z m 4,0 0,1 0.5,0 1,0 0.5,0 0,-1 -0.5,0 -1,0 -0.5,0 z m 4,0 0,1 0.5,0 1,0 0.5,0 0,-1 -0.5,0 -1,0 -0.5,0 z m 4,0 0,1 0.5,0 0.5,0 0.5,0 0.5,0 0.5,0 0.5,0 0,-1 -0.5,0 -0.5,0 -0.5,0 -0.5,0 -0.5,0 -0.5,0 z m 5,0 0,1 0.5,0 1,0 0.5,0 0,-1 -0.5,0 -1,0 -0.5,0 z m 4,0 0,1 0.5,0 1,0 0.5,0 0,-1 -0.5,0 -1,0 -0.5,0 z m 4,0 0,1 0.5,0 1,0 0.5,0 0,-1 -0.5,0 -1,0 -0.5,0 z m 4,0 0,1 0.5,0 1,0 0.5,0 0,-1 -0.5,0 -1,0 -0.5,0 z m -16,3 0,0.5 0,1 0,0.5 1,0 0,-0.5 0,-1 0,-0.5 -1,0 z m -20,1 0,0.5 0,1 0,0.5 1,0 0,-0.5 0,-1 0,-0.5 -1,0 z m 40,0 0,0.5 0,1 0,0.5 1,0 0,-0.5 0,-1 0,-0.5 -1,0 z m -20,3 0,0.5 0,1 0,0.5 1,0 0,-0.5 0,-1 0,-0.5 -1,0 z m -20,1 0,0.5 0,1 0,0.5 1,0 0,-0.5 0,-1 0,-0.5 -1,0 z m 40,0 0,0.5 0,1 0,0.5 1,0 0,-0.5 0,-1 0,-0.5 -1,0 z m -20,3 0,0.5 0,1 0,0.5 1,0 0,-0.5 0,-1 0,-0.5 -1,0 z m -20,1 0,0.5 0,1 0,0.5 1,0 0,-0.5 0,-1 0,-0.5 -1,0 z m 40,0 0,0.5 0,1 0,0.5 1,0 0,-0.5 0,-1 0,-0.5 -1,0 z m -20,3 0,0.5 0,1 0,0.5 1,0 0,-0.5 0,-1 0,-0.5 -1,0 z m -20,1 0,0.5 0,1 0,0.5 1,0 0,-0.5 0,-1 0,-0.5 -1,0 z m 40,0 0,0.5 0,1 0,0.5 1,0 0,-0.5 0,-1 0,-0.5 -1,0 z m -20,3 0,0.5 0,1 0,0.5 1,0 0,-0.5 0,-1 0,-0.5 -1,0 z m -20,1 0,1 0.5,0 1,0 0.5,0 0,-1 -0.5,0 -1,0 -0.5,0 z m 4,0 0,1 0.5,0 1,0 0.5,0 0,-1 -0.5,0 -1,0 -0.5,0 z m 4,0 0,1 0.5,0 1,0 0.5,0 0,-1 -0.5,0 -1,0 -0.5,0 z m 4,0 0,1 0.5,0 1,0 0.5,0 0,-1 -0.5,0 -1,0 -0.5,0 z m 4,0 0,1 0.5,0 1,0 0.5,0 0,-1 -0.5,0 -1,0 -0.5,0 z m 7,0 0,1 0.5,0 1,0 0.5,0 0,-1 -0.5,0 -1,0 -0.5,0 z m 4,0 0,1 0.5,0 1,0 0.5,0 0,-1 -0.5,0 -1,0 -0.5,0 z m 4,0 0,1 0.5,0 1,0 0.5,0 0,-1 -0.5,0 -1,0 -0.5,0 z m 4,0 0,1 0.5,0 1,0 0.5,0 0,-1 -0.5,0 -1,0 -0.5,0 z m 4,0 0,1 0.5,0 1,0 0.5,0 0,-1 -0.5,0 -1,0 -0.5,0 z"
     style="color:#000000;font-style:normal;font-variant:normal;font-weight:normal;font-stretch:normal;font-size:medium;line-height:normal;font-family:sans-serif;text-indent:0;text-align:start;text-decoration:none;text-decoration-line:none;text-decoration-style:solid;text-decoration-color:#000000;letter-spacing:normal;word-spacing:normal;text-transform:none;direction:ltr;block-progression:tb;writing-mode:lr-tb;baseline-shift:baseline;text-anchor:start;white-space:normal;clip-rule:nonzero;display:inline;overflow:visible;visibility:visible;opacity:1;isolation:auto;mix-blend-mode:normal;color-interpolation:sRGB;color-interpolation-filters:linearRGB;solid-color:#000000;solid-opacity:1;fill:#ff0000;fill-opacity:1;fill-rule:nonzero;stroke:none;stroke-width:1;stroke-linecap:square;stroke-linejoin:round;stroke-miterlimit:4;stroke-dasharray:1, 3;stroke-dashoffset:0;stroke-opacity:1;color-rendering:auto;image-rendering:auto;shape-rendering:auto;text-rendering:auto;enable-background:accumulate" />
  <g
     id="text4159"
     style="font-style:normal;font-variant:normal;font-weight:bold;font-stretch:normal;font-size:6.0691452px;line-height:125%;font-family:serif;-inkscape-font-specification:'serif Bold';text-align:center;letter-spacing:-0.19421265px;word-spacing:0px;text-anchor:middle;fill:#000000;fill-opacity:1;stroke:none;stroke-width:1px;stroke-linecap:butt;stroke-linejoin:miter;stroke-opacity:1"
     transform="matrix(0.93869446,0,0,1.029799,0.04672557,0)">
    <path
       id="path4769"
       style="font-style:normal;font-variant:normal;font-weight:bold;font-stretch:normal;font-size:6.0691452px;font-family:serif;-inkscape-font-specification:'serif Bold'"
       d="m 1.4435366,5.826376 0,-0.3585775 0.5630555,0 0,-3.7072757 -0.5630555,0 0,-0.3585774 1.8254851,0 1.2624296,2.8389849 1.2683565,-2.8389849 1.8225217,0 0,0.3585774 -0.566019,0 0,3.7072757 0.566019,0 0,0.3585775 -2.2759295,0 0,-0.3585775 0.5630555,0 0,-3.3753693 -1.3720773,3.0849513 -0.7497528,0 -1.3661504,-3.0849513 0,3.3753693 0.5630555,0 0,0.3585775 -1.5409939,0 z" />
  </g>
  <g
     id="text4165"
     style="font-style:normal;font-variant:normal;font-weight:bold;font-stretch:normal;font-size:4.375px;line-height:125%;font-family:serif;-inkscape-font-specification:'serif Bold';text-align:center;letter-spacing:-0.19245775px;word-spacing:0px;baseline-shift:baseline;text-anchor:middle;fill:#000000;fill-opacity:1;stroke:none;stroke-width:1px;stroke-linecap:butt;stroke-linejoin:miter;stroke-opacity:1"
     transform="matrix(0.96228876,0,0,1.0391891,-0.94491551,0)">
    <path
       id="path4750"
       style="font-style:normal;font-variant:normal;font-weight:bold;font-stretch:normal;font-size:4.375px;font-family:serif;-inkscape-font-specification:'serif Bold';text-align:start;text-anchor:start"
       d="m 10.420982,5.5076847 -0.6643673,0.9698486 0.3930663,0 0,0.2584839 -1.1322021,0 0,-0.2584839 0.3930664,0 0.8395387,-1.2197876 -0.9976197,-1.4526367 -0.2926636,0 0,-0.2584839 1.5850833,0 0,0.2584839 -0.350342,0 0.617371,0.8972168 0.610961,-0.8972168 -0.371704,0 0,-0.2584839 1.11084,0 0,0.2584839 -0.393066,0 -0.788269,1.1450196 1.046753,1.5274047 0.301208,0 0,0.2584839 -1.591492,0 0,-0.2584839 0.354615,0 -0.670777,-0.9698486 z" />
    <path
       id="path4752"
       style="font-style:normal;font-variant:normal;font-weight:bold;font-stretch:normal;font-size:64.99999762%;font-family:serif;-inkscape-font-specification:'serif Bold';baseline-shift:sub"
       d="m 12.25773,7.6110172 0,-0.1680145 0.263824,0 0,-1.7370758 -0.263824,0 0,-0.1680145 0.855347,0 0.591522,1.3302307 0.594299,-1.3302307 0.853958,0 0,0.1680145 -0.265213,0 0,1.7370758 0.265213,0 0,0.1680145 -1.066406,0 0,-0.1680145 0.263825,0 0,-1.5815582 -0.642899,1.4454803 -0.351303,0 -0.640122,-1.4454803 0,1.5815582 0.263825,0 0,0.1680145 -0.722046,0 z" />
    <path
       id="path4754"
       style="font-style:normal;font-variant:normal;font-weight:bold;font-stretch:normal;font-size:64.99999762%;font-family:serif;-inkscape-font-specification:'serif Bold';baseline-shift:sub"
       d="m 16.044856,7.494379 q 0.155518,0 0.218002,-0.1333007 0.06387,-0.1333008 0.06387,-0.4887696 0,-0.3554687 -0.06248,-0.487381 -0.06249,-0.1333007 -0.219391,-0.1333007 -0.156906,0 -0.220779,0.1346893 -0.06387,0.1333008 -0.06387,0.4859924 0,0.3526917 0.06387,0.487381 0.06387,0.1346893 0.220779,0.1346893 z m 0,0.1569062 q -0.390182,0 -0.61235,-0.2068939 -0.22078,-0.2082825 -0.22078,-0.5720826 0,-0.3651886 0.22078,-0.5706939 0.222168,-0.206894 0.61235,-0.206894 0.391571,0 0.612351,0.206894 0.220779,0.2055053 0.220779,0.5706939 0,0.3638001 -0.222168,0.5720826 -0.220779,0.2068939 -0.610962,0.2068939 z" />
    <path
       id="path4756"
       style="font-style:normal;font-variant:normal;font-weight:bold;font-stretch:normal;font-size:64.99999762%;font-family:serif;-inkscape-font-specification:'serif Bold';baseline-shift:sub"
       d="m 18.022702,6.9459019 0,-0.1457978 q 0,-0.2582702 -0.06665,-0.3735199 -0.06665,-0.1152496 -0.212448,-0.1152496 -0.15274,0 -0.215225,0.1221924 -0.0611,0.1208038 -0.0611,0.4387817 0,0.3179779 0.06248,0.4401703 0.06248,0.1221924 0.213836,0.1221924 0.145798,0 0.212448,-0.1152496 0.06665,-0.1152497 0.06665,-0.3735199 z m 0.491546,0.4971008 0.209671,0 0,0.1680145 -0.701217,0 0,-0.1874542 q -0.06248,0.1152496 -0.169403,0.1721802 -0.10553,0.055542 -0.261048,0.055542 -0.313812,0 -0.494323,-0.2082825 -0.179123,-0.2082825 -0.179123,-0.570694 0,-0.3638 0.179123,-0.5706939 0.180511,-0.206894 0.494323,-0.206894 0.155518,0 0.261048,0.056931 0.106918,0.055542 0.169403,0.1707916 l 0,-0.7053833 -0.21106,0 0,-0.166626 0.702606,0 0,1.992569 z" />
    <path
       id="path4758"
       style="font-style:normal;font-variant:normal;font-weight:bold;font-stretch:normal;font-size:4.375px;font-family:serif;-inkscape-font-specification:'serif Bold';text-align:start;text-anchor:start"
       d="m 18.65579,7.1568546 q 0.222168,-0.1794433 0.326844,-0.4016113 0.104675,-0.222168 0.104675,-0.5169678 l 0,-0.1837158 0.608826,0 0,0.01709 q 0,0.4721069 -0.19867,0.8117675 -0.196533,0.3417969 -0.606689,0.574646 L 18.65579,7.1568546 Z" />
    <path
       id="path4760"
       style="font-style:normal;font-variant:normal;font-weight:bold;font-stretch:normal;font-size:4.375px;font-family:serif;-inkscape-font-specification:'serif Bold';text-align:start;text-anchor:start"
       d="m 20.678603,6.7360172 0,-0.2584839 0.429382,0 0,-1.0617065 -0.948486,-1.6107178 -0.271301,0 0,-0.2584839 1.529541,0 0,0.2584839 -0.354614,0 0.717773,1.2155152 0.713501,-1.2155152 -0.318298,0 0,-0.2584839 0.914306,0 0,0.2584839 -0.271301,0 -0.884399,1.4996338 0,1.1727905 0.429382,0 0,0.2584839 -1.685486,0 z" />
    <path
       id="path4762"
       style="font-size:64.99999762%;baseline-shift:sub"
       d="m 22.98105,7.6110172 0,-0.1680145 0.263824,0 0,-1.7370758 -0.263824,0 0,-0.1680145 0.855346,0 0.591522,1.3302307 0.5943,-1.3302307 0.853958,0 0,0.1680145 -0.265213,0 0,1.7370758 0.265213,0 0,0.1680145 -1.066406,0 0,-0.1680145 0.263824,0 0,-1.5815582 -0.642898,1.4454803 -0.351304,0 -0.640121,-1.4454803 0,1.5815582 0.263824,0 0,0.1680145 -0.722045,0 z" />
    <path
       id="path4764"
       style="font-size:64.99999762%;baseline-shift:sub"
       d="m 26.768175,7.494379 q 0.155518,0 0.218002,-0.1333007 0.06387,-0.1333008 0.06387,-0.4887696 0,-0.3554687 -0.06248,-0.487381 -0.06249,-0.1333007 -0.219391,-0.1333007 -0.156906,0 -0.220779,0.1346893 -0.06387,0.1333008 -0.06387,0.4859924 0,0.3526917 0.06387,0.487381 0.06387,0.1346893 0.220779,0.1346893 z m 0,0.1569062 q -0.390182,0 -0.61235,-0.2068939 -0.22078,-0.2082825 -0.22078,-0.5720826 0,-0.3651886 0.22078,-0.5706939 0.222168,-0.206894 0.61235,-0.206894 0.391571,0 0.612351,0.206894 0.220779,0.2055053 0.220779,0.5706939 0,0.3638001 -0.222168,0.5720826 -0.220779,0.2068939 -0.610962,0.2068939 z" />
    <path
       id="path4766"
       style="font-size:64.99999762%;baseline-shift:sub"
       d="m 28.746021,6.9459019 0,-0.1457978 q 0,-0.2582702 -0.06665,-0.3735199 -0.06665,-0.1152496 -0.212448,-0.1152496 -0.152741,0 -0.215225,0.1221924 -0.0611,0.1208038 -0.0611,0.4387817 0,0.3179779 0.06248,0.4401703 0.06248,0.1221924 0.213837,0.1221924 0.145797,0 0.212448,-0.1152496 0.06665,-0.1152497 0.06665,-0.3735199 z m 0.491547,0.4971008 0.209671,0 0,0.1680145 -0.701218,0 0,-0.1874542 q -0.06248,0.1152496 -0.169403,0.1721802 -0.10553,0.055542 -0.261047,0.055542 -0.313812,0 -0.494324,-0.2082825 -0.179123,-0.2082825 -0.179123,-0.570694 0,-0.3638 0.179123,-0.5706939 0.180512,-0.206894 0.494324,-0.206894 0.155517,0 0.261047,0.056931 0.106919,0.055542 0.169403,0.1707916 l 0,-0.7053833 -0.211059,0 0,-0.166626 0.702606,0 0,1.992569 z" />
  </g>
  <g
     id="text4159-6"
     style="font-style:normal;font-variant:normal;font-weight:bold;font-stretch:normal;font-size:6.02200985px;line-height:125%;font-family:serif;-inkscape-font-specification:'serif Bold';text-align:center;letter-spacing:-0.19270432px;word-spacing:0px;text-anchor:middle;fill:#000000;fill-opacity:1;stroke:none;stroke-width:1px;stroke-linecap:butt;stroke-linejoin:miter;stroke-opacity:1"
     transform="matrix(0.946042,0,0,1.0378595,0.75510856,0)">
    <path
       id="path4747"
       style="font-style:normal;font-variant:normal;font-weight:bold;font-stretch:normal;font-size:6.02200985px;font-family:serif;-inkscape-font-specification:'serif Bold'"
       d="m 43.19953,5.7811356 0,-0.3557926 0.558682,0 0,-3.6784836 -0.558682,0 0,-0.3557925 1.811307,0 1.252625,2.8169362 1.258506,-2.8169362 1.808368,0 0,0.3557925 -0.561623,0 0,3.6784836 0.561623,0 0,0.3557926 -2.258254,0 0,-0.3557926 0.558682,0 0,-3.3491549 -1.361421,3.0609923 -0.74393,0 -1.35554,-3.0609923 0,3.3491549 0.558683,0 0,0.3557926 -1.529026,0 z" />
  </g>
  <g
     id="text4165-0"
     style="font-style:normal;font-variant:normal;font-weight:bold;font-stretch:normal;font-size:4.375px;line-height:125%;font-family:serif;-inkscape-font-specification:'serif Bold';text-align:center;letter-spacing:-0.19245775px;word-spacing:0px;baseline-shift:baseline;text-anchor:middle;fill:#000000;fill-opacity:1;stroke:none;stroke-width:1px;stroke-linecap:butt;stroke-linejoin:miter;stroke-opacity:1"
     transform="matrix(0.96228876,0,0,1.0391891,-0.62191551,0)">
    <path
       id="path4724"
       style="font-style:normal;font-variant:normal;font-weight:bold;font-stretch:normal;font-size:4.375px;font-family:serif;-inkscape-font-specification:'serif Bold';text-align:start;text-anchor:start"
       d="m 51.883224,5.5076952 -0.664367,0.9698486 0.393066,0 0,0.2584839 -1.132202,0 0,-0.2584839 0.393066,0 0.839539,-1.2197876 -0.99762,-1.4526367 -0.292663,0 0,-0.2584839 1.585083,0 0,0.2584839 -0.350342,0 0.617371,0.8972168 0.610962,-0.8972168 -0.371705,0 0,-0.2584839 1.11084,0 0,0.2584839 -0.393066,0 -0.788269,1.1450195 1.046753,1.5274048 0.301208,0 0,0.2584839 -1.591491,0 0,-0.2584839 0.354614,0 -0.670777,-0.9698486 z" />
    <path
       id="path4726"
       style="font-style:normal;font-variant:normal;font-weight:bold;font-stretch:normal;font-size:64.99999762%;font-family:serif;-inkscape-font-specification:'serif Bold';baseline-shift:sub"
       d="m 53.719972,7.6110277 0,-0.1680145 0.263825,0 0,-1.7370758 -0.263825,0 0,-0.1680145 0.855347,0 0.591522,1.3302307 0.594299,-1.3302307 0.853958,0 0,0.1680145 -0.265213,0 0,1.7370758 0.265213,0 0,0.1680145 -1.066406,0 0,-0.1680145 0.263825,0 0,-1.5815582 -0.642899,1.4454803 -0.351303,0 -0.640121,-1.4454803 0,1.5815582 0.263824,0 0,0.1680145 -0.722046,0 z" />
    <path
       id="path4728"
       style="font-style:normal;font-variant:normal;font-weight:bold;font-stretch:normal;font-size:64.99999762%;font-family:serif;-inkscape-font-specification:'serif Bold';baseline-shift:sub"
       d="m 57.507098,7.4943895 q 0.155518,0 0.218003,-0.1333007 0.06387,-0.1333008 0.06387,-0.4887696 0,-0.3554687 -0.06249,-0.487381 -0.06249,-0.1333007 -0.219391,-0.1333007 -0.156906,0 -0.220779,0.1346893 -0.06387,0.1333008 -0.06387,0.4859924 0,0.3526917 0.06387,0.487381 0.06387,0.1346893 0.220779,0.1346893 z m 0,0.1569062 q -0.390182,0 -0.61235,-0.206894 -0.22078,-0.2082824 -0.22078,-0.5720825 0,-0.3651886 0.22078,-0.5706939 0.222168,-0.206894 0.61235,-0.206894 0.391571,0 0.612351,0.206894 0.220779,0.2055053 0.220779,0.5706939 0,0.3638001 -0.222168,0.5720825 -0.220779,0.206894 -0.610962,0.206894 z" />
    <path
       id="path4730"
       style="font-style:normal;font-variant:normal;font-weight:bold;font-stretch:normal;font-size:64.99999762%;font-family:serif;-inkscape-font-specification:'serif Bold';baseline-shift:sub"
       d="m 59.484944,6.9459124 0,-0.1457978 q 0,-0.2582702 -0.06665,-0.3735199 -0.06665,-0.1152496 -0.212448,-0.1152496 -0.15274,0 -0.215225,0.1221924 -0.0611,0.1208038 -0.0611,0.4387817 0,0.3179779 0.06249,0.4401703 0.06248,0.1221924 0.213836,0.1221924 0.145798,0 0.212448,-0.1152496 0.06665,-0.1152497 0.06665,-0.3735199 z m 0.491546,0.4971008 0.209672,0 0,0.1680145 -0.701218,0 0,-0.1874542 q -0.06248,0.1152496 -0.169403,0.1721802 -0.10553,0.055542 -0.261048,0.055542 -0.313812,0 -0.494323,-0.2082825 -0.179123,-0.2082825 -0.179123,-0.570694 0,-0.3638 0.179123,-0.5706939 0.180511,-0.206894 0.494323,-0.206894 0.155518,0 0.261048,0.056931 0.106918,0.055542 0.169403,0.1707916 l 0,-0.7053833 -0.21106,0 0,-0.166626 0.702606,0 0,1.992569 z" />
    <path
       id="path4732"
       style="font-style:normal;font-variant:normal;font-weight:normal;font-stretch:normal;font-family:serif;-inkscape-font-specification:serif"
       d="m 62.064138,3.9931078 0,1.1984253 1.198426,0 0,0.3460693 -1.198426,0 0,1.1984253 -0.341796,0 0,-1.1984253 -1.198426,0 0,-0.3460693 1.198426,0 0,-1.1984253 0.341796,0 z" />
    <path
       id="path4734"
       style="font-style:normal;font-variant:normal;font-weight:normal;font-stretch:normal;font-family:serif;-inkscape-font-specification:serif"
       d="m 64.155311,6.7360277 0,-0.2264404 0.55542,0 0,-2.6531983 -0.643006,0.416565 0,-0.2798462 0.777588,-0.5041504 0.2948,0 0,3.0206299 0.55542,0 0,0.2264404 -1.540222,0 z" />
    <path
       id="path4736"
       style="font-style:normal;font-variant:normal;font-weight:bold;font-stretch:normal;font-size:4.375px;font-family:serif;-inkscape-font-specification:'serif Bold';text-align:start;text-anchor:start"
       d="m 66.184533,7.1568651 q 0.222168,-0.1794433 0.326843,-0.4016113 0.104676,-0.222168 0.104676,-0.5169678 l 0,-0.1837158 0.608825,0 0,0.01709 q 0,0.472107 -0.198669,0.8117676 -0.196533,0.3417969 -0.60669,0.574646 L 66.184533,7.1568651 Z" />
    <path
       id="path4738"
       style="font-style:normal;font-variant:normal;font-weight:bold;font-stretch:normal;font-size:4.375px;font-family:serif;-inkscape-font-specification:'serif Bold';text-align:start;text-anchor:start"
       d="m 68.207346,6.7360277 0,-0.2584839 0.429382,0 0,-1.0617065 -0.948486,-1.6107178 -0.271301,0 0,-0.2584839 1.529541,0 0,0.2584839 -0.354615,0 0.717774,1.2155152 0.713501,-1.2155152 -0.318298,0 0,-0.2584839 0.914306,0 0,0.2584839 -0.271301,0 -0.8844,1.4996338 0,1.1727905 0.429383,0 0,0.2584839 -1.685486,0 z" />
    <path
       id="path4740"
       style="font-size:64.99999762%;baseline-shift:sub"
       d="m 70.509792,7.6110277 0,-0.1680145 0.263825,0 0,-1.7370758 -0.263825,0 0,-0.1680145 0.855347,0 0.591522,1.3302307 0.5943,-1.3302307 0.853958,0 0,0.1680145 -0.265213,0 0,1.7370758 0.265213,0 0,0.1680145 -1.066407,0 0,-0.1680145 0.263825,0 0,-1.5815582 -0.642899,1.4454803 -0.351303,0 -0.640121,-1.4454803 0,1.5815582 0.263824,0 0,0.1680145 -0.722046,0 z" />
    <path
       id="path4742"
       style="font-size:64.99999762%;baseline-shift:sub"
       d="m 74.296917,7.4943895 q 0.155518,0 0.218002,-0.1333007 0.06387,-0.1333008 0.06387,-0.4887696 0,-0.3554687 -0.06249,-0.487381 -0.06248,-0.1333007 -0.219391,-0.1333007 -0.156906,0 -0.220779,0.1346893 -0.06387,0.1333008 -0.06387,0.4859924 0,0.3526917 0.06387,0.487381 0.06387,0.1346893 0.220779,0.1346893 z m 0,0.1569062 q -0.390183,0 -0.612351,-0.206894 -0.220779,-0.2082824 -0.220779,-0.5720825 0,-0.3651886 0.220779,-0.5706939 0.222168,-0.206894 0.612351,-0.206894 0.391571,0 0.61235,0.206894 0.22078,0.2055053 0.22078,0.5706939 0,0.3638001 -0.222168,0.5720825 -0.22078,0.206894 -0.610962,0.206894 z" />
    <path
       id="path4744"
       style="font-size:64.99999762%;baseline-shift:sub"
       d="m 76.274763,6.9459124 0,-0.1457978 q 0,-0.2582702 -0.06665,-0.3735199 -0.06665,-0.1152496 -0.212448,-0.1152496 -0.152741,0 -0.215226,0.1221924 -0.0611,0.1208038 -0.0611,0.4387817 0,0.3179779 0.06249,0.4401703 0.06248,0.1221924 0.213837,0.1221924 0.145797,0 0.212448,-0.1152496 0.06665,-0.1152497 0.06665,-0.3735199 z m 0.491547,0.4971008 0.209671,0 0,0.1680145 -0.701218,0 0,-0.1874542 q -0.06248,0.1152496 -0.169403,0.1721802 -0.10553,0.055542 -0.261047,0.055542 -0.313813,0 -0.494324,-0.2082825 -0.179123,-0.2082825 -0.179123,-0.570694 0,-0.3638 0.179123,-0.5706939 0.180511,-0.206894 0.494324,-0.206894 0.155517,0 0.261047,0.056931 0.106918,0.055542 0.169403,0.1707916 l 0,-0.7053833 -0.211059,0 0,-0.166626 0.702606,0 0,1.992569 z" />
  </g>
  <g
     id="text4159-2"
     style="font-style:normal;font-variant:normal;font-weight:bold;font-stretch:normal;font-size:6.0691452px;line-height:125%;font-family:serif;-inkscape-font-specification:'serif Bold';text-align:center;letter-spacing:-0.19421265px;word-spacing:0px;text-anchor:middle;fill:#000000;fill-opacity:1;stroke:none;stroke-width:1px;stroke-linecap:butt;stroke-linejoin:miter;stroke-opacity:1"
     transform="matrix(0.93869446,0,0,1.029799,0.04672557,0)">
    <path
       id="path4721"
       style="font-style:normal;font-variant:normal;font-weight:bold;font-stretch:normal;font-size:6.0691452px;font-family:serif;-inkscape-font-specification:'serif Bold'"
       d="m 1.443538,73.800797 0,-0.358578 0.5630555,0 0,-3.707276 -0.5630555,0 0,-0.358577 1.8254851,0 1.2624296,2.838985 1.2683566,-2.838985 1.8225216,0 0,0.358577 -0.5660189,0 0,3.707276 0.5660189,0 0,0.358578 -2.2759295,0 0,-0.358578 0.5630555,0 0,-3.375369 -1.3720773,3.084951 -0.7497528,0 -1.3661503,-3.084951 0,3.375369 0.5630554,0 0,0.358578 -1.5409939,0 z" />
  </g>
  <g
     id="text4165-5"
     style="font-style:normal;font-variant:normal;font-weight:bold;font-stretch:normal;font-size:4.375px;line-height:125%;font-family:serif;-inkscape-font-specification:'serif Bold';text-align:center;letter-spacing:-0.19245775px;word-spacing:0px;baseline-shift:baseline;text-anchor:middle;fill:#000000;fill-opacity:1;stroke:none;stroke-width:1px;stroke-linecap:butt;stroke-linejoin:miter;stroke-opacity:1"
     transform="matrix(0.96228876,0,0,1.0391891,-0.94491551,0)">
    <path
       id="path4698"
       style="font-style:normal;font-variant:normal;font-weight:bold;font-stretch:normal;font-size:4.375px;font-family:serif;-inkscape-font-specification:'serif Bold';text-align:start;text-anchor:start"
       d="m 10.420982,72.867897 -0.6643673,0.969849 0.3930663,0 0,0.258484 -1.1322021,0 0,-0.258484 0.3930664,0 0.8395387,-1.219788 -0.9976197,-1.452637 -0.2926636,0 0,-0.258484 1.5850833,0 0,0.258484 -0.350342,0 0.617371,0.897217 0.610961,-0.897217 -0.371704,0 0,-0.258484 1.11084,0 0,0.258484 -0.393066,0 -0.788269,1.14502 1.046753,1.527405 0.301208,0 0,0.258484 -1.591492,0 0,-0.258484 0.354615,0 -0.670777,-0.969849 z" />
    <path
       id="path4700"
       style="font-style:normal;font-variant:normal;font-weight:bold;font-stretch:normal;font-size:64.99999762%;font-family:serif;-inkscape-font-specification:'serif Bold';baseline-shift:sub"
       d="m 12.25773,74.97123 0,-0.168015 0.263824,0 0,-1.737076 -0.263824,0 0,-0.168014 0.855347,0 0.591522,1.33023 0.594299,-1.33023 0.853958,0 0,0.168014 -0.265213,0 0,1.737076 0.265213,0 0,0.168015 -1.066406,0 0,-0.168015 0.263825,0 0,-1.581558 -0.642899,1.44548 -0.351303,0 -0.640122,-1.44548 0,1.581558 0.263825,0 0,0.168015 -0.722046,0 z" />
    <path
       id="path4702"
       style="font-style:normal;font-variant:normal;font-weight:bold;font-stretch:normal;font-size:64.99999762%;font-family:serif;-inkscape-font-specification:'serif Bold';baseline-shift:sub"
       d="m 16.044856,74.854591 q 0.155518,0 0.218002,-0.1333 0.06387,-0.133301 0.06387,-0.48877 0,-0.355469 -0.06248,-0.487381 -0.06249,-0.133301 -0.219391,-0.133301 -0.156906,0 -0.220779,0.13469 -0.06387,0.1333 -0.06387,0.485992 0,0.352692 0.06387,0.487381 0.06387,0.134689 0.220779,0.134689 z m 0,0.156906 q -0.390182,0 -0.61235,-0.206893 -0.22078,-0.208283 -0.22078,-0.572083 0,-0.365189 0.22078,-0.570694 0.222168,-0.206894 0.61235,-0.206894 0.391571,0 0.612351,0.206894 0.220779,0.205505 0.220779,0.570694 0,0.3638 -0.222168,0.572083 -0.220779,0.206893 -0.610962,0.206893 z" />
    <path
       id="path4704"
       style="font-style:normal;font-variant:normal;font-weight:bold;font-stretch:normal;font-size:64.99999762%;font-family:serif;-inkscape-font-specification:'serif Bold';baseline-shift:sub"
       d="m 18.022702,74.306114 0,-0.145798 q 0,-0.25827 -0.06665,-0.373519 -0.06665,-0.11525 -0.212448,-0.11525 -0.15274,0 -0.215225,0.122192 -0.0611,0.120804 -0.0611,0.438782 0,0.317978 0.06248,0.44017 0.06248,0.122193 0.213836,0.122193 0.145798,0 0.212448,-0.11525 0.06665,-0.11525 0.06665,-0.37352 z m 0.491546,0.497101 0.209671,0 0,0.168015 -0.701217,0 0,-0.187455 q -0.06248,0.11525 -0.169403,0.172181 -0.10553,0.05554 -0.261048,0.05554 -0.313812,0 -0.494323,-0.208282 -0.179123,-0.208282 -0.179123,-0.570694 0,-0.3638 0.179123,-0.570694 0.180511,-0.206894 0.494323,-0.206894 0.155518,0 0.261048,0.05693 0.106918,0.05554 0.169403,0.170791 l 0,-0.705383 -0.21106,0 0,-0.166626 0.702606,0 0,1.992569 z" />
    <path
       id="path4706"
       style="font-style:normal;font-variant:normal;font-weight:bold;font-stretch:normal;font-size:4.375px;font-family:serif;-inkscape-font-specification:'serif Bold';text-align:start;text-anchor:start"
       d="m 18.65579,74.517067 q 0.222168,-0.179443 0.326844,-0.401611 0.104675,-0.222168 0.104675,-0.516968 l 0,-0.183716 0.608826,0 0,0.01709 q 0,0.472107 -0.19867,0.811767 -0.196533,0.341797 -0.606689,0.574646 L 18.65579,74.517067 Z" />
    <path
       id="path4708"
       style="font-style:normal;font-variant:normal;font-weight:bold;font-stretch:normal;font-size:4.375px;font-family:serif;-inkscape-font-specification:'serif Bold';text-align:start;text-anchor:start"
       d="m 20.678603,74.09623 0,-0.258484 0.429382,0 0,-1.061707 -0.948486,-1.610718 -0.271301,0 0,-0.258484 1.529541,0 0,0.258484 -0.354614,0 0.717773,1.215515 0.713501,-1.215515 -0.318298,0 0,-0.258484 0.914306,0 0,0.258484 -0.271301,0 -0.884399,1.499634 0,1.172791 0.429382,0 0,0.258484 -1.685486,0 z" />
    <path
       id="path4710"
       style="font-size:64.99999762%;baseline-shift:sub"
       d="m 22.98105,74.97123 0,-0.168015 0.263824,0 0,-1.737076 -0.263824,0 0,-0.168014 0.855346,0 0.591522,1.33023 0.5943,-1.33023 0.853958,0 0,0.168014 -0.265213,0 0,1.737076 0.265213,0 0,0.168015 -1.066406,0 0,-0.168015 0.263824,0 0,-1.581558 -0.642898,1.44548 -0.351304,0 -0.640121,-1.44548 0,1.581558 0.263824,0 0,0.168015 -0.722045,0 z" />
    <path
       id="path4712"
       style="font-size:64.99999762%;baseline-shift:sub"
       d="m 26.768175,74.854591 q 0.155518,0 0.218002,-0.1333 0.06387,-0.133301 0.06387,-0.48877 0,-0.355469 -0.06248,-0.487381 -0.06249,-0.133301 -0.219391,-0.133301 -0.156906,0 -0.220779,0.13469 -0.06387,0.1333 -0.06387,0.485992 0,0.352692 0.06387,0.487381 0.06387,0.134689 0.220779,0.134689 z m 0,0.156906 q -0.390182,0 -0.61235,-0.206893 -0.22078,-0.208283 -0.22078,-0.572083 0,-0.365189 0.22078,-0.570694 0.222168,-0.206894 0.61235,-0.206894 0.391571,0 0.612351,0.206894 0.220779,0.205505 0.220779,0.570694 0,0.3638 -0.222168,0.572083 -0.220779,0.206893 -0.610962,0.206893 z" />
    <path
       id="path4714"
       style="font-size:64.99999762%;baseline-shift:sub"
       d="m 28.746021,74.306114 0,-0.145798 q 0,-0.25827 -0.06665,-0.373519 -0.06665,-0.11525 -0.212448,-0.11525 -0.152741,0 -0.215225,0.122192 -0.0611,0.120804 -0.0611,0.438782 0,0.317978 0.06248,0.44017 0.06248,0.122193 0.213837,0.122193 0.145797,0 0.212448,-0.11525 0.06665,-0.11525 0.06665,-0.37352 z m 0.491547,0.497101 0.209671,0 0,0.168015 -0.701218,0 0,-0.187455 q -0.06248,0.11525 -0.169403,0.172181 -0.10553,0.05554 -0.261047,0.05554 -0.313812,0 -0.494324,-0.208282 -0.179123,-0.208282 -0.179123,-0.570694 0,-0.3638 0.179123,-0.570694 0.180512,-0.206894 0.494324,-0.206894 0.155517,0 0.261047,0.05693 0.106919,0.05554 0.169403,0.170791 l 0,-0.705383 -0.211059,0 0,-0.166626 0.702606,0 0,1.992569 z" />
    <path
       id="path4716"
       style="font-style:normal;font-variant:normal;font-weight:normal;font-stretch:normal;font-family:serif;-inkscape-font-specification:serif"
       d="m 31.325214,71.35331 0,1.198425 1.198426,0 0,0.346069 -1.198426,0 0,1.198426 -0.341796,0 0,-1.198426 -1.198426,0 0,-0.346069 1.198426,0 0,-1.198425 0.341796,0 z" />
    <path
       id="path4718"
       style="font-style:normal;font-variant:normal;font-weight:normal;font-stretch:normal;font-family:serif;-inkscape-font-specification:serif"
       d="m 33.416388,74.09623 0,-0.226441 0.555419,0 0,-2.653198 -0.643005,0.416565 0,-0.279846 0.777588,-0.504151 0.2948,0 0,3.02063 0.55542,0 0,0.226441 -1.540222,0 z" />
  </g>
  <g
     id="text4159-28"
     style="font-style:normal;font-variant:normal;font-weight:bold;font-stretch:normal;font-size:6.02200985px;line-height:125%;font-family:serif;-inkscape-font-specification:'serif Bold';text-align:center;letter-spacing:-0.19270432px;word-spacing:0px;text-anchor:middle;fill:#000000;fill-opacity:1;stroke:none;stroke-width:1px;stroke-linecap:butt;stroke-linejoin:miter;stroke-opacity:1"
     transform="matrix(0.946042,0,0,1.0378595,0.75510856,0)">
    <path
       id="path4695"
       style="font-style:normal;font-variant:normal;font-weight:bold;font-stretch:normal;font-size:6.02200985px;font-family:serif;-inkscape-font-specification:'serif Bold'"
       d="m 43.19953,73.227646 0,-0.355793 0.558682,0 0,-3.678483 -0.558682,0 0,-0.355793 1.811307,0 1.252625,2.816936 1.258506,-2.816936 1.808368,0 0,0.355793 -0.561623,0 0,3.678483 0.561623,0 0,0.355793 -2.258254,0 0,-0.355793 0.558682,0 0,-3.349155 -1.361421,3.060993 -0.74393,0 -1.35554,-3.060993 0,3.349155 0.558683,0 0,0.355793 -1.529026,0 z" />
  </g>
  <g
     id="text4165-8"
     style="font-style:normal;font-variant:normal;font-weight:bold;font-stretch:normal;font-size:4.375px;line-height:125%;font-family:serif;-inkscape-font-specification:'serif Bold';text-align:center;letter-spacing:-0.19245775px;word-spacing:0px;baseline-shift:baseline;text-anchor:middle;fill:#000000;fill-opacity:1;stroke:none;stroke-width:1px;stroke-linecap:butt;stroke-linejoin:miter;stroke-opacity:1"
     transform="matrix(0.96228876,0,0,1.0391891,-0.62191551,0)">
    <path
       id="path4668"
       style="font-style:normal;font-variant:normal;font-weight:bold;font-stretch:normal;font-size:4.375px;font-family:serif;-inkscape-font-specification:'serif Bold';text-align:start;text-anchor:start"
       d="m 51.883221,72.867912 -0.664368,0.969849 0.393066,0 0,0.258484 -1.132202,0 0,-0.258484 0.393067,0 0.839538,-1.219788 -0.997619,-1.452636 -0.292664,0 0,-0.258484 1.585083,0 0,0.258484 -0.350342,0 0.617371,0.897216 0.610962,-0.897216 -0.371704,0 0,-0.258484 1.11084,0 0,0.258484 -0.393067,0 -0.788269,1.145019 1.046753,1.527405 0.301208,0 0,0.258484 -1.591491,0 0,-0.258484 0.354614,0 -0.670776,-0.969849 z" />
    <path
       id="path4670"
       style="font-style:normal;font-variant:normal;font-weight:bold;font-stretch:normal;font-size:64.99999762%;font-family:serif;-inkscape-font-specification:'serif Bold';baseline-shift:sub"
       d="m 53.719968,74.971245 0,-0.168015 0.263825,0 0,-1.737076 -0.263825,0 0,-0.168014 0.855347,0 0.591522,1.330231 0.5943,-1.330231 0.853958,0 0,0.168014 -0.265213,0 0,1.737076 0.265213,0 0,0.168015 -1.066407,0 0,-0.168015 0.263825,0 0,-1.581558 -0.642899,1.44548 -0.351303,0 -0.640121,-1.44548 0,1.581558 0.263824,0 0,0.168015 -0.722046,0 z" />
    <path
       id="path4672"
       style="font-style:normal;font-variant:normal;font-weight:bold;font-stretch:normal;font-size:64.99999762%;font-family:serif;-inkscape-font-specification:'serif Bold';baseline-shift:sub"
       d="m 57.507094,74.854607 q 0.155518,0 0.218003,-0.133301 0.06387,-0.133301 0.06387,-0.48877 0,-0.355468 -0.06249,-0.487381 -0.06248,-0.1333 -0.219391,-0.1333 -0.156906,0 -0.220779,0.134689 -0.06387,0.133301 -0.06387,0.485992 0,0.352692 0.06387,0.487381 0.06387,0.13469 0.220779,0.13469 z m 0,0.156906 q -0.390182,0 -0.61235,-0.206894 -0.220779,-0.208283 -0.220779,-0.572083 0,-0.365188 0.220779,-0.570694 0.222168,-0.206894 0.61235,-0.206894 0.391571,0 0.612351,0.206894 0.220779,0.205506 0.220779,0.570694 0,0.3638 -0.222168,0.572083 -0.220779,0.206894 -0.610962,0.206894 z" />
    <path
       id="path4674"
       style="font-style:normal;font-variant:normal;font-weight:bold;font-stretch:normal;font-size:64.99999762%;font-family:serif;-inkscape-font-specification:'serif Bold';baseline-shift:sub"
       d="m 59.48494,74.306129 0,-0.145797 q 0,-0.258271 -0.06665,-0.37352 -0.06665,-0.11525 -0.212448,-0.11525 -0.152741,0 -0.215226,0.122193 -0.0611,0.120803 -0.0611,0.438781 0,0.317978 0.06249,0.440171 0.06249,0.122192 0.213837,0.122192 0.145797,0 0.212448,-0.11525 0.06665,-0.115249 0.06665,-0.37352 z m 0.491547,0.497101 0.209671,0 0,0.168015 -0.701218,0 0,-0.187454 q -0.06249,0.115249 -0.169403,0.17218 -0.10553,0.05554 -0.261047,0.05554 -0.313813,0 -0.494324,-0.208283 -0.179123,-0.208282 -0.179123,-0.570694 0,-0.3638 0.179123,-0.570694 0.180511,-0.206894 0.494324,-0.206894 0.155517,0 0.261047,0.05693 0.106918,0.05554 0.169403,0.170792 l 0,-0.705384 -0.21106,0 0,-0.166626 0.702607,0 0,1.992569 z" />
    <path
       id="path4676"
       style="font-style:normal;font-variant:normal;font-weight:normal;font-stretch:normal;font-family:serif;-inkscape-font-specification:serif"
       d="m 62.064135,71.353325 0,1.198425 1.198425,0 0,0.34607 -1.198425,0 0,1.198425 -0.341797,0 0,-1.198425 -1.198426,0 0,-0.34607 1.198426,0 0,-1.198425 0.341797,0 z" />
    <path
       id="path4678"
       style="font-style:normal;font-variant:normal;font-weight:normal;font-stretch:normal;font-family:serif;-inkscape-font-specification:serif"
       d="m 64.155307,74.096245 0,-0.226441 0.55542,0 0,-2.653198 -0.643006,0.416565 0,-0.279846 0.777588,-0.504151 0.2948,0 0,3.02063 0.55542,0 0,0.226441 -1.540222,0 z" />
    <path
       id="path4680"
       style="font-style:normal;font-variant:normal;font-weight:bold;font-stretch:normal;font-size:4.375px;font-family:serif;-inkscape-font-specification:'serif Bold';text-align:start;text-anchor:start"
       d="m 66.184529,74.517082 q 0.222168,-0.179443 0.326844,-0.401611 0.104675,-0.222168 0.104675,-0.516968 l 0,-0.183716 0.608826,0 0,0.01709 q 0,0.472107 -0.19867,0.811768 -0.196533,0.341797 -0.606689,0.574646 l -0.234986,-0.301209 z" />
    <path
       id="path4682"
       style="font-style:normal;font-variant:normal;font-weight:bold;font-stretch:normal;font-size:4.375px;font-family:serif;-inkscape-font-specification:'serif Bold';text-align:start;text-anchor:start"
       d="m 68.207342,74.096245 0,-0.258484 0.429382,0 0,-1.061707 -0.948486,-1.610717 -0.271301,0 0,-0.258484 1.529541,0 0,0.258484 -0.354614,0 0.717773,1.215515 0.713501,-1.215515 -0.318298,0 0,-0.258484 0.914306,0 0,0.258484 -0.271301,0 -0.884399,1.499633 0,1.172791 0.429382,0 0,0.258484 -1.685486,0 z" />
    <path
       id="path4684"
       style="font-size:64.99999762%;baseline-shift:sub"
       d="m 70.509789,74.971245 0,-0.168015 0.263824,0 0,-1.737076 -0.263824,0 0,-0.168014 0.855346,0 0.591522,1.330231 0.5943,-1.330231 0.853958,0 0,0.168014 -0.265213,0 0,1.737076 0.265213,0 0,0.168015 -1.066406,0 0,-0.168015 0.263824,0 0,-1.581558 -0.642898,1.44548 -0.351304,0 -0.640121,-1.44548 0,1.581558 0.263824,0 0,0.168015 -0.722045,0 z" />
    <path
       id="path4686"
       style="font-size:64.99999762%;baseline-shift:sub"
       d="m 74.296913,74.854607 q 0.155518,0 0.218002,-0.133301 0.06387,-0.133301 0.06387,-0.48877 0,-0.355468 -0.06248,-0.487381 -0.06249,-0.1333 -0.219391,-0.1333 -0.156906,0 -0.220779,0.134689 -0.06387,0.133301 -0.06387,0.485992 0,0.352692 0.06387,0.487381 0.06387,0.13469 0.220779,0.13469 z m 0,0.156906 q -0.390182,0 -0.61235,-0.206894 -0.22078,-0.208283 -0.22078,-0.572083 0,-0.365188 0.22078,-0.570694 0.222168,-0.206894 0.61235,-0.206894 0.391571,0 0.612351,0.206894 0.220779,0.205506 0.220779,0.570694 0,0.3638 -0.222168,0.572083 -0.220779,0.206894 -0.610962,0.206894 z" />
    <path
       id="path4688"
       style="font-size:64.99999762%;baseline-shift:sub"
       d="m 76.274759,74.306129 0,-0.145797 q 0,-0.258271 -0.06665,-0.37352 -0.06665,-0.11525 -0.212448,-0.11525 -0.152741,0 -0.215225,0.122193 -0.0611,0.120803 -0.0611,0.438781 0,0.317978 0.06248,0.440171 0.06248,0.122192 0.213837,0.122192 0.145798,0 0.212448,-0.11525 0.06665,-0.115249 0.06665,-0.37352 z m 0.491547,0.497101 0.209671,0 0,0.168015 -0.701218,0 0,-0.187454 q -0.06248,0.115249 -0.169403,0.17218 -0.10553,0.05554 -0.261047,0.05554 -0.313812,0 -0.494324,-0.208283 -0.179123,-0.208282 -0.179123,-0.570694 0,-0.3638 0.179123,-0.570694 0.180512,-0.206894 0.494324,-0.206894 0.155517,0 0.261047,0.05693 0.106919,0.05554 0.169403,0.170792 l 0,-0.705384 -0.211059,0 0,-0.166626 0.702606,0 0,1.992569 z" />
    <path
       id="path4690"
       style="font-style:normal;font-variant:normal;font-weight:normal;font-stretch:normal;font-family:serif;-inkscape-font-specification:serif"
       d="m 78.853954,71.353325 0,1.198425 1.198426,0 0,0.34607 -1.198426,0 0,1.198425 -0.341797,0 0,-1.198425 -1.198425,0 0,-0.34607 1.198425,0 0,-1.198425 0.341797,0 z" />
    <path
       id="path4692"
       style="font-style:normal;font-variant:normal;font-weight:normal;font-stretch:normal;font-family:serif;-inkscape-font-specification:serif"
       d="m 80.945127,74.096245 0,-0.226441 0.55542,0 0,-2.653198 -0.643005,0.416565 0,-0.279846 0.777588,-0.504151 0.2948,0 0,3.02063 0.55542,0 0,0.226441 -1.540223,0 z" />
  </g>
</svg>
